<svg xmlns="http://www.w3.org/2000/svg" xmlns:xlink="http://www.w3.org/1999/xlink" version="1.1" data-diagram-type="ACTIVITY" style="width:2010px;height:1667px;background:#FFFFFF;" width="2010px" height="1667px" viewBox="0 0 2010 1667" zoomAndPan="magnify" preserveAspectRatio="none" contentStyleType="text/css"><?plantuml 1.2026.7beta8?><defs/><g font-family="sans-serif" lengthAdjust="spacing"><g class="title" data-source-line="1"><text x="928.516" y="32.995" fill="#000" font-size="14" textLength="151.081" font-weight="700">Standard Checkout</text></g><rect x="20" y="55.042" width="1963.113" height="20.953" fill="none" style="stroke:none;"/><ellipse cx="141.829" cy="90.995" rx="10" ry="10" fill="#222" style="stroke:#222;stroke-width:1;"/><rect x="26" y="120.995" width="231.658" height="33.969" fill="#F7F7F7" style="stroke:#454545;stroke-width:0.5;" rx="12.5" ry="12.5"/><text x="36" y="142.134" fill="#000" font-size="12" textLength="211.658">Start checkout and identify session</text><rect x="69.805" y="1570.612" width="144.049" height="33.969" fill="#C8E6C9" style="stroke:#454545;stroke-width:0.5;" rx="12.5" ry="12.5"/><text x="79.805" y="1591.751" fill="#000" font-size="12" textLength="124.049">Checkout completed</text><ellipse cx="141.829" cy="1635.581" rx="11" ry="11" fill="none" style="stroke:#222;stroke-width:1;"/><ellipse cx="141.829" cy="1635.581" rx="6" ry="6" fill="#222" style="stroke:#222;stroke-width:1;"/><line x1="20" y1="55.042" x2="20" y2="1646.581" style="stroke:#000;stroke-width:1.5;"/><rect x="267.658" y="174.964" width="238.654" height="33.969" fill="#F7F7F7" style="stroke:#454545;stroke-width:0.5;" rx="12.5" ry="12.5"/><text x="277.658" y="196.103" fill="#000" font-size="12" textLength="218.654">Capture exit evidence or enter plate</text><line x1="261.658" y1="55.042" x2="261.658" y2="1646.581" style="stroke:#000;stroke-width:1.5;"/><rect x="668.681" y="228.933" width="172.057" height="33.969" fill="#F7F7F7" style="stroke:#454545;stroke-width:0.5;" rx="12.5" ry="12.5"/><text x="678.681" y="250.071" fill="#000" font-size="12" textLength="152.057">Normalize detected plate</text><rect x="626.531" y="282.901" width="256.355" height="33.969" fill="#F7F7F7" style="stroke:#454545;stroke-width:0.5;" rx="12.5" ry="12.5"/><text x="636.531" y="304.04" fill="#000" font-size="12" textLength="236.355">Validate active session, plate, and card</text><rect x="627.911" y="385.272" width="253.596" height="33.969" fill="#F7F7F7" style="stroke:#454545;stroke-width:0.5;" rx="12.5" ry="12.5"/><text x="637.911" y="406.411" fill="#000" font-size="12" textLength="233.596">Route to exceptional checkout process</text><rect x="671.235" y="439.241" width="166.947" height="33.969" fill="#FFECB3" style="stroke:#454545;stroke-width:0.5;" rx="12.5" ry="12.5"/><text x="681.235" y="460.38" fill="#000" font-size="12" textLength="146.947">Continue in Diagram 2.7</text><ellipse cx="754.709" cy="504.21" rx="11" ry="11" fill="none" style="stroke:#222;stroke-width:1;"/><ellipse cx="754.709" cy="504.21" rx="6" ry="6" fill="#222" style="stroke:#222;stroke-width:1;"/><polygon points="664.91,336.87,844.508,336.87,856.508,348.87,844.508,360.87,664.91,360.87,652.91,348.87,664.91,336.87" fill="#FFF2CC" style="stroke:#454545;stroke-width:0.5;stroke-linejoin:miter;stroke-miterlimit:10;"/><text x="758.709" y="371.081" fill="#000" font-size="11" textLength="19.218">Yes</text><text x="664.91" y="352.678" fill="#000" font-size="11" textLength="179.599">Mismatch or lost-card condition?</text><rect x="628.462" y="918.991" width="252.494" height="47.938" fill="#F7F7F7" style="stroke:#454545;stroke-width:0.5;" rx="12.5" ry="12.5"/><text x="638.462" y="940.13" fill="#000" font-size="12" textLength="232.494">Create payment and fail older Pending</text><text x="638.462" y="954.099" fill="#000" font-size="12" textLength="153.967">payments for this session</text><polygon points="704.476,986.929,804.942,986.929,816.942,998.929,804.942,1010.929,704.476,1010.929,692.476,998.929,704.476,986.929" fill="#FFF2CC" style="stroke:#454545;stroke-width:0.5;stroke-linejoin:miter;stroke-miterlimit:10;"/><text x="704.476" y="1002.737" fill="#000" font-size="11" textLength="100.466">Payment method?</text><text x="662.016" y="996.334" fill="#000" font-size="11" textLength="30.459">CASH</text><text x="816.942" y="996.334" fill="#000" font-size="11" textLength="97.448">ONLINE_BANKING</text><rect x="546.72" y="1030.929" width="172.18" height="33.969" fill="#F7F7F7" style="stroke:#454545;stroke-width:0.5;" rx="12.5" ry="12.5"/><text x="556.72" y="1052.067" fill="#000" font-size="12" textLength="152.18">Round by configured unit</text><rect x="516.313" y="1084.897" width="232.994" height="33.969" fill="#F7F7F7" style="stroke:#454545;stroke-width:0.5;" rx="12.5" ry="12.5"/><text x="526.313" y="1106.036" fill="#000" font-size="12" textLength="212.994">Set Payment = PAID synchronously</text><rect x="779.307" y="1133.3" width="194.604" height="47.938" fill="#FFCDD2" style="stroke:#454545;stroke-width:0.5;" rx="12.5" ry="12.5"/><text x="789.307" y="1154.438" fill="#000" font-size="12" textLength="174.604">Do not complete checkout or</text><text x="789.307" y="1168.407" fill="#000" font-size="12" textLength="106.518">release resources</text><ellipse cx="876.608" cy="1213.769" rx="11" ry="11" fill="none" style="stroke:#222;stroke-width:1;"/><ellipse cx="876.608" cy="1213.769" rx="6" ry="6" fill="#222" style="stroke:#222;stroke-width:1;"/><polygon points="792.113,1084.897,961.104,1084.897,973.104,1096.897,961.104,1108.897,792.113,1108.897,780.113,1096.897,792.113,1084.897" fill="#FFF2CC" style="stroke:#454545;stroke-width:0.5;stroke-linejoin:miter;stroke-miterlimit:10;"/><text x="880.608" y="1119.108" fill="#000" font-size="11" textLength="14.958">No</text><text x="792.113" y="1100.706" fill="#000" font-size="11" textLength="168.991">Verified success applied once?</text><rect x="805.357" y="1266.769" width="142.502" height="33.969" fill="#F7F7F7" style="stroke:#454545;stroke-width:0.5;" rx="12.5" ry="12.5"/><text x="815.357" y="1287.907" fill="#000" font-size="12" textLength="122.502">Set Payment = PAID</text><polygon points="754.709,1310.737,766.709,1322.737,754.709,1334.737,742.709,1322.737,754.709,1310.737" fill="#FFF2CC" style="stroke:#454545;stroke-width:0.5;stroke-linejoin:miter;stroke-miterlimit:10;"/><line x1="510.313" y1="55.042" x2="510.313" y2="1646.581" style="stroke:#000;stroke-width:1.5;"/><polygon points="1180.903,557.21,1371.916,557.21,1383.916,569.21,1371.916,581.21,1180.903,581.21,1168.903,569.21,1180.903,557.21" fill="#FFF2CC" style="stroke:#454545;stroke-width:0.5;stroke-linejoin:miter;stroke-miterlimit:10;"/><text x="1180.903" y="573.018" fill="#000" font-size="11" textLength="191.012">APPLY_SEGMENTED_PRICING true?</text><text x="1149.686" y="566.616" fill="#000" font-size="11" textLength="19.218">Yes</text><text x="1383.916" y="566.616" fill="#000" font-size="11" textLength="14.958">No</text><rect x="1010.104" y="591.21" width="263.621" height="47.938" fill="#F7F7F7" style="stroke:#454545;stroke-width:0.5;" rx="12.5" ry="12.5"/><text x="1020.104" y="612.349" fill="#000" font-size="12" textLength="243.621">Select each segment by highest Priority,</text><text x="1020.104" y="626.317" fill="#000" font-size="12" textLength="211.992">latest EffectiveStart, then identifier</text><rect x="1293.725" y="591.21" width="234.359" height="47.938" fill="#F7F7F7" style="stroke:#454545;stroke-width:0.5;" rx="12.5" ry="12.5"/><text x="1303.725" y="612.349" fill="#000" font-size="12" textLength="214.359">Use non-segmented policy selected</text><text x="1303.725" y="626.317" fill="#000" font-size="12" textLength="66.275">at check-in</text><polygon points="1276.409,645.147,1288.409,657.147,1276.409,669.147,1264.409,657.147,1276.409,645.147" fill="#FFF2CC" style="stroke:#454545;stroke-width:0.5;stroke-linejoin:miter;stroke-miterlimit:10;"/><rect x="1166.586" y="689.147" width="219.646" height="33.969" fill="#F7F7F7" style="stroke:#454545;stroke-width:0.5;" rx="12.5" ry="12.5"/><text x="1176.586" y="710.286" fill="#000" font-size="12" textLength="199.646">Apply base and increment blocks</text><rect x="1176.427" y="743.116" width="199.965" height="47.938" fill="#F7F7F7" style="stroke:#454545;stroke-width:0.5;" rx="12.5" ry="12.5"/><text x="1186.427" y="764.255" fill="#000" font-size="12" textLength="179.965">Charge partial increment only</text><text x="1186.427" y="778.224" fill="#000" font-size="12" textLength="129.352">at or above threshold</text><rect x="1172.583" y="811.054" width="207.652" height="33.969" fill="#F7F7F7" style="stroke:#454545;stroke-width:0.5;" rx="12.5" ry="12.5"/><text x="1182.583" y="832.192" fill="#000" font-size="12" textLength="187.652">Apply UTC+7 calendar-day cap</text><rect x="1139.138" y="865.022" width="274.543" height="33.969" fill="#F7F7F7" style="stroke:#454545;stroke-width:0.5;" rx="12.5" ry="12.5"/><text x="1149.138" y="886.161" fill="#000" font-size="12" textLength="254.543">Add Open or Processing incident penalties</text><line x1="1004.104" y1="55.042" x2="1004.104" y2="1646.581" style="stroke:#000;stroke-width:1.5;"/><rect x="1538.084" y="1030.929" width="196.232" height="33.969" fill="#F7F7F7" style="stroke:#454545;stroke-width:0.5;" rx="12.5" ry="12.5"/><text x="1548.084" y="1052.067" fill="#000" font-size="12" textLength="176.232">Return URL and signed result</text><line x1="1532.084" y1="55.042" x2="1532.084" y2="1646.581" style="stroke:#000;stroke-width:1.5;"/><rect x="1744.317" y="1354.737" width="232.936" height="33.969" fill="#F7F7F7" style="stroke:#454545;stroke-width:0.5;" rx="12.5" ry="12.5"/><text x="1754.317" y="1375.876" fill="#000" font-size="12" textLength="212.936">Store ImageOut and detected plate</text><rect x="1747.859" y="1408.706" width="225.852" height="33.969" fill="#F7F7F7" style="stroke:#454545;stroke-width:0.5;" rx="12.5" ry="12.5"/><text x="1757.859" y="1429.845" fill="#000" font-size="12" textLength="205.852">Set ParkingSession = COMPLETED</text><rect x="1785.994" y="1462.675" width="149.58" height="33.969" fill="#F7F7F7" style="stroke:#454545;stroke-width:0.5;" rx="12.5" ry="12.5"/><text x="1795.994" y="1483.813" fill="#000" font-size="12" textLength="129.58">Release slot and card</text><rect x="1748.535" y="1516.644" width="224.498" height="33.969" fill="#F7F7F7" style="stroke:#454545;stroke-width:0.5;" rx="12.5" ry="12.5"/><text x="1758.535" y="1537.782" fill="#000" font-size="12" textLength="204.498">Resolve applicable open incidents</text><line x1="1738.317" y1="55.042" x2="1738.317" y2="1646.581" style="stroke:#000;stroke-width:1.5;"/><line x1="1981.252" y1="55.042" x2="1981.252" y2="1646.581" style="stroke:#000;stroke-width:1.5;"/><line x1="141.829" y1="100.995" x2="141.829" y2="120.995" style="stroke:#181818;stroke-width:1;"/><polygon points="137.829,110.995,141.829,120.995,145.829,110.995,141.829,114.995" fill="#181818" style="stroke:#181818;stroke-width:1;stroke-linejoin:miter;stroke-miterlimit:10;"/><line x1="141.829" y1="1604.581" x2="141.829" y2="1624.581" style="stroke:#181818;stroke-width:1;"/><polygon points="137.829,1614.581,141.829,1624.581,145.829,1614.581,141.829,1618.581" fill="#181818" style="stroke:#181818;stroke-width:1;stroke-linejoin:miter;stroke-miterlimit:10;"/><line x1="754.709" y1="262.901" x2="754.709" y2="282.901" style="stroke:#181818;stroke-width:1;"/><polygon points="750.709,272.901,754.709,282.901,758.709,272.901,754.709,276.901" fill="#181818" style="stroke:#181818;stroke-width:1;stroke-linejoin:miter;stroke-miterlimit:10;"/><line x1="754.709" y1="419.241" x2="754.709" y2="439.241" style="stroke:#181818;stroke-width:1;"/><polygon points="750.709,429.241,754.709,439.241,758.709,429.241,754.709,433.241" fill="#181818" style="stroke:#181818;stroke-width:1;stroke-linejoin:miter;stroke-miterlimit:10;"/><line x1="754.709" y1="473.21" x2="754.709" y2="493.21" style="stroke:#181818;stroke-width:1;"/><polygon points="750.709,483.21,754.709,493.21,758.709,483.21,754.709,487.21" fill="#181818" style="stroke:#181818;stroke-width:1;stroke-linejoin:miter;stroke-miterlimit:10;"/><line x1="754.709" y1="360.87" x2="754.709" y2="385.272" style="stroke:#181818;stroke-width:1;"/><polygon points="750.709,375.272,754.709,385.272,758.709,375.272,754.709,379.272" fill="#181818" style="stroke:#181818;stroke-width:1;stroke-linejoin:miter;stroke-miterlimit:10;"/><line x1="856.508" y1="348.87" x2="1276.409" y2="348.87" style="stroke:#181818;stroke-width:1;"/><polygon points="1272.409,454.741,1276.409,464.741,1280.409,454.741,1276.409,458.741" fill="#181818" style="stroke:#181818;stroke-width:1;stroke-linejoin:miter;stroke-miterlimit:10;"/><line x1="1276.409" y1="348.87" x2="1276.409" y2="557.21" style="stroke:#181818;stroke-width:1;"/><polygon points="1272.409,547.21,1276.409,557.21,1280.409,547.21,1276.409,551.21" fill="#181818" style="stroke:#181818;stroke-width:1;stroke-linejoin:miter;stroke-miterlimit:10;"/><line x1="754.709" y1="316.87" x2="754.709" y2="336.87" style="stroke:#181818;stroke-width:1;"/><polygon points="750.709,326.87,754.709,336.87,758.709,326.87,754.709,330.87" fill="#181818" style="stroke:#181818;stroke-width:1;stroke-linejoin:miter;stroke-miterlimit:10;"/><line x1="632.81" y1="1064.897" x2="632.81" y2="1084.897" style="stroke:#181818;stroke-width:1;"/><polygon points="628.81,1074.897,632.81,1084.897,636.81,1074.897,632.81,1078.897" fill="#181818" style="stroke:#181818;stroke-width:1;stroke-linejoin:miter;stroke-miterlimit:10;"/><line x1="876.608" y1="1181.237" x2="876.608" y2="1202.769" style="stroke:#181818;stroke-width:1;"/><polygon points="872.608,1192.769,876.608,1202.769,880.608,1192.769,876.608,1196.769" fill="#181818" style="stroke:#181818;stroke-width:1;stroke-linejoin:miter;stroke-miterlimit:10;"/><line x1="876.608" y1="1108.897" x2="876.608" y2="1133.3" style="stroke:#181818;stroke-width:1;"/><polygon points="872.608,1123.3,876.608,1133.3,880.608,1123.3,876.608,1127.3" fill="#181818" style="stroke:#181818;stroke-width:1;stroke-linejoin:miter;stroke-miterlimit:10;"/><line x1="973.104" y1="1096.897" x2="985.104" y2="1096.897" style="stroke:#181818;stroke-width:1;"/><polygon points="981.104,1172.769,985.104,1182.769,989.104,1172.769,985.104,1176.769" fill="#181818" style="stroke:#181818;stroke-width:1;stroke-linejoin:miter;stroke-miterlimit:10;"/><line x1="985.104" y1="1096.897" x2="985.104" y2="1246.769" style="stroke:#181818;stroke-width:1;"/><line x1="985.104" y1="1246.769" x2="876.608" y2="1246.769" style="stroke:#181818;stroke-width:1;"/><line x1="876.608" y1="1246.769" x2="876.608" y2="1266.769" style="stroke:#181818;stroke-width:1;"/><polygon points="872.608,1256.769,876.608,1266.769,880.608,1256.769,876.608,1260.769" fill="#181818" style="stroke:#181818;stroke-width:1;stroke-linejoin:miter;stroke-miterlimit:10;"/><line x1="692.476" y1="998.929" x2="632.81" y2="998.929" style="stroke:#181818;stroke-width:1;"/><line x1="632.81" y1="998.929" x2="632.81" y2="1030.929" style="stroke:#181818;stroke-width:1;"/><polygon points="628.81,1020.929,632.81,1030.929,636.81,1020.929,632.81,1024.929" fill="#181818" style="stroke:#181818;stroke-width:1;stroke-linejoin:miter;stroke-miterlimit:10;"/><line x1="632.81" y1="1118.866" x2="632.81" y2="1322.737" style="stroke:#181818;stroke-width:1;"/><line x1="632.81" y1="1322.737" x2="742.709" y2="1322.737" style="stroke:#181818;stroke-width:1;"/><polygon points="732.709,1318.737,742.709,1322.737,732.709,1326.737,736.709,1322.737" fill="#181818" style="stroke:#181818;stroke-width:1;stroke-linejoin:miter;stroke-miterlimit:10;"/><line x1="876.608" y1="1300.737" x2="876.608" y2="1322.737" style="stroke:#181818;stroke-width:1;"/><line x1="876.608" y1="1322.737" x2="766.709" y2="1322.737" style="stroke:#181818;stroke-width:1;"/><polygon points="776.709,1318.737,766.709,1322.737,776.709,1326.737,772.709,1322.737" fill="#181818" style="stroke:#181818;stroke-width:1;stroke-linejoin:miter;stroke-miterlimit:10;"/><line x1="754.709" y1="966.929" x2="754.709" y2="986.929" style="stroke:#181818;stroke-width:1;"/><polygon points="750.709,976.929,754.709,986.929,758.709,976.929,754.709,980.929" fill="#181818" style="stroke:#181818;stroke-width:1;stroke-linejoin:miter;stroke-miterlimit:10;"/><line x1="1168.903" y1="569.21" x2="1141.914" y2="569.21" style="stroke:#181818;stroke-width:1;"/><line x1="1141.914" y1="569.21" x2="1141.914" y2="591.21" style="stroke:#181818;stroke-width:1;"/><polygon points="1137.914,581.21,1141.914,591.21,1145.914,581.21,1141.914,585.21" fill="#181818" style="stroke:#181818;stroke-width:1;stroke-linejoin:miter;stroke-miterlimit:10;"/><line x1="1383.916" y1="569.21" x2="1410.905" y2="569.21" style="stroke:#181818;stroke-width:1;"/><line x1="1410.905" y1="569.21" x2="1410.905" y2="591.21" style="stroke:#181818;stroke-width:1;"/><polygon points="1406.905,581.21,1410.905,591.21,1414.905,581.21,1410.905,585.21" fill="#181818" style="stroke:#181818;stroke-width:1;stroke-linejoin:miter;stroke-miterlimit:10;"/><line x1="1141.914" y1="639.147" x2="1141.914" y2="657.147" style="stroke:#181818;stroke-width:1;"/><line x1="1141.914" y1="657.147" x2="1264.409" y2="657.147" style="stroke:#181818;stroke-width:1;"/><polygon points="1254.409,653.147,1264.409,657.147,1254.409,661.147,1258.409,657.147" fill="#181818" style="stroke:#181818;stroke-width:1;stroke-linejoin:miter;stroke-miterlimit:10;"/><line x1="1410.905" y1="639.147" x2="1410.905" y2="657.147" style="stroke:#181818;stroke-width:1;"/><line x1="1410.905" y1="657.147" x2="1288.409" y2="657.147" style="stroke:#181818;stroke-width:1;"/><polygon points="1298.409,653.147,1288.409,657.147,1298.409,661.147,1294.409,657.147" fill="#181818" style="stroke:#181818;stroke-width:1;stroke-linejoin:miter;stroke-miterlimit:10;"/><line x1="1276.409" y1="669.147" x2="1276.409" y2="689.147" style="stroke:#181818;stroke-width:1;"/><polygon points="1272.409,679.147,1276.409,689.147,1280.409,679.147,1276.409,683.147" fill="#181818" style="stroke:#181818;stroke-width:1;stroke-linejoin:miter;stroke-miterlimit:10;"/><line x1="1276.409" y1="723.116" x2="1276.409" y2="743.116" style="stroke:#181818;stroke-width:1;"/><polygon points="1272.409,733.116,1276.409,743.116,1280.409,733.116,1276.409,737.116" fill="#181818" style="stroke:#181818;stroke-width:1;stroke-linejoin:miter;stroke-miterlimit:10;"/><line x1="1276.409" y1="791.054" x2="1276.409" y2="811.054" style="stroke:#181818;stroke-width:1;"/><polygon points="1272.409,801.054,1276.409,811.054,1280.409,801.054,1276.409,805.054" fill="#181818" style="stroke:#181818;stroke-width:1;stroke-linejoin:miter;stroke-miterlimit:10;"/><line x1="1276.409" y1="845.022" x2="1276.409" y2="865.022" style="stroke:#181818;stroke-width:1;"/><polygon points="1272.409,855.022,1276.409,865.022,1280.409,855.022,1276.409,859.022" fill="#181818" style="stroke:#181818;stroke-width:1;stroke-linejoin:miter;stroke-miterlimit:10;"/><line x1="1860.784" y1="1388.706" x2="1860.784" y2="1408.706" style="stroke:#181818;stroke-width:1;"/><polygon points="1856.784,1398.706,1860.784,1408.706,1864.784,1398.706,1860.784,1402.706" fill="#181818" style="stroke:#181818;stroke-width:1;stroke-linejoin:miter;stroke-miterlimit:10;"/><line x1="1860.784" y1="1442.675" x2="1860.784" y2="1462.675" style="stroke:#181818;stroke-width:1;"/><polygon points="1856.784,1452.675,1860.784,1462.675,1864.784,1452.675,1860.784,1456.675" fill="#181818" style="stroke:#181818;stroke-width:1;stroke-linejoin:miter;stroke-miterlimit:10;"/><line x1="1860.784" y1="1496.644" x2="1860.784" y2="1516.644" style="stroke:#181818;stroke-width:1;"/><polygon points="1856.784,1506.644,1860.784,1516.644,1864.784,1506.644,1860.784,1510.644" fill="#181818" style="stroke:#181818;stroke-width:1;stroke-linejoin:miter;stroke-miterlimit:10;"/><line x1="141.829" y1="154.964" x2="141.829" y2="159.964" style="stroke:#181818;stroke-width:1;"/><line x1="141.829" y1="159.964" x2="386.985" y2="159.964" style="stroke:#181818;stroke-width:1;"/><line x1="386.985" y1="159.964" x2="386.985" y2="174.964" style="stroke:#181818;stroke-width:1;"/><polygon points="382.985,164.964,386.985,174.964,390.985,164.964,386.985,168.964" fill="#181818" style="stroke:#181818;stroke-width:1;stroke-linejoin:miter;stroke-miterlimit:10;"/><line x1="386.985" y1="208.933" x2="386.985" y2="213.933" style="stroke:#181818;stroke-width:1;"/><line x1="386.985" y1="213.933" x2="754.709" y2="213.933" style="stroke:#181818;stroke-width:1;"/><line x1="754.709" y1="213.933" x2="754.709" y2="228.933" style="stroke:#181818;stroke-width:1;"/><polygon points="750.709,218.933,754.709,228.933,758.709,218.933,754.709,222.933" fill="#181818" style="stroke:#181818;stroke-width:1;stroke-linejoin:miter;stroke-miterlimit:10;"/><line x1="1276.409" y1="898.991" x2="1276.409" y2="903.991" style="stroke:#181818;stroke-width:1;"/><line x1="1276.409" y1="903.991" x2="754.709" y2="903.991" style="stroke:#181818;stroke-width:1;"/><line x1="754.709" y1="903.991" x2="754.709" y2="918.991" style="stroke:#181818;stroke-width:1;"/><polygon points="750.709,908.991,754.709,918.991,758.709,908.991,754.709,912.991" fill="#181818" style="stroke:#181818;stroke-width:1;stroke-linejoin:miter;stroke-miterlimit:10;"/><line x1="1636.2" y1="1064.897" x2="1636.2" y2="1069.897" style="stroke:#181818;stroke-width:1;"/><line x1="1636.2" y1="1069.897" x2="876.608" y2="1069.897" style="stroke:#181818;stroke-width:1;"/><line x1="876.608" y1="1069.897" x2="876.608" y2="1084.897" style="stroke:#181818;stroke-width:1;"/><polygon points="872.608,1074.897,876.608,1084.897,880.608,1074.897,876.608,1078.897" fill="#181818" style="stroke:#181818;stroke-width:1;stroke-linejoin:miter;stroke-miterlimit:10;"/><line x1="816.942" y1="998.929" x2="1636.2" y2="998.929" style="stroke:#181818;stroke-width:1;"/><line x1="1636.2" y1="998.929" x2="1636.2" y2="1030.929" style="stroke:#181818;stroke-width:1;"/><polygon points="1632.2,1020.929,1636.2,1030.929,1640.2,1020.929,1636.2,1024.929" fill="#181818" style="stroke:#181818;stroke-width:1;stroke-linejoin:miter;stroke-miterlimit:10;"/><line x1="754.709" y1="1334.737" x2="754.709" y2="1339.737" style="stroke:#181818;stroke-width:1;"/><line x1="754.709" y1="1339.737" x2="1860.784" y2="1339.737" style="stroke:#181818;stroke-width:1;"/><line x1="1860.784" y1="1339.737" x2="1860.784" y2="1354.737" style="stroke:#181818;stroke-width:1;"/><polygon points="1856.784,1344.737,1860.784,1354.737,1864.784,1344.737,1860.784,1348.737" fill="#181818" style="stroke:#181818;stroke-width:1;stroke-linejoin:miter;stroke-miterlimit:10;"/><line x1="1860.784" y1="1550.612" x2="1860.784" y2="1555.612" style="stroke:#181818;stroke-width:1;"/><line x1="1860.784" y1="1555.612" x2="141.829" y2="1555.612" style="stroke:#181818;stroke-width:1;"/><line x1="141.829" y1="1555.612" x2="141.829" y2="1570.612" style="stroke:#181818;stroke-width:1;"/><polygon points="137.829,1560.612,141.829,1570.612,145.829,1560.612,141.829,1564.612" fill="#181818" style="stroke:#181818;stroke-width:1;stroke-linejoin:miter;stroke-miterlimit:10;"/><text x="119.735" y="71.75" fill="#000" font-size="18" textLength="42.188">Staff</text><text x="294.355" y="71.75" fill="#000" font-size="18" textLength="183.261">Gate UI and Camera</text><text x="715.029" y="71.75" fill="#000" font-size="18" textLength="84.357">PBMS API</text><text x="1203.894" y="71.75" fill="#000" font-size="18" textLength="128.399">Pricing Engine</text><text x="1606.043" y="71.75" fill="#000" font-size="18" textLength="58.315">VNPay</text><text x="1747.623" y="71.75" fill="#000" font-size="18" textLength="224.323">Database and Resources</text><?plantuml-src RLHRJ-Gs57xFhpXINrWL-a0lT6UsMmsPG4U58PfPa5P2GiOvIImSExATtQQR_lT-JZ90HPM7cSJdzbryWWgQQH-4AOGhAArPFjak9Fv9cLOuqP2lHM6_AbDHARJdLoT21lL5XPw-9KJdGZvLpdQcIAssZhwxE8jFFB6kO3T__Udd-E3hMed6ck9jsiN5QPec_oJ9WAdASaXy42uaYtty8JaFI1YOLC4cgB8dpzuhQvR9S2a2q-rcF4v5mquCoI8LRUWS4_-b0l6Nc2QPq0tfxAZLI49kVdwzfrM-GSRMkaPezJTJmO5buE8GjRZ3zo9s6U7peVVn570yTfRWSfceaewkbMz4a7NifgqF9_68992hWApVtr6esT3HP_RlmCfY1snCmM9MoMqC4Ve5TEkiHBjbZ4mji9kEIPb8PXKLEVtXR4aVFe34B3t_yUD7nFbWsuJHhWH0fsGKCZELCZoC0wxo_EhpmpwxlCwsdxBrGxxRf9lj9GNNyPlfzgn11h408CzL0_xeiQTQLJNxGAXl7GnnV6yY5_YIbIMFD8tg7K_bPjaKksN2i1GTRUrO_XR_ZJKdS-b8kjLAHdtrACAz4RC5JXJKdc0jLcshUteKo1vTOQJZQJHjvHFOMgIrS1KJR1iK-7o9i4RtOr788nujv0orOrzR3VtcmhUVqk_F8AdcU4TE2j7ZfOt7HK4tBG0XEP-KYUoY-eYGS2HqKEp_wwtKSRHFA_fnX3XoAPGcz8GPymZALFTcFlTKedoebNznUTGjdzCR3hKjdfLAL_i_3aP2OOW3hvMgWlqBwemAoqb7Y3KN-8torMPDlZUoTjROpkl-eClDzcgppHxELzi_uObOTxZR8d4OEp0kbQ7RtTM8mQlAe0VOw_JOvHLceZZo7RkeEa8x6SaY0NxZkyLrV4OmUG7rrnPcWDosQJKkuSijiExUE3WY2evsjdEeDli-NQzFHz_FpYUQJFA_e0yE6jOYY6V_x0ubXxXqBFR6fX4LtynBvyr2cEewhCLgFoc4ykdDTNwLuK8XO3VFwhKDhzR38ZRIiDn8WnIFMCGsskbWeEYRUGSk3elvcOvY19p-clsIlWVW2FPV?></g></svg>