<svg xmlns="http://www.w3.org/2000/svg" xmlns:xlink="http://www.w3.org/1999/xlink" version="1.1" data-diagram-type="ACTIVITY" style="width:2732px;height:2557px;background:#FFFFFF;" width="2732px" height="2557px" viewBox="0 0 2732 2557" zoomAndPan="magnify" preserveAspectRatio="none" contentStyleType="text/css"><?plantuml 1.2026.7beta8?><defs/><g font-family="sans-serif" lengthAdjust="spacing"><g class="title" data-source-line="1"><text x="1296.141" y="32.995" fill="#000" font-size="14" textLength="138.202" font-weight="700">Booking Lifecycle</text></g><rect x="20" y="55.042" width="2685.483" height="20.953" fill="none" style="stroke:none;"/><ellipse cx="326.749" cy="90.995" rx="10" ry="10" fill="#222" style="stroke:#222;stroke-width:1;"/><rect x="208.502" y="120.995" width="236.492" height="47.938" fill="#F7F7F7" style="stroke:#454545;stroke-width:0.5;" rx="12.5" ry="12.5"/><text x="218.502" y="142.134" fill="#000" font-size="12" textLength="186.656">Select owned vehicle, building,</text><text x="218.502" y="156.103" fill="#000" font-size="12" textLength="216.492">planned times, and optional car slot</text><rect x="259.198" y="1486.565" width="135.102" height="33.969" fill="#F7F7F7" style="stroke:#454545;stroke-width:0.5;" rx="12.5" ry="12.5"/><text x="269.198" y="1507.704" fill="#000" font-size="12" textLength="115.102">Complete payment</text><polygon points="47,1820.409,116.013,1820.409,128.013,1832.409,116.013,1844.409,47,1844.409,35,1832.409,47,1820.409" fill="#FFF2CC" style="stroke:#454545;stroke-width:0.5;stroke-linejoin:miter;stroke-miterlimit:10;"/><text x="85.507" y="1854.62" fill="#000" font-size="11" textLength="93.199">Modify or extend</text><text x="47" y="1836.217" fill="#000" font-size="11" textLength="69.013">Next action?</text><polygon points="497.813,1820.409,535.078,1820.409,547.078,1832.409,535.078,1844.409,497.813,1844.409,485.813,1832.409,497.813,1820.409" fill="#FFF2CC" style="stroke:#454545;stroke-width:0.5;stroke-linejoin:miter;stroke-miterlimit:10;"/><text x="497.813" y="1836.217" fill="#000" font-size="11" textLength="37.265">Cancel</text><text x="547.078" y="1829.815" fill="#000" font-size="11" textLength="24.986">Wait</text><rect x="187.684" y="2460.346" width="278.129" height="33.969" fill="#C8E6C9" style="stroke:#454545;stroke-width:0.5;" rx="12.5" ry="12.5"/><text x="197.684" y="2481.485" fill="#000" font-size="12" textLength="258.129">Booking state and payment state recorded</text><ellipse cx="326.749" cy="2525.315" rx="11" ry="11" fill="none" style="stroke:#222;stroke-width:1;"/><ellipse cx="326.749" cy="2525.315" rx="6" ry="6" fill="#222" style="stroke:#222;stroke-width:1;"/><line x1="20" y1="55.042" x2="20" y2="2536.315" style="stroke:#000;stroke-width:1.5;"/><rect x="611.064" y="188.933" width="163.883" height="33.969" fill="#F7F7F7" style="stroke:#454545;stroke-width:0.5;" rx="12.5" ry="12.5"/><text x="621.064" y="210.071" fill="#000" font-size="12" textLength="143.883">Submit booking request</text><line x1="605.064" y1="55.042" x2="605.064" y2="2536.315" style="stroke:#000;stroke-width:1.5;"/><rect x="1128.501" y="242.901" width="258.939" height="33.969" fill="#F7F7F7" style="stroke:#454545;stroke-width:0.5;" rx="12.5" ry="12.5"/><text x="1138.501" y="264.04" fill="#000" font-size="12" textLength="238.939">Normalize plate and validate ownership</text><rect x="1156.406" y="346.882" width="203.129" height="33.969" fill="#FFCDD2" style="stroke:#454545;stroke-width:0.5;" rx="12.5" ry="12.5"/><text x="1166.406" y="368.021" fill="#000" font-size="12" textLength="183.129">Reject invalid planned interval</text><ellipse cx="1257.971" cy="419.964" rx="11" ry="11" fill="none" style="stroke:#222;stroke-width:1;"/><ellipse cx="1257.971" cy="419.964" rx="6" ry="6" fill="#222" style="stroke:#222;stroke-width:1;"/><polygon points="1186.388,296.87,1329.554,296.87,1341.554,309.675,1329.554,322.479,1186.388,322.479,1174.388,309.675,1186.388,296.87" fill="#FFF2CC" style="stroke:#454545;stroke-width:0.5;stroke-linejoin:miter;stroke-miterlimit:10;"/><text x="1261.971" y="332.69" fill="#000" font-size="11" textLength="14.958">No</text><text x="1186.388" y="307.081" fill="#000" font-size="11" textLength="142.415">Lead time >= 15 minutes</text><text x="1186.388" y="319.885" fill="#000" font-size="11" textLength="143.167">and duration >= 4 hours?</text><rect x="1174.245" y="522.976" width="167.451" height="33.969" fill="#FFCDD2" style="stroke:#454545;stroke-width:0.5;" rx="12.5" ry="12.5"/><text x="1184.245" y="544.114" fill="#000" font-size="12" textLength="147.451">Reject ineligible booking</text><ellipse cx="1257.971" cy="596.058" rx="11" ry="11" fill="none" style="stroke:#222;stroke-width:1;"/><ellipse cx="1257.971" cy="596.058" rx="6" ry="6" fill="#222" style="stroke:#222;stroke-width:1;"/><polygon points="1164.057,472.964,1351.885,472.964,1363.885,485.769,1351.885,498.573,1164.057,498.573,1152.057,485.769,1164.057,472.964" fill="#FFF2CC" style="stroke:#454545;stroke-width:0.5;stroke-linejoin:miter;stroke-miterlimit:10;"/><text x="1261.971" y="508.784" fill="#000" font-size="11" textLength="14.958">No</text><text x="1164.057" y="483.174" fill="#000" font-size="11" textLength="187.827">Active structure, compatible type,</text><text x="1164.057" y="495.979" fill="#000" font-size="11" textLength="150.74">not blacklisted, no conflict?</text><rect x="1187.502" y="747.472" width="140.938" height="33.969" fill="#FFCDD2" style="stroke:#454545;stroke-width:0.5;" rx="12.5" ry="12.5"/><text x="1197.502" y="768.61" fill="#000" font-size="12" textLength="120.938">Reject slot selection</text><ellipse cx="1257.971" cy="820.554" rx="11" ry="11" fill="none" style="stroke:#222;stroke-width:1;"/><ellipse cx="1257.971" cy="820.554" rx="6" ry="6" fill="#222" style="stroke:#222;stroke-width:1;"/><polygon points="1167.366,697.46,1348.576,697.46,1360.576,710.265,1348.576,723.069,1167.366,723.069,1155.366,710.265,1167.366,697.46" fill="#FFF2CC" style="stroke:#454545;stroke-width:0.5;stroke-linejoin:miter;stroke-miterlimit:10;"/><text x="1261.971" y="733.28" fill="#000" font-size="11" textLength="14.958">No</text><text x="1167.366" y="707.67" fill="#000" font-size="11" textLength="133.085">Vehicle is car and slot is</text><text x="1167.366" y="720.475" fill="#000" font-size="11" textLength="181.21">available with configured buffer?</text><polygon points="1219.546,649.058,1296.396,649.058,1308.396,661.058,1296.396,673.058,1219.546,673.058,1207.546,661.058,1219.546,649.058" fill="#FFF2CC" style="stroke:#454545;stroke-width:0.5;stroke-linejoin:miter;stroke-miterlimit:10;"/><text x="1261.971" y="683.268" fill="#000" font-size="11" textLength="19.218">Yes</text><text x="1219.546" y="664.866" fill="#000" font-size="11" textLength="76.85">Slot selected?</text><polygon points="1257.971,873.554,1269.971,885.554,1257.971,897.554,1245.971,885.554,1257.971,873.554" fill="#FFF2CC" style="stroke:#454545;stroke-width:0.5;stroke-linejoin:miter;stroke-miterlimit:10;"/><rect x="1151.441" y="917.554" width="213.061" height="47.938" fill="#F7F7F7" style="stroke:#454545;stroke-width:0.5;" rx="12.5" ry="12.5"/><text x="1161.441" y="938.692" fill="#000" font-size="12" textLength="193.061">Calculate effective capacity and</text><text x="1161.441" y="952.661" fill="#000" font-size="12" textLength="109.711">zone booking load</text><rect x="1166.854" y="1033.894" width="182.234" height="33.969" fill="#FFCDD2" style="stroke:#454545;stroke-width:0.5;" rx="12.5" ry="12.5"/><text x="1176.854" y="1055.032" fill="#000" font-size="12" textLength="162.234">Reject insufficient capacity</text><ellipse cx="1257.971" cy="1107.847" rx="11" ry="11" fill="none" style="stroke:#222;stroke-width:1;"/><ellipse cx="1257.971" cy="1107.847" rx="6" ry="6" fill="#222" style="stroke:#222;stroke-width:1;"/><polygon points="1179.983,985.491,1335.959,985.491,1347.959,997.491,1335.959,1009.491,1179.983,1009.491,1167.983,997.491,1179.983,985.491" fill="#FFF2CC" style="stroke:#454545;stroke-width:0.5;stroke-linejoin:miter;stroke-miterlimit:10;"/><text x="1261.971" y="1019.702" fill="#000" font-size="11" textLength="19.218">Yes</text><text x="1179.983" y="1001.299" fill="#000" font-size="11" textLength="155.977">Allowed capacity exceeded?</text><rect x="1115.552" y="1214.815" width="284.838" height="75.875" fill="#F7F7F7" style="stroke:#454545;stroke-width:0.5;" rx="12.5" ry="12.5"/><text x="1125.552" y="1235.954" fill="#000" font-size="12" textLength="148.014">Create Pending booking;</text><text x="1125.552" y="1249.923" fill="#000" font-size="12" textLength="142.717">Deposit = full estimate;</text><text x="1125.552" y="1263.892" fill="#000" font-size="12" textLength="264.838">Payment deadline = creation + 15 minutes;</text><text x="1125.552" y="1277.86" fill="#000" font-size="12" textLength="219.393">Grace until = check-in + 30 minutes</text><rect x="1144.207" y="1310.69" width="227.527" height="33.969" fill="#F7F7F7" style="stroke:#454545;stroke-width:0.5;" rx="12.5" ry="12.5"/><text x="1154.207" y="1331.829" fill="#000" font-size="12" textLength="207.527">Create ONLINE_BANKING payment</text><rect x="1158.097" y="1364.659" width="199.748" height="47.938" fill="#F7F7F7" style="stroke:#454545;stroke-width:0.5;" rx="12.5" ry="12.5"/><text x="1168.097" y="1385.798" fill="#000" font-size="12" textLength="179.748">Mark older Pending payments</text><text x="1168.097" y="1399.767" fill="#000" font-size="12" textLength="133.57">for this booking Failed</text><polygon points="1157.84,1594.503,1358.102,1594.503,1370.102,1606.503,1358.102,1618.503,1157.84,1618.503,1145.84,1606.503,1157.84,1594.503" fill="#FFF2CC" style="stroke:#454545;stroke-width:0.5;stroke-linejoin:miter;stroke-miterlimit:10;"/><text x="1157.84" y="1610.311" fill="#000" font-size="11" textLength="200.261">Signature, result, and window valid?</text><text x="1126.623" y="1603.909" fill="#000" font-size="11" textLength="19.218">Yes</text><text x="1370.102" y="1603.909" fill="#000" font-size="11" textLength="14.958">No</text><rect x="1040.61" y="1628.503" width="190.461" height="33.969" fill="#F7F7F7" style="stroke:#454545;stroke-width:0.5;" rx="12.5" ry="12.5"/><text x="1050.61" y="1649.642" fill="#000" font-size="12" textLength="170.461">Apply callback idempotently</text><rect x="1064.589" y="1682.472" width="142.502" height="33.969" fill="#F7F7F7" style="stroke:#454545;stroke-width:0.5;" rx="12.5" ry="12.5"/><text x="1074.589" y="1703.61" fill="#000" font-size="12" textLength="122.502">Set Payment = PAID</text><rect x="1049.774" y="1736.44" width="172.133" height="33.969" fill="#F7F7F7" style="stroke:#454545;stroke-width:0.5;" rx="12.5" ry="12.5"/><text x="1059.774" y="1757.579" fill="#000" font-size="12" textLength="152.133">Set Booking = Confirmed</text><rect x="1256.315" y="1628.503" width="247.572" height="33.969" fill="#F7F7F7" style="stroke:#454545;stroke-width:0.5;" rx="12.5" ry="12.5"/><text x="1266.315" y="1649.642" fill="#000" font-size="12" textLength="227.572">Keep unsuccessful payment non-PAID</text><polygon points="1257.971,1776.409,1269.971,1788.409,1257.971,1800.409,1245.971,1788.409,1257.971,1776.409" fill="#FFF2CC" style="stroke:#454545;stroke-width:0.5;stroke-linejoin:miter;stroke-miterlimit:10;"/><polygon points="923.461,1877.214,1101.997,1877.214,1113.997,1889.214,1101.997,1901.214,923.461,1901.214,911.461,1889.214,923.461,1877.214" fill="#FFF2CC" style="stroke:#454545;stroke-width:0.5;stroke-linejoin:miter;stroke-miterlimit:10;"/><text x="923.461" y="1893.022" fill="#000" font-size="11" textLength="178.535">State and new availability valid?</text><text x="892.244" y="1886.62" fill="#000" font-size="11" textLength="19.218">Yes</text><text x="1113.997" y="1886.62" fill="#000" font-size="11" textLength="14.958">No</text><rect x="791.351" y="1911.214" width="220.221" height="47.938" fill="#F7F7F7" style="stroke:#454545;stroke-width:0.5;" rx="12.5" ry="12.5"/><text x="801.351" y="1932.353" fill="#000" font-size="12" textLength="200.221">Update Pending booking or apply</text><text x="801.351" y="1946.321" fill="#000" font-size="12" textLength="105.861">eligible extension</text><rect x="784.947" y="2041.522" width="233.029" height="33.969" fill="#F7F7F7" style="stroke:#454545;stroke-width:0.5;" rx="12.5" ry="12.5"/><text x="794.947" y="2062.661" fill="#000" font-size="12" textLength="213.029">Create additional Pending payment</text><polygon points="835.349,1993.12,967.574,1993.12,979.574,2005.12,967.574,2017.12,835.349,2017.12,823.349,2005.12,835.349,1993.12" fill="#FFF2CC" style="stroke:#454545;stroke-width:0.5;stroke-linejoin:miter;stroke-miterlimit:10;"/><text x="905.461" y="2027.331" fill="#000" font-size="11" textLength="19.218">Yes</text><text x="835.349" y="2008.928" fill="#000" font-size="11" textLength="132.226">Additional fee required?</text><polygon points="901.461,2099.894,913.461,2111.894,901.461,2123.894,889.461,2111.894,901.461,2099.894" fill="#FFF2CC" style="stroke:#454545;stroke-width:0.5;stroke-linejoin:miter;stroke-miterlimit:10;"/><rect x="1072.079" y="1911.214" width="103.836" height="33.969" fill="#FFCDD2" style="stroke:#454545;stroke-width:0.5;" rx="12.5" ry="12.5"/><text x="1082.079" y="1932.353" fill="#000" font-size="12" textLength="83.836">Reject update</text><ellipse cx="1123.997" cy="1990.151" rx="11" ry="11" fill="none" style="stroke:#222;stroke-width:1;"/><ellipse cx="1123.997" cy="1990.151" rx="6" ry="6" fill="#222" style="stroke:#222;stroke-width:1;"/><rect x="1400.62" y="1912.812" width="134.1" height="33.969" fill="#FFCDD2" style="stroke:#454545;stroke-width:0.5;" rx="12.5" ry="12.5"/><text x="1410.62" y="1933.95" fill="#000" font-size="12" textLength="114.1">Reject cancellation</text><ellipse cx="1467.67" cy="1991.749" rx="11" ry="11" fill="none" style="stroke:#222;stroke-width:1;"/><ellipse cx="1467.67" cy="1991.749" rx="6" ry="6" fill="#222" style="stroke:#222;stroke-width:1;"/><polygon points="1380.854,1864.409,1554.485,1864.409,1566.485,1876.409,1554.485,1888.409,1380.854,1888.409,1368.854,1876.409,1380.854,1864.409" fill="#FFF2CC" style="stroke:#454545;stroke-width:0.5;stroke-linejoin:miter;stroke-miterlimit:10;"/><text x="1471.67" y="1898.62" fill="#000" font-size="11" textLength="14.958">No</text><text x="1380.854" y="1880.217" fill="#000" font-size="11" textLength="173.631">Booking Pending or Confirmed?</text><rect x="1383.364" y="2068.151" width="168.611" height="33.969" fill="#F7F7F7" style="stroke:#454545;stroke-width:0.5;" rx="12.5" ry="12.5"/><text x="1393.364" y="2089.29" fill="#000" font-size="12" textLength="148.611">Set Booking = Cancelled</text><polygon points="1350.389,2137.12,1584.95,2137.12,1596.95,2149.925,1584.95,2162.729,1350.389,2162.729,1338.389,2149.925,1350.389,2137.12" fill="#FFF2CC" style="stroke:#454545;stroke-width:0.5;stroke-linejoin:miter;stroke-miterlimit:10;"/><text x="1350.389" y="2147.331" fill="#000" font-size="11" textLength="161.912">Confirmed, deposit PAID, and</text><text x="1350.389" y="2160.135" fill="#000" font-size="11" textLength="234.561">cancelled >= 60 minutes before check-in?</text><text x="1319.171" y="2147.331" fill="#000" font-size="11" textLength="19.218">Yes</text><text x="1596.95" y="2147.331" fill="#000" font-size="11" textLength="14.958">No</text><rect x="1215.915" y="2172.729" width="224.949" height="33.969" fill="#F7F7F7" style="stroke:#454545;stroke-width:0.5;" rx="12.5" ry="12.5"/><text x="1225.915" y="2193.868" fill="#000" font-size="12" textLength="204.949">Set Payment = REFUND_PENDING</text><rect x="1522.905" y="2172.729" width="168.09" height="33.969" fill="#F7F7F7" style="stroke:#454545;stroke-width:0.5;" rx="12.5" ry="12.5"/><text x="1532.905" y="2193.868" fill="#000" font-size="12" textLength="148.09">Do not open refund path</text><polygon points="1467.67,2212.698,1479.67,2224.698,1467.67,2236.698,1455.67,2224.698,1467.67,2212.698" fill="#FFF2CC" style="stroke:#454545;stroke-width:0.5;stroke-linejoin:miter;stroke-miterlimit:10;"/><line x1="778.947" y1="55.042" x2="778.947" y2="2536.315" style="stroke:#000;stroke-width:1.5;"/><rect x="1711.995" y="1160.847" width="234.764" height="33.969" fill="#F7F7F7" style="stroke:#454545;stroke-width:0.5;" rx="12.5" ry="12.5"/><text x="1721.995" y="1181.985" fill="#000" font-size="12" textLength="214.764">Estimate complete planned interval</text><line x1="1705.995" y1="55.042" x2="1705.995" y2="2536.315" style="stroke:#000;stroke-width:1.5;"/><rect x="1975.503" y="1432.597" width="189.084" height="33.969" fill="#F7F7F7" style="stroke:#454545;stroke-width:0.5;" rx="12.5" ry="12.5"/><text x="1985.503" y="1453.735" fill="#000" font-size="12" textLength="169.084">Return signed payment URL</text><rect x="1956.759" y="1540.534" width="226.572" height="33.969" fill="#F7F7F7" style="stroke:#454545;stroke-width:0.5;" rx="12.5" ry="12.5"/><text x="1966.759" y="1561.673" fill="#000" font-size="12" textLength="206.572">Send signed IPN or browser return</text><line x1="1950.759" y1="55.042" x2="1950.759" y2="2536.315" style="stroke:#000;stroke-width:1.5;"/><rect x="2356.839" y="2276.698" width="209.275" height="33.969" fill="#F7F7F7" style="stroke:#454545;stroke-width:0.5;" rx="12.5" ry="12.5"/><text x="2366.839" y="2297.837" fill="#000" font-size="12" textLength="189.275">Approximately every 5 minutes</text><polygon points="2214.331,2330.667,2395.117,2330.667,2407.117,2342.667,2395.117,2354.667,2214.331,2354.667,2202.331,2342.667,2214.331,2330.667" fill="#FFF2CC" style="stroke:#454545;stroke-width:0.5;stroke-linejoin:miter;stroke-miterlimit:10;"/><text x="2308.724" y="2364.877" fill="#000" font-size="11" textLength="19.218">Yes</text><text x="2214.331" y="2346.475" fill="#000" font-size="11" textLength="180.786">Pending past payment deadline?</text><rect x="2227.127" y="2386.377" width="155.193" height="33.969" fill="#F7F7F7" style="stroke:#454545;stroke-width:0.5;" rx="12.5" ry="12.5"/><text x="2237.127" y="2407.516" fill="#000" font-size="12" textLength="135.193">Set Booking = Expired</text><polygon points="2439.117,2330.667,2658.623,2330.667,2670.623,2342.667,2658.623,2354.667,2439.117,2354.667,2427.117,2342.667,2439.117,2330.667" fill="#FFF2CC" style="stroke:#454545;stroke-width:0.5;stroke-linejoin:miter;stroke-miterlimit:10;"/><text x="2552.87" y="2364.877" fill="#000" font-size="11" textLength="19.218">Yes</text><text x="2439.117" y="2346.475" fill="#000" font-size="11" textLength="219.506">Confirmed past grace without check-in?</text><rect x="2469.708" y="2386.377" width="158.322" height="33.969" fill="#F7F7F7" style="stroke:#454545;stroke-width:0.5;" rx="12.5" ry="12.5"/><text x="2479.708" y="2407.516" fill="#000" font-size="12" textLength="138.322">Set Booking = NoShow</text><line x1="2187.331" y1="55.042" x2="2187.331" y2="2536.315" style="stroke:#000;stroke-width:1.5;"/><line x1="2703.623" y1="55.042" x2="2703.623" y2="2536.315" style="stroke:#000;stroke-width:1.5;"/><line x1="326.749" y1="100.995" x2="326.749" y2="120.995" style="stroke:#181818;stroke-width:1;"/><polygon points="322.749,110.995,326.749,120.995,330.749,110.995,326.749,114.995" fill="#181818" style="stroke:#181818;stroke-width:1;stroke-linejoin:miter;stroke-miterlimit:10;"/><line x1="128.013" y1="1832.409" x2="485.813" y2="1832.409" style="stroke:#181818;stroke-width:1;"/><polygon points="475.813,1828.409,485.813,1832.409,475.813,1836.409,479.813,1832.409" fill="#181818" style="stroke:#181818;stroke-width:1;stroke-linejoin:miter;stroke-miterlimit:10;"/><line x1="1257.971" y1="1800.409" x2="1257.971" y2="1805.409" style="stroke:#181818;stroke-width:1;"/><line x1="1257.971" y1="1805.409" x2="81.507" y2="1805.409" style="stroke:#181818;stroke-width:1;"/><line x1="81.507" y1="1805.409" x2="81.507" y2="1820.409" style="stroke:#181818;stroke-width:1;"/><polygon points="77.507,1810.409,81.507,1820.409,85.507,1810.409,81.507,1814.409" fill="#181818" style="stroke:#181818;stroke-width:1;stroke-linejoin:miter;stroke-miterlimit:10;"/><line x1="547.078" y1="1832.409" x2="586.064" y2="1832.409" style="stroke:#181818;stroke-width:1;"/><line x1="586.064" y1="1832.409" x2="586.064" y2="2256.698" style="stroke:#181818;stroke-width:1;"/><polygon points="582.064,2246.698,586.064,2256.698,590.064,2246.698,586.064,2250.698" fill="#181818" style="stroke:#181818;stroke-width:1;stroke-linejoin:miter;stroke-miterlimit:10;"/><line x1="326.749" y1="2256.698" x2="601.064" y2="2256.698" style="stroke:#181818;stroke-width:1;"/><line x1="326.749" y1="2494.315" x2="326.749" y2="2514.315" style="stroke:#181818;stroke-width:1;"/><polygon points="322.749,2504.315,326.749,2514.315,330.749,2504.315,326.749,2508.315" fill="#181818" style="stroke:#181818;stroke-width:1;stroke-linejoin:miter;stroke-miterlimit:10;"/><line x1="1257.971" y1="380.851" x2="1257.971" y2="408.964" style="stroke:#181818;stroke-width:1;"/><polygon points="1253.971,398.964,1257.971,408.964,1261.971,398.964,1257.971,402.964" fill="#181818" style="stroke:#181818;stroke-width:1;stroke-linejoin:miter;stroke-miterlimit:10;"/><line x1="1257.971" y1="322.479" x2="1257.971" y2="346.882" style="stroke:#181818;stroke-width:1;"/><polygon points="1253.971,336.882,1257.971,346.882,1261.971,336.882,1257.971,340.882" fill="#181818" style="stroke:#181818;stroke-width:1;stroke-linejoin:miter;stroke-miterlimit:10;"/><line x1="1341.554" y1="309.675" x2="1369.535" y2="309.675" style="stroke:#181818;stroke-width:1;"/><polygon points="1365.535,378.964,1369.535,388.964,1373.535,378.964,1369.535,382.964" fill="#181818" style="stroke:#181818;stroke-width:1;stroke-linejoin:miter;stroke-miterlimit:10;"/><line x1="1369.535" y1="309.675" x2="1369.535" y2="452.964" style="stroke:#181818;stroke-width:1;"/><line x1="1369.535" y1="452.964" x2="1257.971" y2="452.964" style="stroke:#181818;stroke-width:1;"/><line x1="1257.971" y1="452.964" x2="1257.971" y2="472.964" style="stroke:#181818;stroke-width:1;"/><polygon points="1253.971,462.964,1257.971,472.964,1261.971,462.964,1257.971,466.964" fill="#181818" style="stroke:#181818;stroke-width:1;stroke-linejoin:miter;stroke-miterlimit:10;"/><line x1="1257.971" y1="276.87" x2="1257.971" y2="296.87" style="stroke:#181818;stroke-width:1;"/><polygon points="1253.971,286.87,1257.971,296.87,1261.971,286.87,1257.971,290.87" fill="#181818" style="stroke:#181818;stroke-width:1;stroke-linejoin:miter;stroke-miterlimit:10;"/><line x1="1257.971" y1="556.944" x2="1257.971" y2="585.058" style="stroke:#181818;stroke-width:1;"/><polygon points="1253.971,575.058,1257.971,585.058,1261.971,575.058,1257.971,579.058" fill="#181818" style="stroke:#181818;stroke-width:1;stroke-linejoin:miter;stroke-miterlimit:10;"/><line x1="1257.971" y1="498.573" x2="1257.971" y2="522.976" style="stroke:#181818;stroke-width:1;"/><polygon points="1253.971,512.976,1257.971,522.976,1261.971,512.976,1257.971,516.976" fill="#181818" style="stroke:#181818;stroke-width:1;stroke-linejoin:miter;stroke-miterlimit:10;"/><line x1="1363.885" y1="485.769" x2="1375.885" y2="485.769" style="stroke:#181818;stroke-width:1;"/><polygon points="1371.885,555.058,1375.885,565.058,1379.885,555.058,1375.885,559.058" fill="#181818" style="stroke:#181818;stroke-width:1;stroke-linejoin:miter;stroke-miterlimit:10;"/><line x1="1375.885" y1="485.769" x2="1375.885" y2="629.058" style="stroke:#181818;stroke-width:1;"/><line x1="1375.885" y1="629.058" x2="1257.971" y2="629.058" style="stroke:#181818;stroke-width:1;"/><line x1="1257.971" y1="629.058" x2="1257.971" y2="649.058" style="stroke:#181818;stroke-width:1;"/><polygon points="1253.971,639.058,1257.971,649.058,1261.971,639.058,1257.971,643.058" fill="#181818" style="stroke:#181818;stroke-width:1;stroke-linejoin:miter;stroke-miterlimit:10;"/><line x1="1257.971" y1="781.44" x2="1257.971" y2="809.554" style="stroke:#181818;stroke-width:1;"/><polygon points="1253.971,799.554,1257.971,809.554,1261.971,799.554,1257.971,803.554" fill="#181818" style="stroke:#181818;stroke-width:1;stroke-linejoin:miter;stroke-miterlimit:10;"/><line x1="1257.971" y1="723.069" x2="1257.971" y2="747.472" style="stroke:#181818;stroke-width:1;"/><polygon points="1253.971,737.472,1257.971,747.472,1261.971,737.472,1257.971,741.472" fill="#181818" style="stroke:#181818;stroke-width:1;stroke-linejoin:miter;stroke-miterlimit:10;"/><line x1="1360.576" y1="710.265" x2="1372.576" y2="710.265" style="stroke:#181818;stroke-width:1;"/><polygon points="1368.576,779.554,1372.576,789.554,1376.576,779.554,1372.576,783.554" fill="#181818" style="stroke:#181818;stroke-width:1;stroke-linejoin:miter;stroke-miterlimit:10;"/><line x1="1372.576" y1="710.265" x2="1372.576" y2="853.554" style="stroke:#181818;stroke-width:1;"/><line x1="1372.576" y1="853.554" x2="1257.971" y2="853.554" style="stroke:#181818;stroke-width:1;"/><line x1="1257.971" y1="853.554" x2="1257.971" y2="873.554" style="stroke:#181818;stroke-width:1;"/><polygon points="1253.971,863.554,1257.971,873.554,1261.971,863.554,1257.971,867.554" fill="#181818" style="stroke:#181818;stroke-width:1;stroke-linejoin:miter;stroke-miterlimit:10;"/><line x1="1257.971" y1="673.058" x2="1257.971" y2="697.46" style="stroke:#181818;stroke-width:1;"/><polygon points="1253.971,687.46,1257.971,697.46,1261.971,687.46,1257.971,691.46" fill="#181818" style="stroke:#181818;stroke-width:1;stroke-linejoin:miter;stroke-miterlimit:10;"/><line x1="1308.396" y1="661.058" x2="1382.576" y2="661.058" style="stroke:#181818;stroke-width:1;"/><polygon points="1378.576,773.151,1382.576,783.151,1386.576,773.151,1382.576,777.151" fill="#181818" style="stroke:#181818;stroke-width:1;stroke-linejoin:miter;stroke-miterlimit:10;"/><line x1="1382.576" y1="661.058" x2="1382.576" y2="885.554" style="stroke:#181818;stroke-width:1;"/><line x1="1382.576" y1="885.554" x2="1269.971" y2="885.554" style="stroke:#181818;stroke-width:1;"/><polygon points="1279.971,881.554,1269.971,885.554,1279.971,889.554,1275.971,885.554" fill="#181818" style="stroke:#181818;stroke-width:1;stroke-linejoin:miter;stroke-miterlimit:10;"/><line x1="1257.971" y1="897.554" x2="1257.971" y2="917.554" style="stroke:#181818;stroke-width:1;"/><polygon points="1253.971,907.554,1257.971,917.554,1261.971,907.554,1257.971,911.554" fill="#181818" style="stroke:#181818;stroke-width:1;stroke-linejoin:miter;stroke-miterlimit:10;"/><line x1="1257.971" y1="1067.862" x2="1257.971" y2="1096.847" style="stroke:#181818;stroke-width:1;"/><polygon points="1253.971,1086.847,1257.971,1096.847,1261.971,1086.847,1257.971,1090.847" fill="#181818" style="stroke:#181818;stroke-width:1;stroke-linejoin:miter;stroke-miterlimit:10;"/><line x1="1257.971" y1="1009.491" x2="1257.971" y2="1033.894" style="stroke:#181818;stroke-width:1;"/><polygon points="1253.971,1023.894,1257.971,1033.894,1261.971,1023.894,1257.971,1027.894" fill="#181818" style="stroke:#181818;stroke-width:1;stroke-linejoin:miter;stroke-miterlimit:10;"/><line x1="1347.959" y1="997.491" x2="1829.377" y2="997.491" style="stroke:#181818;stroke-width:1;"/><polygon points="1825.377,1077.862,1829.377,1087.862,1833.377,1077.862,1829.377,1081.862" fill="#181818" style="stroke:#181818;stroke-width:1;stroke-linejoin:miter;stroke-miterlimit:10;"/><line x1="1829.377" y1="997.491" x2="1829.377" y2="1160.847" style="stroke:#181818;stroke-width:1;"/><polygon points="1825.377,1150.847,1829.377,1160.847,1833.377,1150.847,1829.377,1154.847" fill="#181818" style="stroke:#181818;stroke-width:1;stroke-linejoin:miter;stroke-miterlimit:10;"/><line x1="1257.971" y1="965.491" x2="1257.971" y2="985.491" style="stroke:#181818;stroke-width:1;"/><polygon points="1253.971,975.491,1257.971,985.491,1261.971,975.491,1257.971,979.491" fill="#181818" style="stroke:#181818;stroke-width:1;stroke-linejoin:miter;stroke-miterlimit:10;"/><line x1="1257.971" y1="1290.69" x2="1257.971" y2="1310.69" style="stroke:#181818;stroke-width:1;"/><polygon points="1253.971,1300.69,1257.971,1310.69,1261.971,1300.69,1257.971,1304.69" fill="#181818" style="stroke:#181818;stroke-width:1;stroke-linejoin:miter;stroke-miterlimit:10;"/><line x1="1257.971" y1="1344.659" x2="1257.971" y2="1364.659" style="stroke:#181818;stroke-width:1;"/><polygon points="1253.971,1354.659,1257.971,1364.659,1261.971,1354.659,1257.971,1358.659" fill="#181818" style="stroke:#181818;stroke-width:1;stroke-linejoin:miter;stroke-miterlimit:10;"/><line x1="1135.84" y1="1662.472" x2="1135.84" y2="1682.472" style="stroke:#181818;stroke-width:1;"/><polygon points="1131.84,1672.472,1135.84,1682.472,1139.84,1672.472,1135.84,1676.472" fill="#181818" style="stroke:#181818;stroke-width:1;stroke-linejoin:miter;stroke-miterlimit:10;"/><line x1="1135.84" y1="1716.44" x2="1135.84" y2="1736.44" style="stroke:#181818;stroke-width:1;"/><polygon points="1131.84,1726.44,1135.84,1736.44,1139.84,1726.44,1135.84,1730.44" fill="#181818" style="stroke:#181818;stroke-width:1;stroke-linejoin:miter;stroke-miterlimit:10;"/><line x1="1145.84" y1="1606.503" x2="1135.84" y2="1606.503" style="stroke:#181818;stroke-width:1;"/><line x1="1135.84" y1="1606.503" x2="1135.84" y2="1628.503" style="stroke:#181818;stroke-width:1;"/><polygon points="1131.84,1618.503,1135.84,1628.503,1139.84,1618.503,1135.84,1622.503" fill="#181818" style="stroke:#181818;stroke-width:1;stroke-linejoin:miter;stroke-miterlimit:10;"/><line x1="1370.102" y1="1606.503" x2="1380.102" y2="1606.503" style="stroke:#181818;stroke-width:1;"/><line x1="1380.102" y1="1606.503" x2="1380.102" y2="1628.503" style="stroke:#181818;stroke-width:1;"/><polygon points="1376.102,1618.503,1380.102,1628.503,1384.102,1618.503,1380.102,1622.503" fill="#181818" style="stroke:#181818;stroke-width:1;stroke-linejoin:miter;stroke-miterlimit:10;"/><line x1="1135.84" y1="1770.409" x2="1135.84" y2="1788.409" style="stroke:#181818;stroke-width:1;"/><line x1="1135.84" y1="1788.409" x2="1245.971" y2="1788.409" style="stroke:#181818;stroke-width:1;"/><polygon points="1235.971,1784.409,1245.971,1788.409,1235.971,1792.409,1239.971,1788.409" fill="#181818" style="stroke:#181818;stroke-width:1;stroke-linejoin:miter;stroke-miterlimit:10;"/><line x1="1380.102" y1="1662.472" x2="1380.102" y2="1788.409" style="stroke:#181818;stroke-width:1;"/><line x1="1380.102" y1="1788.409" x2="1269.971" y2="1788.409" style="stroke:#181818;stroke-width:1;"/><polygon points="1279.971,1784.409,1269.971,1788.409,1279.971,1792.409,1275.971,1788.409" fill="#181818" style="stroke:#181818;stroke-width:1;stroke-linejoin:miter;stroke-miterlimit:10;"/><line x1="901.461" y1="2017.12" x2="901.461" y2="2041.522" style="stroke:#181818;stroke-width:1;"/><polygon points="897.461,2031.522,901.461,2041.522,905.461,2031.522,901.461,2035.522" fill="#181818" style="stroke:#181818;stroke-width:1;stroke-linejoin:miter;stroke-miterlimit:10;"/><line x1="979.574" y1="2005.12" x2="1027.976" y2="2005.12" style="stroke:#181818;stroke-width:1;"/><polygon points="1023.976,2048.507,1027.976,2058.507,1031.976,2048.507,1027.976,2052.507" fill="#181818" style="stroke:#181818;stroke-width:1;stroke-linejoin:miter;stroke-miterlimit:10;"/><line x1="1027.976" y1="2005.12" x2="1027.976" y2="2111.894" style="stroke:#181818;stroke-width:1;"/><line x1="1027.976" y1="2111.894" x2="913.461" y2="2111.894" style="stroke:#181818;stroke-width:1;"/><polygon points="923.461,2107.894,913.461,2111.894,923.461,2115.894,919.461,2111.894" fill="#181818" style="stroke:#181818;stroke-width:1;stroke-linejoin:miter;stroke-miterlimit:10;"/><line x1="901.461" y1="2075.491" x2="901.461" y2="2099.894" style="stroke:#181818;stroke-width:1;"/><polygon points="897.461,2089.894,901.461,2099.894,905.461,2089.894,901.461,2093.894" fill="#181818" style="stroke:#181818;stroke-width:1;stroke-linejoin:miter;stroke-miterlimit:10;"/><line x1="901.461" y1="1959.151" x2="901.461" y2="1993.12" style="stroke:#181818;stroke-width:1;"/><polygon points="897.461,1983.12,901.461,1993.12,905.461,1983.12,901.461,1987.12" fill="#181818" style="stroke:#181818;stroke-width:1;stroke-linejoin:miter;stroke-miterlimit:10;"/><line x1="1123.997" y1="1945.183" x2="1123.997" y2="1979.151" style="stroke:#181818;stroke-width:1;"/><polygon points="1119.997,1969.151,1123.997,1979.151,1127.997,1969.151,1123.997,1973.151" fill="#181818" style="stroke:#181818;stroke-width:1;stroke-linejoin:miter;stroke-miterlimit:10;"/><line x1="911.461" y1="1889.214" x2="901.461" y2="1889.214" style="stroke:#181818;stroke-width:1;"/><line x1="901.461" y1="1889.214" x2="901.461" y2="1911.214" style="stroke:#181818;stroke-width:1;"/><polygon points="897.461,1901.214,901.461,1911.214,905.461,1901.214,901.461,1905.214" fill="#181818" style="stroke:#181818;stroke-width:1;stroke-linejoin:miter;stroke-miterlimit:10;"/><line x1="1113.997" y1="1889.214" x2="1123.997" y2="1889.214" style="stroke:#181818;stroke-width:1;"/><line x1="1123.997" y1="1889.214" x2="1123.997" y2="1911.214" style="stroke:#181818;stroke-width:1;"/><polygon points="1119.997,1901.214,1123.997,1911.214,1127.997,1901.214,1123.997,1905.214" fill="#181818" style="stroke:#181818;stroke-width:1;stroke-linejoin:miter;stroke-miterlimit:10;"/><line x1="901.461" y1="2123.894" x2="901.461" y2="2129.894" style="stroke:#181818;stroke-width:1;"/><line x1="901.461" y1="2129.894" x2="1012.729" y2="2129.894" style="stroke:#181818;stroke-width:1;"/><line x1="1012.729" y1="2129.894" x2="1012.729" y2="2256.698" style="stroke:#181818;stroke-width:1;"/><polygon points="1008.729,2246.698,1012.729,2256.698,1016.729,2246.698,1012.729,2250.698" fill="#181818" style="stroke:#181818;stroke-width:1;stroke-linejoin:miter;stroke-miterlimit:10;"/><line x1="1467.67" y1="1946.78" x2="1467.67" y2="1980.749" style="stroke:#181818;stroke-width:1;"/><polygon points="1463.67,1970.749,1467.67,1980.749,1471.67,1970.749,1467.67,1974.749" fill="#181818" style="stroke:#181818;stroke-width:1;stroke-linejoin:miter;stroke-miterlimit:10;"/><line x1="1467.67" y1="1888.409" x2="1467.67" y2="1912.812" style="stroke:#181818;stroke-width:1;"/><polygon points="1463.67,1902.812,1467.67,1912.812,1471.67,1902.812,1467.67,1906.812" fill="#181818" style="stroke:#181818;stroke-width:1;stroke-linejoin:miter;stroke-miterlimit:10;"/><line x1="1566.485" y1="1876.409" x2="1578.485" y2="1876.409" style="stroke:#181818;stroke-width:1;"/><polygon points="1574.485,1945.296,1578.485,1955.296,1582.485,1945.296,1578.485,1949.296" fill="#181818" style="stroke:#181818;stroke-width:1;stroke-linejoin:miter;stroke-miterlimit:10;"/><line x1="1578.485" y1="1876.409" x2="1578.485" y2="2033.151" style="stroke:#181818;stroke-width:1;"/><line x1="1578.485" y1="2033.151" x2="1467.67" y2="2033.151" style="stroke:#181818;stroke-width:1;"/><line x1="1467.67" y1="2033.151" x2="1467.67" y2="2068.151" style="stroke:#181818;stroke-width:1;"/><polygon points="1463.67,2058.151,1467.67,2068.151,1471.67,2058.151,1467.67,2062.151" fill="#181818" style="stroke:#181818;stroke-width:1;stroke-linejoin:miter;stroke-miterlimit:10;"/><line x1="1338.389" y1="2149.925" x2="1328.389" y2="2149.925" style="stroke:#181818;stroke-width:1;"/><line x1="1328.389" y1="2149.925" x2="1328.389" y2="2172.729" style="stroke:#181818;stroke-width:1;"/><polygon points="1324.389,2162.729,1328.389,2172.729,1332.389,2162.729,1328.389,2166.729" fill="#181818" style="stroke:#181818;stroke-width:1;stroke-linejoin:miter;stroke-miterlimit:10;"/><line x1="1596.95" y1="2149.925" x2="1606.95" y2="2149.925" style="stroke:#181818;stroke-width:1;"/><line x1="1606.95" y1="2149.925" x2="1606.95" y2="2172.729" style="stroke:#181818;stroke-width:1;"/><polygon points="1602.95,2162.729,1606.95,2172.729,1610.95,2162.729,1606.95,2166.729" fill="#181818" style="stroke:#181818;stroke-width:1;stroke-linejoin:miter;stroke-miterlimit:10;"/><line x1="1328.389" y1="2206.698" x2="1328.389" y2="2224.698" style="stroke:#181818;stroke-width:1;"/><line x1="1328.389" y1="2224.698" x2="1455.67" y2="2224.698" style="stroke:#181818;stroke-width:1;"/><polygon points="1445.67,2220.698,1455.67,2224.698,1445.67,2228.698,1449.67,2224.698" fill="#181818" style="stroke:#181818;stroke-width:1;stroke-linejoin:miter;stroke-miterlimit:10;"/><line x1="1606.95" y1="2206.698" x2="1606.95" y2="2224.698" style="stroke:#181818;stroke-width:1;"/><line x1="1606.95" y1="2224.698" x2="1479.67" y2="2224.698" style="stroke:#181818;stroke-width:1;"/><polygon points="1489.67,2220.698,1479.67,2224.698,1489.67,2228.698,1485.67,2224.698" fill="#181818" style="stroke:#181818;stroke-width:1;stroke-linejoin:miter;stroke-miterlimit:10;"/><line x1="1467.67" y1="2102.12" x2="1467.67" y2="2137.12" style="stroke:#181818;stroke-width:1;"/><polygon points="1463.67,2127.12,1467.67,2137.12,1471.67,2127.12,1467.67,2131.12" fill="#181818" style="stroke:#181818;stroke-width:1;stroke-linejoin:miter;stroke-miterlimit:10;"/><line x1="1467.67" y1="2236.698" x2="1467.67" y2="2256.698" style="stroke:#181818;stroke-width:1;"/><polygon points="1463.67,2246.698,1467.67,2256.698,1471.67,2246.698,1467.67,2250.698" fill="#181818" style="stroke:#181818;stroke-width:1;stroke-linejoin:miter;stroke-miterlimit:10;"/><line x1="764.947" y1="2256.698" x2="1467.67" y2="2256.698" style="stroke:#181818;stroke-width:1;"/><line x1="2304.724" y1="2354.667" x2="2304.724" y2="2386.377" style="stroke:#181818;stroke-width:1;"/><polygon points="2300.724,2376.377,2304.724,2386.377,2308.724,2376.377,2304.724,2380.377" fill="#181818" style="stroke:#181818;stroke-width:1;stroke-linejoin:miter;stroke-miterlimit:10;"/><line x1="2304.724" y1="2420.346" x2="2304.724" y2="2440.346" style="stroke:#181818;stroke-width:1;"/><polygon points="2300.724,2430.346,2304.724,2440.346,2308.724,2430.346,2304.724,2434.346" fill="#181818" style="stroke:#181818;stroke-width:1;stroke-linejoin:miter;stroke-miterlimit:10;"/><line x1="2548.87" y1="2354.667" x2="2548.87" y2="2386.377" style="stroke:#181818;stroke-width:1;"/><polygon points="2544.87,2376.377,2548.87,2386.377,2552.87,2376.377,2548.87,2380.377" fill="#181818" style="stroke:#181818;stroke-width:1;stroke-linejoin:miter;stroke-miterlimit:10;"/><line x1="2548.87" y1="2420.346" x2="2548.87" y2="2440.346" style="stroke:#181818;stroke-width:1;"/><polygon points="2544.87,2430.346,2548.87,2440.346,2552.87,2430.346,2548.87,2434.346" fill="#181818" style="stroke:#181818;stroke-width:1;stroke-linejoin:miter;stroke-miterlimit:10;"/><line x1="2407.117" y1="2342.667" x2="2427.117" y2="2342.667" style="stroke:#181818;stroke-width:1;"/><polygon points="2417.117,2338.667,2427.117,2342.667,2417.117,2346.667,2421.117,2342.667" fill="#181818" style="stroke:#181818;stroke-width:1;stroke-linejoin:miter;stroke-miterlimit:10;"/><line x1="2461.477" y1="2310.667" x2="2461.477" y2="2315.667" style="stroke:#181818;stroke-width:1;"/><line x1="2461.477" y1="2315.667" x2="2304.724" y2="2315.667" style="stroke:#181818;stroke-width:1;"/><line x1="2304.724" y1="2315.667" x2="2304.724" y2="2330.667" style="stroke:#181818;stroke-width:1;"/><polygon points="2300.724,2320.667,2304.724,2330.667,2308.724,2320.667,2304.724,2324.667" fill="#181818" style="stroke:#181818;stroke-width:1;stroke-linejoin:miter;stroke-miterlimit:10;"/><line x1="2670.623" y1="2342.667" x2="2684.623" y2="2342.667" style="stroke:#181818;stroke-width:1;"/><line x1="2684.623" y1="2342.667" x2="2684.623" y2="2440.346" style="stroke:#181818;stroke-width:1;"/><polygon points="2680.623,2430.346,2684.623,2440.346,2688.623,2430.346,2684.623,2434.346" fill="#181818" style="stroke:#181818;stroke-width:1;stroke-linejoin:miter;stroke-miterlimit:10;"/><line x1="2304.724" y1="2440.346" x2="2684.623" y2="2440.346" style="stroke:#181818;stroke-width:1;"/><line x1="326.749" y1="168.933" x2="326.749" y2="173.933" style="stroke:#181818;stroke-width:1;"/><line x1="326.749" y1="173.933" x2="693.005" y2="173.933" style="stroke:#181818;stroke-width:1;"/><line x1="693.005" y1="173.933" x2="693.005" y2="188.933" style="stroke:#181818;stroke-width:1;"/><polygon points="689.005,178.933,693.005,188.933,697.005,178.933,693.005,182.933" fill="#181818" style="stroke:#181818;stroke-width:1;stroke-linejoin:miter;stroke-miterlimit:10;"/><line x1="693.005" y1="222.901" x2="693.005" y2="227.901" style="stroke:#181818;stroke-width:1;"/><line x1="693.005" y1="227.901" x2="1257.971" y2="227.901" style="stroke:#181818;stroke-width:1;"/><line x1="1257.971" y1="227.901" x2="1257.971" y2="242.901" style="stroke:#181818;stroke-width:1;"/><polygon points="1253.971,232.901,1257.971,242.901,1261.971,232.901,1257.971,236.901" fill="#181818" style="stroke:#181818;stroke-width:1;stroke-linejoin:miter;stroke-miterlimit:10;"/><line x1="1829.377" y1="1194.815" x2="1829.377" y2="1199.815" style="stroke:#181818;stroke-width:1;"/><line x1="1829.377" y1="1199.815" x2="1257.971" y2="1199.815" style="stroke:#181818;stroke-width:1;"/><line x1="1257.971" y1="1199.815" x2="1257.971" y2="1214.815" style="stroke:#181818;stroke-width:1;"/><polygon points="1253.971,1204.815,1257.971,1214.815,1261.971,1204.815,1257.971,1208.815" fill="#181818" style="stroke:#181818;stroke-width:1;stroke-linejoin:miter;stroke-miterlimit:10;"/><line x1="1257.971" y1="1412.597" x2="1257.971" y2="1417.597" style="stroke:#181818;stroke-width:1;"/><line x1="1257.971" y1="1417.597" x2="2070.045" y2="1417.597" style="stroke:#181818;stroke-width:1;"/><line x1="2070.045" y1="1417.597" x2="2070.045" y2="1432.597" style="stroke:#181818;stroke-width:1;"/><polygon points="2066.045,1422.597,2070.045,1432.597,2074.045,1422.597,2070.045,1426.597" fill="#181818" style="stroke:#181818;stroke-width:1;stroke-linejoin:miter;stroke-miterlimit:10;"/><line x1="2070.045" y1="1466.565" x2="2070.045" y2="1471.565" style="stroke:#181818;stroke-width:1;"/><line x1="2070.045" y1="1471.565" x2="326.749" y2="1471.565" style="stroke:#181818;stroke-width:1;"/><line x1="326.749" y1="1471.565" x2="326.749" y2="1486.565" style="stroke:#181818;stroke-width:1;"/><polygon points="322.749,1476.565,326.749,1486.565,330.749,1476.565,326.749,1480.565" fill="#181818" style="stroke:#181818;stroke-width:1;stroke-linejoin:miter;stroke-miterlimit:10;"/><line x1="326.749" y1="1520.534" x2="326.749" y2="1525.534" style="stroke:#181818;stroke-width:1;"/><line x1="326.749" y1="1525.534" x2="2070.045" y2="1525.534" style="stroke:#181818;stroke-width:1;"/><line x1="2070.045" y1="1525.534" x2="2070.045" y2="1540.534" style="stroke:#181818;stroke-width:1;"/><polygon points="2066.045,1530.534,2070.045,1540.534,2074.045,1530.534,2070.045,1534.534" fill="#181818" style="stroke:#181818;stroke-width:1;stroke-linejoin:miter;stroke-miterlimit:10;"/><line x1="2070.045" y1="1574.503" x2="2070.045" y2="1579.503" style="stroke:#181818;stroke-width:1;"/><line x1="2070.045" y1="1579.503" x2="1257.971" y2="1579.503" style="stroke:#181818;stroke-width:1;"/><line x1="1257.971" y1="1579.503" x2="1257.971" y2="1594.503" style="stroke:#181818;stroke-width:1;"/><polygon points="1253.971,1584.503,1257.971,1594.503,1261.971,1584.503,1257.971,1588.503" fill="#181818" style="stroke:#181818;stroke-width:1;stroke-linejoin:miter;stroke-miterlimit:10;"/><line x1="81.507" y1="1844.409" x2="81.507" y2="1848.409" style="stroke:#181818;stroke-width:1;"/><line x1="81.507" y1="1848.409" x2="1012.729" y2="1848.409" style="stroke:#181818;stroke-width:1;"/><line x1="1012.729" y1="1848.409" x2="1012.729" y2="1877.214" style="stroke:#181818;stroke-width:1;"/><polygon points="1008.729,1867.214,1012.729,1877.214,1016.729,1867.214,1012.729,1871.214" fill="#181818" style="stroke:#181818;stroke-width:1;stroke-linejoin:miter;stroke-miterlimit:10;"/><line x1="516.445" y1="1844.409" x2="516.445" y2="1848.409" style="stroke:#181818;stroke-width:1;"/><line x1="516.445" y1="1848.409" x2="1467.67" y2="1848.409" style="stroke:#181818;stroke-width:1;"/><line x1="1467.67" y1="1848.409" x2="1467.67" y2="1864.409" style="stroke:#181818;stroke-width:1;"/><polygon points="1463.67,1854.409,1467.67,1864.409,1471.67,1854.409,1467.67,1858.409" fill="#181818" style="stroke:#181818;stroke-width:1;stroke-linejoin:miter;stroke-miterlimit:10;"/><line x1="326.749" y1="2256.698" x2="326.749" y2="2261.698" style="stroke:#181818;stroke-width:1;"/><line x1="326.749" y1="2261.698" x2="2461.477" y2="2261.698" style="stroke:#181818;stroke-width:1;"/><line x1="2461.477" y1="2261.698" x2="2461.477" y2="2276.698" style="stroke:#181818;stroke-width:1;"/><polygon points="2457.477,2266.698,2461.477,2276.698,2465.477,2266.698,2461.477,2270.698" fill="#181818" style="stroke:#181818;stroke-width:1;stroke-linejoin:miter;stroke-miterlimit:10;"/><line x1="2461.477" y1="2440.346" x2="2461.477" y2="2445.346" style="stroke:#181818;stroke-width:1;"/><line x1="2461.477" y1="2445.346" x2="326.749" y2="2445.346" style="stroke:#181818;stroke-width:1;"/><line x1="326.749" y1="2445.346" x2="326.749" y2="2460.346" style="stroke:#181818;stroke-width:1;"/><polygon points="322.749,2450.346,326.749,2460.346,330.749,2450.346,326.749,2454.346" fill="#181818" style="stroke:#181818;stroke-width:1;stroke-linejoin:miter;stroke-miterlimit:10;"/><text x="284.838" y="71.75" fill="#000" font-size="18" textLength="55.389">Driver</text><text x="659.754" y="71.75" fill="#000" font-size="18" textLength="64.503">Web UI</text><text x="1200.292" y="71.75" fill="#000" font-size="18" textLength="84.357">PBMS API</text><text x="1764.177" y="71.75" fill="#000" font-size="18" textLength="128.399">Pricing Engine</text><text x="2039.887" y="71.75" fill="#000" font-size="18" textLength="58.315">VNPay</text><text x="2333.926" y="71.75" fill="#000" font-size="18" textLength="223.102">Booking Cleanup Worker</text><?plantuml-src ZLPjRzis4FxkNt70lYIO2snTswrnay6HdS9eeXenqc10W8AcJZONcjH8Aeuxxx_lZhIa94xMmO0DaVVot7FFdHnKq0Ydrjugiu1pLQBSI8qzJy-LS685VYaAk-RRKcZ_y4R8eEvKsC3VFO1J8MyNpjQcoAos3duu-vK_V6DTWMvt-kOjV-XqfCJAccBVxUpiTPRr_kdrjYEdxj1jUpu85tf7CzGe0zYrmGBkSAa8Pn_cjT85eUlVc4eBmtT1hT3tGPW2R1MKDKA350wyjc7GsrxZ7AucMmfOprSgm7nNlCE_QlHiCJszcC5moZQvTIkXrJS4YXum1hsZWu8V68hpIrKDUgg4WtCKAJcS7CFFRs6bJ1tGtnXsAced60lVlO6bhPt__H324WqSvFQG63cwn3-vG6LY0cZAKIQWewC1VFX0z6IZqUkJ4xBtmLOzD8KgO_OXTmFfrDKor8weaNPLKSuvDJXiAYI6ZALoDL6kbGzOzC5OiZAbLZAyY0QrMiGWEwA-WsD6B8EFlSAY3Ve7UexA1bzIwq3vs1KcXpj3pyJKdL1QSBAr2ik8JIsec8BwN9Rede3iOFekAv7y5E8E9422cRwFCg5b7RkA53lH9qKb96kQODsORzQqPOEseaYD7cfjruIfDSPxYLZibzkHw0c-aWfDQBt-WyVjr94nvHoR1JM0T3Zs92o6oatL671V7ezqcpbawod7epXDwsxC22lhIVN7KDPQ0-xYqirKR5QCho0PQyfA9fAZi6X_VA1dClteX4IeJL2QhPOeRryfjlhbfzQgnV0vFv_auw-dm_pJ9Fy8LKf3znV2tOBLj1nQdBjBKa99oo0iIICD_MUa3AG6RB_aX9HAl4IIkG6l5ap3pXEkBiy7tUeuobgwchIj_mnPUSbxCis14iwTNNk2usBeHun6QPEnIBFbqDSwf2L3ov4sP5eBUmeOLfNUKC-rdjFSWIfmLTb0IFHcmFSp3D0mVmpJuMJK7ZTR-HWodWEtulAHTd0xevyGAsg3hwL4xwcXBGt6cbSfM59KHmaNakDzYElRcXRmXIMx3RD0b-J42HxKdsPt5febQ70DksbLccVWsV89urLLFAD4pYEOcfjklyIydiStUiP9Amgrs-0bObpHok4pQIZHJcwYStcYgXGsyK6_3uZi9hMEQB-tFyYLqMN2IDJF4jNqhe50vRPDV769oHXFY_-nmlObadnP8Wb1cwvF4vrcdWNHJvjDDkRyFdhNJYtCaGOFsv5-ff-F1NivFhlAHr-dutn4mptOvtLaWTywjg8e3ajwqLCxmdBmY4muk1Og7BPQRShAD0fJLt1jtMqSPvecP-_ZngAfGXBq1hh55BNTDTs7TXoQdROtdez97DzNBAz1r-66n1Hk4VSUlvfi7LuawKdGtCwMTjqCOhUQ6WlVpbI3DfqubFpFgOXAo7uRlylUan9O1Vy2?></g></svg>