<svg xmlns="http://www.w3.org/2000/svg" xmlns:xlink="http://www.w3.org/1999/xlink" version="1.1" data-diagram-type="ACTIVITY" style="width:2412px;height:2146px;background:#FFFFFF;" width="2412px" height="2146px" viewBox="0 0 2412 2146" zoomAndPan="magnify" preserveAspectRatio="none" contentStyleType="text/css"><?plantuml 1.2026.7beta8?><defs/><g font-family="sans-serif" lengthAdjust="spacing"><g class="title" data-source-line="1"><text x="1091.14" y="32.995" fill="#000" font-size="14" textLength="227.979" font-weight="700">Gate Check-in and Allocation</text></g><rect x="20" y="55.042" width="2365.258" height="20.953" fill="none" style="stroke:none;"/><ellipse cx="133.354" cy="90.995" rx="10" ry="10" fill="#222" style="stroke:#222;stroke-width:1;"/><rect x="66.151" y="120.995" width="134.404" height="33.969" fill="#F7F7F7" style="stroke:#454545;stroke-width:0.5;" rx="12.5" ry="12.5"/><text x="76.151" y="142.134" fill="#000" font-size="12" textLength="114.404">Start gate check-in</text><rect x="27.863" y="424.901" width="210.98" height="33.969" fill="#F7F7F7" style="stroke:#454545;stroke-width:0.5;" rx="12.5" ry="12.5"/><text x="37.863" y="446.04" fill="#000" font-size="12" textLength="190.98">Verify or correct plate manually</text><rect x="26" y="478.87" width="214.707" height="33.969" fill="#F7F7F7" style="stroke:#454545;stroke-width:0.5;" rx="12.5" ry="12.5"/><text x="36" y="500.009" fill="#000" font-size="12" textLength="194.707">Provide card and facility context</text><rect x="31.065" y="2049.538" width="204.576" height="33.969" fill="#C8E6C9" style="stroke:#454545;stroke-width:0.5;" rx="12.5" ry="12.5"/><text x="41.065" y="2070.677" fill="#000" font-size="12" textLength="184.576">Active parking session created</text><ellipse cx="133.354" cy="2114.507" rx="11" ry="11" fill="none" style="stroke:#222;stroke-width:1;"/><ellipse cx="133.354" cy="2114.507" rx="6" ry="6" fill="#222" style="stroke:#222;stroke-width:1;"/><line x1="20" y1="55.042" x2="20" y2="2125.507" style="stroke:#000;stroke-width:1.5;"/><polygon points="455.237,174.964,639.498,174.964,651.498,186.964,639.498,198.964,455.237,198.964,443.237,186.964,455.237,174.964" fill="#FFF2CC" style="stroke:#454545;stroke-width:0.5;stroke-linejoin:miter;stroke-miterlimit:10;"/><text x="455.237" y="190.772" fill="#000" font-size="11" textLength="184.261">Camera available and permitted?</text><text x="424.019" y="184.37" fill="#000" font-size="11" textLength="19.218">Yes</text><text x="651.498" y="184.37" fill="#000" font-size="11" textLength="14.958">No</text><rect x="250.707" y="218.964" width="280.414" height="33.969" fill="#F7F7F7" style="stroke:#454545;stroke-width:0.5;" rx="12.5" ry="12.5"/><text x="260.707" y="240.103" fill="#000" font-size="12" textLength="260.414">Capture image and submit Base64 payload</text><polygon points="547.367,380.901,559.367,392.901,547.367,404.901,535.367,392.901,547.367,380.901" fill="#FFF2CC" style="stroke:#454545;stroke-width:0.5;stroke-linejoin:miter;stroke-miterlimit:10;"/><line x1="244.707" y1="55.042" x2="244.707" y2="2125.507" style="stroke:#000;stroke-width:1.5;"/><polygon points="833.83,272.933,970.777,272.933,982.777,284.933,970.777,296.933,833.83,296.933,821.83,284.933,833.83,272.933" fill="#FFF2CC" style="stroke:#454545;stroke-width:0.5;stroke-linejoin:miter;stroke-miterlimit:10;"/><text x="833.83" y="288.741" fill="#000" font-size="11" textLength="136.947">OCR returns candidates?</text><text x="802.613" y="282.338" fill="#000" font-size="11" textLength="19.218">Yes</text><text x="982.777" y="282.338" fill="#000" font-size="11" textLength="14.958">No</text><rect x="677.456" y="306.933" width="242.287" height="33.969" fill="#F7F7F7" style="stroke:#454545;stroke-width:0.5;" rx="12.5" ry="12.5"/><text x="687.456" y="328.071" fill="#000" font-size="12" textLength="222.287">Return highest-confidence candidate</text><rect x="939.743" y="306.933" width="132.529" height="33.969" fill="#F7F7F7" style="stroke:#454545;stroke-width:0.5;" rx="12.5" ry="12.5"/><text x="949.743" y="328.071" fill="#000" font-size="12" textLength="112.529">Return OCR failure</text><polygon points="902.304,346.901,914.304,358.901,902.304,370.901,890.304,358.901,902.304,346.901" fill="#FFF2CC" style="stroke:#454545;stroke-width:0.5;stroke-linejoin:miter;stroke-miterlimit:10;"/><rect x="1082.272" y="218.964" width="225.875" height="33.969" fill="#F7F7F7" style="stroke:#454545;stroke-width:0.5;" rx="12.5" ry="12.5"/><text x="1092.272" y="240.103" fill="#000" font-size="12" textLength="205.875">Keep manual plate input available</text><line x1="671.456" y1="55.042" x2="671.456" y2="2125.507" style="stroke:#000;stroke-width:1.5;"/><rect x="1318.147" y="532.839" width="261.488" height="47.938" fill="#F7F7F7" style="stroke:#454545;stroke-width:0.5;" rx="12.5" ry="12.5"/><text x="1328.147" y="553.978" fill="#000" font-size="12" textLength="241.488">Normalize plate: uppercase and remove</text><text x="1328.147" y="567.946" fill="#000" font-size="12" textLength="160.189">spaces, hyphens, and dots</text><rect x="1329.468" y="600.776" width="238.848" height="33.969" fill="#F7F7F7" style="stroke:#454545;stroke-width:0.5;" rx="12.5" ry="12.5"/><text x="1339.468" y="621.915" fill="#000" font-size="12" textLength="218.848">Resolve vehicle and eligible booking</text><rect x="1392.913" y="703.147" width="111.957" height="33.969" fill="#FFCDD2" style="stroke:#454545;stroke-width:0.5;" rx="12.5" ry="12.5"/><text x="1402.913" y="724.286" fill="#000" font-size="12" textLength="91.957">Reject check-in</text><ellipse cx="1448.892" cy="776.632" rx="11" ry="11" fill="none" style="stroke:#222;stroke-width:1;"/><ellipse cx="1448.892" cy="776.632" rx="6" ry="6" fill="#222" style="stroke:#222;stroke-width:1;"/><polygon points="1380.577,654.745,1517.207,654.745,1529.207,666.745,1517.207,678.745,1380.577,678.745,1368.577,666.745,1380.577,654.745" fill="#FFF2CC" style="stroke:#454545;stroke-width:0.5;stroke-linejoin:miter;stroke-miterlimit:10;"/><text x="1452.892" y="688.956" fill="#000" font-size="11" textLength="19.218">Yes</text><text x="1380.577" y="670.553" fill="#000" font-size="11" textLength="136.63">Vehicle/card blacklisted?</text><rect x="1357.669" y="879.644" width="182.445" height="33.969" fill="#FFCDD2" style="stroke:#454545;stroke-width:0.5;" rx="12.5" ry="12.5"/><text x="1367.669" y="900.782" fill="#000" font-size="12" textLength="162.445">Reject duplicate active use</text><ellipse cx="1448.892" cy="952.726" rx="11" ry="11" fill="none" style="stroke:#222;stroke-width:1;"/><ellipse cx="1448.892" cy="952.726" rx="6" ry="6" fill="#222" style="stroke:#222;stroke-width:1;"/><polygon points="1373.648,829.632,1524.135,829.632,1536.135,842.437,1524.135,855.241,1373.648,855.241,1361.648,842.437,1373.648,829.632" fill="#FFF2CC" style="stroke:#454545;stroke-width:0.5;stroke-linejoin:miter;stroke-miterlimit:10;"/><text x="1452.892" y="865.452" fill="#000" font-size="11" textLength="19.218">Yes</text><text x="1373.648" y="839.842" fill="#000" font-size="11" textLength="150.487">Vehicle or card already has</text><text x="1373.648" y="852.647" fill="#000" font-size="11" textLength="100.697">an active session?</text><rect x="1373.647" y="1055.737" width="150.488" height="33.969" fill="#FFCDD2" style="stroke:#454545;stroke-width:0.5;" rx="12.5" ry="12.5"/><text x="1383.647" y="1076.876" fill="#000" font-size="12" textLength="130.488">Reject invalid context</text><ellipse cx="1448.892" cy="1130.093" rx="11" ry="11" fill="none" style="stroke:#222;stroke-width:1;"/><ellipse cx="1448.892" cy="1130.093" rx="6" ry="6" fill="#222" style="stroke:#222;stroke-width:1;"/><polygon points="1362.304,1005.726,1535.479,1005.726,1547.479,1018.53,1535.479,1031.335,1362.304,1031.335,1350.304,1018.53,1362.304,1005.726" fill="#FFF2CC" style="stroke:#454545;stroke-width:0.5;stroke-linejoin:miter;stroke-miterlimit:10;"/><text x="1452.892" y="1041.545" fill="#000" font-size="11" textLength="14.958">No</text><text x="1362.304" y="1015.936" fill="#000" font-size="11" textLength="173.175">Booking, building, vehicle type,</text><text x="1362.304" y="1028.741" fill="#000" font-size="11" textLength="111.982">and hierarchy valid?</text><line x1="1312.147" y1="55.042" x2="1312.147" y2="2125.507" style="stroke:#000;stroke-width:1.5;"/><rect x="1748.635" y="1183.093" width="200.539" height="33.969" fill="#F7F7F7" style="stroke:#454545;stroke-width:0.5;" rx="12.5" ry="12.5"/><text x="1758.635" y="1204.231" fill="#000" font-size="12" textLength="180.539">Select compatible active zone</text><polygon points="1774.609,1237.062,1923.2,1237.062,1935.2,1249.062,1923.2,1261.062,1774.609,1261.062,1762.609,1249.062,1774.609,1237.062" fill="#FFF2CC" style="stroke:#454545;stroke-width:0.5;stroke-linejoin:miter;stroke-miterlimit:10;"/><text x="1774.609" y="1252.87" fill="#000" font-size="11" textLength="148.591">Car requires concrete slot?</text><text x="1743.391" y="1246.467" fill="#000" font-size="11" textLength="19.218">Yes</text><text x="1935.2" y="1246.467" fill="#000" font-size="11" textLength="14.958">No</text><rect x="1589.636" y="1271.062" width="246.248" height="33.969" fill="#F7F7F7" style="stroke:#454545;stroke-width:0.5;" rx="12.5" ry="12.5"/><text x="1599.636" y="1292.2" fill="#000" font-size="12" textLength="226.248">Select compatible non-conflicting slot</text><rect x="1652.832" y="1373.433" width="119.855" height="33.969" fill="#FFCDD2" style="stroke:#454545;stroke-width:0.5;" rx="12.5" ry="12.5"/><text x="1662.832" y="1394.571" fill="#000" font-size="12" textLength="99.855">Reject allocation</text><ellipse cx="1712.76" cy="1453.401" rx="11" ry="11" fill="none" style="stroke:#222;stroke-width:1;"/><ellipse cx="1712.76" cy="1453.401" rx="6" ry="6" fill="#222" style="stroke:#222;stroke-width:1;"/><polygon points="1628.079,1325.03,1797.44,1325.03,1809.44,1337.03,1797.44,1349.03,1628.079,1349.03,1616.079,1337.03,1628.079,1325.03" fill="#FFF2CC" style="stroke:#454545;stroke-width:0.5;stroke-linejoin:miter;stroke-miterlimit:10;"/><text x="1716.76" y="1359.241" fill="#000" font-size="11" textLength="19.218">Yes</text><text x="1628.079" y="1340.838" fill="#000" font-size="11" textLength="169.361">Slot unavailable or conflicting?</text><rect x="1855.884" y="1271.062" width="258.33" height="33.969" fill="#F7F7F7" style="stroke:#454545;stroke-width:0.5;" rx="12.5" ry="12.5"/><text x="1865.884" y="1292.2" fill="#000" font-size="12" textLength="238.33">Use zone capacity without required slot</text><polygon points="1848.904,1492.401,1860.904,1504.401,1848.904,1516.401,1836.904,1504.401,1848.904,1492.401" fill="#FFF2CC" style="stroke:#454545;stroke-width:0.5;stroke-linejoin:miter;stroke-miterlimit:10;"/><rect x="1788.977" y="1584.804" width="119.855" height="33.969" fill="#FFCDD2" style="stroke:#454545;stroke-width:0.5;" rx="12.5" ry="12.5"/><text x="1798.977" y="1605.942" fill="#000" font-size="12" textLength="99.855">Reject allocation</text><ellipse cx="1848.904" cy="1658.757" rx="11" ry="11" fill="none" style="stroke:#222;stroke-width:1;"/><ellipse cx="1848.904" cy="1658.757" rx="6" ry="6" fill="#222" style="stroke:#222;stroke-width:1;"/><polygon points="1768.394,1536.401,1929.414,1536.401,1941.414,1548.401,1929.414,1560.401,1768.394,1560.401,1756.394,1548.401,1768.394,1536.401" fill="#FFF2CC" style="stroke:#454545;stroke-width:0.5;stroke-linejoin:miter;stroke-miterlimit:10;"/><text x="1852.904" y="1570.612" fill="#000" font-size="11" textLength="19.218">Yes</text><text x="1768.394" y="1552.209" fill="#000" font-size="11" textLength="161.02">Effective capacity exceeded?</text><line x1="1583.636" y1="55.042" x2="1583.636" y2="2125.507" style="stroke:#000;stroke-width:1.5;"/><rect x="2150.892" y="1711.757" width="201.828" height="33.969" fill="#F7F7F7" style="stroke:#454545;stroke-width:0.5;" rx="12.5" ry="12.5"/><text x="2160.892" y="1732.896" fill="#000" font-size="12" textLength="181.828">Create ACTIVE ParkingSession</text><rect x="2127.179" y="1765.726" width="249.254" height="47.938" fill="#F7F7F7" style="stroke:#454545;stroke-width:0.5;" rx="12.5" ry="12.5"/><text x="2137.179" y="1786.864" fill="#000" font-size="12" textLength="229.254">Bind vehicle, card, zone, optional slot,</text><text x="2137.179" y="1800.833" fill="#000" font-size="12" textLength="126.645">and optional booking</text><rect x="2153.054" y="1833.663" width="197.504" height="33.969" fill="#F7F7F7" style="stroke:#454545;stroke-width:0.5;" rx="12.5" ry="12.5"/><text x="2163.054" y="1854.802" fill="#000" font-size="12" textLength="177.504">Store ImageIn when provided</text><rect x="2188.397" y="1887.632" width="126.816" height="33.969" fill="#F7F7F7" style="stroke:#454545;stroke-width:0.5;" rx="12.5" ry="12.5"/><text x="2198.397" y="1908.771" fill="#000" font-size="12" textLength="106.816">Set Card = Active</text><rect x="2124.214" y="1941.601" width="255.184" height="33.969" fill="#F7F7F7" style="stroke:#454545;stroke-width:0.5;" rx="12.5" ry="12.5"/><text x="2134.214" y="1962.739" fill="#000" font-size="12" textLength="235.184">Set car slot = Occupied when assigned</text><rect x="2145.445" y="1995.569" width="212.721" height="33.969" fill="#F7F7F7" style="stroke:#454545;stroke-width:0.5;" rx="12.5" ry="12.5"/><text x="2155.445" y="2016.708" fill="#000" font-size="12" textLength="192.721">Set linked Booking = CheckedIn</text><line x1="2118.214" y1="55.042" x2="2118.214" y2="2125.507" style="stroke:#000;stroke-width:1.5;"/><line x1="2383.397" y1="55.042" x2="2383.397" y2="2125.507" style="stroke:#000;stroke-width:1.5;"/><line x1="133.354" y1="100.995" x2="133.354" y2="120.995" style="stroke:#181818;stroke-width:1;"/><polygon points="129.354,110.995,133.354,120.995,137.354,110.995,133.354,114.995" fill="#181818" style="stroke:#181818;stroke-width:1;stroke-linejoin:miter;stroke-miterlimit:10;"/><line x1="133.354" y1="458.87" x2="133.354" y2="478.87" style="stroke:#181818;stroke-width:1;"/><polygon points="129.354,468.87,133.354,478.87,137.354,468.87,133.354,472.87" fill="#181818" style="stroke:#181818;stroke-width:1;stroke-linejoin:miter;stroke-miterlimit:10;"/><line x1="133.354" y1="2083.507" x2="133.354" y2="2103.507" style="stroke:#181818;stroke-width:1;"/><polygon points="129.354,2093.507,133.354,2103.507,137.354,2093.507,133.354,2097.507" fill="#181818" style="stroke:#181818;stroke-width:1;stroke-linejoin:miter;stroke-miterlimit:10;"/><line x1="443.237" y1="186.964" x2="390.914" y2="186.964" style="stroke:#181818;stroke-width:1;"/><line x1="390.914" y1="186.964" x2="390.914" y2="218.964" style="stroke:#181818;stroke-width:1;"/><polygon points="386.914,208.964,390.914,218.964,394.914,208.964,390.914,212.964" fill="#181818" style="stroke:#181818;stroke-width:1;stroke-linejoin:miter;stroke-miterlimit:10;"/><line x1="821.83" y1="284.933" x2="798.6" y2="284.933" style="stroke:#181818;stroke-width:1;"/><line x1="798.6" y1="284.933" x2="798.6" y2="306.933" style="stroke:#181818;stroke-width:1;"/><polygon points="794.6,296.933,798.6,306.933,802.6,296.933,798.6,300.933" fill="#181818" style="stroke:#181818;stroke-width:1;stroke-linejoin:miter;stroke-miterlimit:10;"/><line x1="982.777" y1="284.933" x2="1006.008" y2="284.933" style="stroke:#181818;stroke-width:1;"/><line x1="1006.008" y1="284.933" x2="1006.008" y2="306.933" style="stroke:#181818;stroke-width:1;"/><polygon points="1002.008,296.933,1006.008,306.933,1010.008,296.933,1006.008,300.933" fill="#181818" style="stroke:#181818;stroke-width:1;stroke-linejoin:miter;stroke-miterlimit:10;"/><line x1="798.6" y1="340.901" x2="798.6" y2="358.901" style="stroke:#181818;stroke-width:1;"/><line x1="798.6" y1="358.901" x2="890.304" y2="358.901" style="stroke:#181818;stroke-width:1;"/><polygon points="880.304,354.901,890.304,358.901,880.304,362.901,884.304,358.901" fill="#181818" style="stroke:#181818;stroke-width:1;stroke-linejoin:miter;stroke-miterlimit:10;"/><line x1="1006.008" y1="340.901" x2="1006.008" y2="358.901" style="stroke:#181818;stroke-width:1;"/><line x1="1006.008" y1="358.901" x2="914.304" y2="358.901" style="stroke:#181818;stroke-width:1;"/><polygon points="924.304,354.901,914.304,358.901,924.304,362.901,920.304,358.901" fill="#181818" style="stroke:#181818;stroke-width:1;stroke-linejoin:miter;stroke-miterlimit:10;"/><line x1="1448.892" y1="580.776" x2="1448.892" y2="600.776" style="stroke:#181818;stroke-width:1;"/><polygon points="1444.892,590.776,1448.892,600.776,1452.892,590.776,1448.892,594.776" fill="#181818" style="stroke:#181818;stroke-width:1;stroke-linejoin:miter;stroke-miterlimit:10;"/><line x1="1448.892" y1="737.116" x2="1448.892" y2="765.632" style="stroke:#181818;stroke-width:1;"/><polygon points="1444.892,755.632,1448.892,765.632,1452.892,755.632,1448.892,759.632" fill="#181818" style="stroke:#181818;stroke-width:1;stroke-linejoin:miter;stroke-miterlimit:10;"/><line x1="1448.892" y1="678.745" x2="1448.892" y2="703.147" style="stroke:#181818;stroke-width:1;"/><polygon points="1444.892,693.147,1448.892,703.147,1452.892,693.147,1448.892,697.147" fill="#181818" style="stroke:#181818;stroke-width:1;stroke-linejoin:miter;stroke-miterlimit:10;"/><line x1="1529.207" y1="666.745" x2="1541.207" y2="666.745" style="stroke:#181818;stroke-width:1;"/><polygon points="1537.207,735.632,1541.207,745.632,1545.207,735.632,1541.207,739.632" fill="#181818" style="stroke:#181818;stroke-width:1;stroke-linejoin:miter;stroke-miterlimit:10;"/><line x1="1541.207" y1="666.745" x2="1541.207" y2="809.632" style="stroke:#181818;stroke-width:1;"/><line x1="1541.207" y1="809.632" x2="1448.892" y2="809.632" style="stroke:#181818;stroke-width:1;"/><line x1="1448.892" y1="809.632" x2="1448.892" y2="829.632" style="stroke:#181818;stroke-width:1;"/><polygon points="1444.892,819.632,1448.892,829.632,1452.892,819.632,1448.892,823.632" fill="#181818" style="stroke:#181818;stroke-width:1;stroke-linejoin:miter;stroke-miterlimit:10;"/><line x1="1448.892" y1="634.745" x2="1448.892" y2="654.745" style="stroke:#181818;stroke-width:1;"/><polygon points="1444.892,644.745,1448.892,654.745,1452.892,644.745,1448.892,648.745" fill="#181818" style="stroke:#181818;stroke-width:1;stroke-linejoin:miter;stroke-miterlimit:10;"/><line x1="1448.892" y1="913.612" x2="1448.892" y2="941.726" style="stroke:#181818;stroke-width:1;"/><polygon points="1444.892,931.726,1448.892,941.726,1452.892,931.726,1448.892,935.726" fill="#181818" style="stroke:#181818;stroke-width:1;stroke-linejoin:miter;stroke-miterlimit:10;"/><line x1="1448.892" y1="855.241" x2="1448.892" y2="879.644" style="stroke:#181818;stroke-width:1;"/><polygon points="1444.892,869.644,1448.892,879.644,1452.892,869.644,1448.892,873.644" fill="#181818" style="stroke:#181818;stroke-width:1;stroke-linejoin:miter;stroke-miterlimit:10;"/><line x1="1536.135" y1="842.437" x2="1550.114" y2="842.437" style="stroke:#181818;stroke-width:1;"/><polygon points="1546.114,911.726,1550.114,921.726,1554.114,911.726,1550.114,915.726" fill="#181818" style="stroke:#181818;stroke-width:1;stroke-linejoin:miter;stroke-miterlimit:10;"/><line x1="1550.114" y1="842.437" x2="1550.114" y2="985.726" style="stroke:#181818;stroke-width:1;"/><line x1="1550.114" y1="985.726" x2="1448.892" y2="985.726" style="stroke:#181818;stroke-width:1;"/><line x1="1448.892" y1="985.726" x2="1448.892" y2="1005.726" style="stroke:#181818;stroke-width:1;"/><polygon points="1444.892,995.726,1448.892,1005.726,1452.892,995.726,1448.892,999.726" fill="#181818" style="stroke:#181818;stroke-width:1;stroke-linejoin:miter;stroke-miterlimit:10;"/><line x1="1448.892" y1="1089.706" x2="1448.892" y2="1119.093" style="stroke:#181818;stroke-width:1;"/><polygon points="1444.892,1109.093,1448.892,1119.093,1452.892,1109.093,1448.892,1113.093" fill="#181818" style="stroke:#181818;stroke-width:1;stroke-linejoin:miter;stroke-miterlimit:10;"/><line x1="1448.892" y1="1031.335" x2="1448.892" y2="1055.737" style="stroke:#181818;stroke-width:1;"/><polygon points="1444.892,1045.737,1448.892,1055.737,1452.892,1045.737,1448.892,1049.737" fill="#181818" style="stroke:#181818;stroke-width:1;stroke-linejoin:miter;stroke-miterlimit:10;"/><line x1="1547.479" y1="1018.53" x2="1848.904" y2="1018.53" style="stroke:#181818;stroke-width:1;"/><polygon points="1844.904,1099.706,1848.904,1109.706,1852.904,1099.706,1848.904,1103.706" fill="#181818" style="stroke:#181818;stroke-width:1;stroke-linejoin:miter;stroke-miterlimit:10;"/><line x1="1848.904" y1="1018.53" x2="1848.904" y2="1183.093" style="stroke:#181818;stroke-width:1;"/><polygon points="1844.904,1173.093,1848.904,1183.093,1852.904,1173.093,1848.904,1177.093" fill="#181818" style="stroke:#181818;stroke-width:1;stroke-linejoin:miter;stroke-miterlimit:10;"/><line x1="1712.76" y1="1407.401" x2="1712.76" y2="1442.401" style="stroke:#181818;stroke-width:1;"/><polygon points="1708.76,1432.401,1712.76,1442.401,1716.76,1432.401,1712.76,1436.401" fill="#181818" style="stroke:#181818;stroke-width:1;stroke-linejoin:miter;stroke-miterlimit:10;"/><line x1="1712.76" y1="1349.03" x2="1712.76" y2="1373.433" style="stroke:#181818;stroke-width:1;"/><polygon points="1708.76,1363.433,1712.76,1373.433,1716.76,1363.433,1712.76,1367.433" fill="#181818" style="stroke:#181818;stroke-width:1;stroke-linejoin:miter;stroke-miterlimit:10;"/><line x1="1809.44" y1="1337.03" x2="1821.44" y2="1337.03" style="stroke:#181818;stroke-width:1;"/><polygon points="1817.44,1414.917,1821.44,1424.917,1825.44,1414.917,1821.44,1418.917" fill="#181818" style="stroke:#181818;stroke-width:1;stroke-linejoin:miter;stroke-miterlimit:10;"/><line x1="1821.44" y1="1337.03" x2="1821.44" y2="1504.401" style="stroke:#181818;stroke-width:1;"/><line x1="1821.44" y1="1504.401" x2="1836.904" y2="1504.401" style="stroke:#181818;stroke-width:1;"/><polygon points="1826.904,1500.401,1836.904,1504.401,1826.904,1508.401,1830.904,1504.401" fill="#181818" style="stroke:#181818;stroke-width:1;stroke-linejoin:miter;stroke-miterlimit:10;"/><line x1="1712.76" y1="1305.03" x2="1712.76" y2="1325.03" style="stroke:#181818;stroke-width:1;"/><polygon points="1708.76,1315.03,1712.76,1325.03,1716.76,1315.03,1712.76,1319.03" fill="#181818" style="stroke:#181818;stroke-width:1;stroke-linejoin:miter;stroke-miterlimit:10;"/><line x1="1762.609" y1="1249.062" x2="1712.76" y2="1249.062" style="stroke:#181818;stroke-width:1;"/><line x1="1712.76" y1="1249.062" x2="1712.76" y2="1271.062" style="stroke:#181818;stroke-width:1;"/><polygon points="1708.76,1261.062,1712.76,1271.062,1716.76,1261.062,1712.76,1265.062" fill="#181818" style="stroke:#181818;stroke-width:1;stroke-linejoin:miter;stroke-miterlimit:10;"/><line x1="1935.2" y1="1249.062" x2="1985.049" y2="1249.062" style="stroke:#181818;stroke-width:1;"/><line x1="1985.049" y1="1249.062" x2="1985.049" y2="1271.062" style="stroke:#181818;stroke-width:1;"/><polygon points="1981.049,1261.062,1985.049,1271.062,1989.049,1261.062,1985.049,1265.062" fill="#181818" style="stroke:#181818;stroke-width:1;stroke-linejoin:miter;stroke-miterlimit:10;"/><line x1="1985.049" y1="1305.03" x2="1985.049" y2="1504.401" style="stroke:#181818;stroke-width:1;"/><line x1="1985.049" y1="1504.401" x2="1860.904" y2="1504.401" style="stroke:#181818;stroke-width:1;"/><polygon points="1870.904,1500.401,1860.904,1504.401,1870.904,1508.401,1866.904,1504.401" fill="#181818" style="stroke:#181818;stroke-width:1;stroke-linejoin:miter;stroke-miterlimit:10;"/><line x1="1848.904" y1="1217.062" x2="1848.904" y2="1237.062" style="stroke:#181818;stroke-width:1;"/><polygon points="1844.904,1227.062,1848.904,1237.062,1852.904,1227.062,1848.904,1231.062" fill="#181818" style="stroke:#181818;stroke-width:1;stroke-linejoin:miter;stroke-miterlimit:10;"/><line x1="1848.904" y1="1618.772" x2="1848.904" y2="1647.757" style="stroke:#181818;stroke-width:1;"/><polygon points="1844.904,1637.757,1848.904,1647.757,1852.904,1637.757,1848.904,1641.757" fill="#181818" style="stroke:#181818;stroke-width:1;stroke-linejoin:miter;stroke-miterlimit:10;"/><line x1="1848.904" y1="1560.401" x2="1848.904" y2="1584.804" style="stroke:#181818;stroke-width:1;"/><polygon points="1844.904,1574.804,1848.904,1584.804,1852.904,1574.804,1848.904,1578.804" fill="#181818" style="stroke:#181818;stroke-width:1;stroke-linejoin:miter;stroke-miterlimit:10;"/><line x1="1941.414" y1="1548.401" x2="2251.806" y2="1548.401" style="stroke:#181818;stroke-width:1;"/><polygon points="2247.806,1628.772,2251.806,1638.772,2255.806,1628.772,2251.806,1632.772" fill="#181818" style="stroke:#181818;stroke-width:1;stroke-linejoin:miter;stroke-miterlimit:10;"/><line x1="2251.806" y1="1548.401" x2="2251.806" y2="1711.757" style="stroke:#181818;stroke-width:1;"/><polygon points="2247.806,1701.757,2251.806,1711.757,2255.806,1701.757,2251.806,1705.757" fill="#181818" style="stroke:#181818;stroke-width:1;stroke-linejoin:miter;stroke-miterlimit:10;"/><line x1="1848.904" y1="1516.401" x2="1848.904" y2="1536.401" style="stroke:#181818;stroke-width:1;"/><polygon points="1844.904,1526.401,1848.904,1536.401,1852.904,1526.401,1848.904,1530.401" fill="#181818" style="stroke:#181818;stroke-width:1;stroke-linejoin:miter;stroke-miterlimit:10;"/><line x1="2251.806" y1="1745.726" x2="2251.806" y2="1765.726" style="stroke:#181818;stroke-width:1;"/><polygon points="2247.806,1755.726,2251.806,1765.726,2255.806,1755.726,2251.806,1759.726" fill="#181818" style="stroke:#181818;stroke-width:1;stroke-linejoin:miter;stroke-miterlimit:10;"/><line x1="2251.806" y1="1813.663" x2="2251.806" y2="1833.663" style="stroke:#181818;stroke-width:1;"/><polygon points="2247.806,1823.663,2251.806,1833.663,2255.806,1823.663,2251.806,1827.663" fill="#181818" style="stroke:#181818;stroke-width:1;stroke-linejoin:miter;stroke-miterlimit:10;"/><line x1="2251.806" y1="1867.632" x2="2251.806" y2="1887.632" style="stroke:#181818;stroke-width:1;"/><polygon points="2247.806,1877.632,2251.806,1887.632,2255.806,1877.632,2251.806,1881.632" fill="#181818" style="stroke:#181818;stroke-width:1;stroke-linejoin:miter;stroke-miterlimit:10;"/><line x1="2251.806" y1="1921.601" x2="2251.806" y2="1941.601" style="stroke:#181818;stroke-width:1;"/><polygon points="2247.806,1931.601,2251.806,1941.601,2255.806,1931.601,2251.806,1935.601" fill="#181818" style="stroke:#181818;stroke-width:1;stroke-linejoin:miter;stroke-miterlimit:10;"/><line x1="2251.806" y1="1975.569" x2="2251.806" y2="1995.569" style="stroke:#181818;stroke-width:1;"/><polygon points="2247.806,1985.569,2251.806,1995.569,2255.806,1985.569,2251.806,1989.569" fill="#181818" style="stroke:#181818;stroke-width:1;stroke-linejoin:miter;stroke-miterlimit:10;"/><line x1="390.914" y1="252.933" x2="390.914" y2="257.933" style="stroke:#181818;stroke-width:1;"/><line x1="390.914" y1="257.933" x2="902.304" y2="257.933" style="stroke:#181818;stroke-width:1;"/><line x1="902.304" y1="257.933" x2="902.304" y2="272.933" style="stroke:#181818;stroke-width:1;"/><polygon points="898.304,262.933,902.304,272.933,906.304,262.933,902.304,266.933" fill="#181818" style="stroke:#181818;stroke-width:1;stroke-linejoin:miter;stroke-miterlimit:10;"/><line x1="651.498" y1="186.964" x2="1195.21" y2="186.964" style="stroke:#181818;stroke-width:1;"/><line x1="1195.21" y1="186.964" x2="1195.21" y2="218.964" style="stroke:#181818;stroke-width:1;"/><polygon points="1191.21,208.964,1195.21,218.964,1199.21,208.964,1195.21,212.964" fill="#181818" style="stroke:#181818;stroke-width:1;stroke-linejoin:miter;stroke-miterlimit:10;"/><line x1="902.304" y1="370.901" x2="902.304" y2="374.901" style="stroke:#181818;stroke-width:1;"/><line x1="902.304" y1="374.901" x2="517.367" y2="374.901" style="stroke:#181818;stroke-width:1;"/><line x1="517.367" y1="374.901" x2="517.367" y2="392.901" style="stroke:#181818;stroke-width:1;"/><line x1="517.367" y1="392.901" x2="535.367" y2="392.901" style="stroke:#181818;stroke-width:1;"/><polygon points="525.367,388.901,535.367,392.901,525.367,396.901,529.367,392.901" fill="#181818" style="stroke:#181818;stroke-width:1;stroke-linejoin:miter;stroke-miterlimit:10;"/><line x1="1195.21" y1="252.933" x2="1195.21" y2="392.901" style="stroke:#181818;stroke-width:1;"/><line x1="1195.21" y1="392.901" x2="559.367" y2="392.901" style="stroke:#181818;stroke-width:1;"/><polygon points="569.367,388.901,559.367,392.901,569.367,396.901,565.367,392.901" fill="#181818" style="stroke:#181818;stroke-width:1;stroke-linejoin:miter;stroke-miterlimit:10;"/><line x1="133.354" y1="154.964" x2="133.354" y2="159.964" style="stroke:#181818;stroke-width:1;"/><line x1="133.354" y1="159.964" x2="547.367" y2="159.964" style="stroke:#181818;stroke-width:1;"/><line x1="547.367" y1="159.964" x2="547.367" y2="174.964" style="stroke:#181818;stroke-width:1;"/><polygon points="543.367,164.964,547.367,174.964,551.367,164.964,547.367,168.964" fill="#181818" style="stroke:#181818;stroke-width:1;stroke-linejoin:miter;stroke-miterlimit:10;"/><line x1="547.367" y1="404.901" x2="547.367" y2="409.901" style="stroke:#181818;stroke-width:1;"/><line x1="547.367" y1="409.901" x2="133.354" y2="409.901" style="stroke:#181818;stroke-width:1;"/><line x1="133.354" y1="409.901" x2="133.354" y2="424.901" style="stroke:#181818;stroke-width:1;"/><polygon points="129.354,414.901,133.354,424.901,137.354,414.901,133.354,418.901" fill="#181818" style="stroke:#181818;stroke-width:1;stroke-linejoin:miter;stroke-miterlimit:10;"/><line x1="133.354" y1="512.839" x2="133.354" y2="517.839" style="stroke:#181818;stroke-width:1;"/><line x1="133.354" y1="517.839" x2="1448.892" y2="517.839" style="stroke:#181818;stroke-width:1;"/><line x1="1448.892" y1="517.839" x2="1448.892" y2="532.839" style="stroke:#181818;stroke-width:1;"/><polygon points="1444.892,522.839,1448.892,532.839,1452.892,522.839,1448.892,526.839" fill="#181818" style="stroke:#181818;stroke-width:1;stroke-linejoin:miter;stroke-miterlimit:10;"/><line x1="2251.806" y1="2029.538" x2="2251.806" y2="2034.538" style="stroke:#181818;stroke-width:1;"/><line x1="2251.806" y1="2034.538" x2="133.354" y2="2034.538" style="stroke:#181818;stroke-width:1;"/><line x1="133.354" y1="2034.538" x2="133.354" y2="2049.538" style="stroke:#181818;stroke-width:1;"/><polygon points="129.354,2039.538,133.354,2049.538,137.354,2039.538,133.354,2043.538" fill="#181818" style="stroke:#181818;stroke-width:1;stroke-linejoin:miter;stroke-miterlimit:10;"/><text x="111.26" y="71.75" fill="#000" font-size="18" textLength="42.188">Staff</text><text x="366.451" y="71.75" fill="#000" font-size="18" textLength="183.261">Gate UI and Camera</text><text x="916.308" y="71.75" fill="#000" font-size="18" textLength="150.987">Plate Recognizer</text><text x="1405.713" y="71.75" fill="#000" font-size="18" textLength="84.357">PBMS API</text><text x="1770.435" y="71.75" fill="#000" font-size="18" textLength="160.98">Allocation Service</text><text x="2207.862" y="71.75" fill="#000" font-size="18" textLength="85.887">Database</text><?plantuml-src XLNRRXCn47tVhnY9bo858LNbbXHGksrHX80eePMG-ZAnPtTDlVPYUrC2uTyPUzsaz2Aq3x7ikPqpPoP11Ktm0GD1sP2uUgOCe95mfBKL69GrXRzIfaE7BVW6fRrMfeOAjQTRBoY2MgcmXjy5m36AgzhPtiZIQklWoTch-CKNwoIvV7lm8dvyUwAmjKRUTpixso_BuazHR1O1gsfJ-80k5ED5_84w5YroqPDYaq2SJrFv9RRaS5Ee2lQ6C-0AbSObeuq67RbMXK3o_LC83HdO-qR-AHSpBh4BlIDGBTQ3hU-NRCkmFBqyW0xNsgASiErcfcFEEGbR6_MBt8OlOyelvHmSSHZZGN089TdEtqt5oUR921fLD-J3Cs5DfIGPGJktc8YORTZxRF_rYbag1iNL9YDsg8hRfkEFH1sqQ7hKqALQkM5zs74nAGQl6uB75-HKjGQcNrZdI8JiDmJHwqandZcxuYAvGYSJFnKAfMFpkVn0FmFtOdRyQG57iob7_6nTYvhP6IADeU-OVC5a9cT7hLtHfV4T2l8ZQDOTSyI7-2Xjy9nnJjxg5S6A6YLo0qchMiLkBgrb6TQJrEkBmU9vgcsfML5Q-OUwFAVl4TnMFd1uo7ehJqxstxtZTnzibwcv5JRHab1hHoZNqA2_D6W6-HDuyfudvh5aik-q4f7DRDzx-a_Yum7S29QzqZATRaW8wuv6CRja-R30dMZMi6AcTs2p2d9wPTBhjakFPzxifXyMv5PA43ToGJfHPjkEdz8W3J1-MKEJF6gE6_gZLuvyp2Du29WMRSCzJkv7CzQa0M2EGjmnqMsI1sh1P-ZDReQJGBUs3qvM0erR97VnPiGFpisv7r1njrcMKThNAZIM9oUZaxcwNQTEgue6EhO-z5CGoSV5ztXjjtjnWW6NF2tSWP9LntmUbL-d5wSmGnUriHX4nsDoh5WBMHwZ9DHHGZ42syKil0HYrLaqsxlj0F5UjRpufd7nJGrSnvgxOTXbVAN0UvNL_nQE4j9ynubINBx_8aJVAMOd-I8NLfkjhrRcYf-ofDaw_U6GdCRbVRD_XiYyP1Escua2aP3Bn5Fv-lHb-OPvYYpz1G00?></g></svg>