<svg xmlns="http://www.w3.org/2000/svg" xmlns:xlink="http://www.w3.org/1999/xlink" version="1.1" data-diagram-type="ACTIVITY" style="width:2524px;height:865px;background:#FFFFFF;" width="2524px" height="865px" viewBox="0 0 2524 865" zoomAndPan="magnify" preserveAspectRatio="none" contentStyleType="text/css"><?plantuml 1.2026.7beta8?><defs/><g font-family="sans-serif" lengthAdjust="spacing"><g class="title" data-source-line="1"><text x="1135.616" y="32.995" fill="#000" font-size="14" textLength="251.651" font-weight="700">Monitoring, Revenue, and Audit</text></g><rect x="20" y="55.042" width="2477.884" height="20.953" fill="none" style="stroke:none;"/><ellipse cx="141.495" cy="90.995" rx="10" ry="10" fill="#222" style="stroke:#222;stroke-width:1;"/><rect x="26" y="120.995" width="230.99" height="33.969" fill="#F7F7F7" style="stroke:#454545;stroke-width:0.5;" rx="12.5" ry="12.5"/><text x="36" y="142.134" fill="#000" font-size="12" textLength="210.99">Open operational or reporting view</text><rect x="30.661" y="768.624" width="221.668" height="33.969" fill="#C8E6C9" style="stroke:#454545;stroke-width:0.5;" rx="12.5" ry="12.5"/><text x="40.661" y="789.763" fill="#000" font-size="12" textLength="201.668">Operational information available</text><ellipse cx="141.495" cy="833.593" rx="11" ry="11" fill="none" style="stroke:#222;stroke-width:1;"/><ellipse cx="141.495" cy="833.593" rx="6" ry="6" fill="#222" style="stroke:#222;stroke-width:1;"/><line x1="20" y1="55.042" x2="20" y2="844.593" style="stroke:#000;stroke-width:1.5;"/><rect x="266.99" y="174.964" width="223.08" height="33.969" fill="#F7F7F7" style="stroke:#454545;stroke-width:0.5;" rx="12.5" ry="12.5"/><text x="276.99" y="196.103" fill="#000" font-size="12" textLength="203.08">Submit filters and requested view</text><rect x="327.4" y="592.749" width="102.26" height="33.969" fill="#F7F7F7" style="stroke:#454545;stroke-width:0.5;" rx="12.5" ry="12.5"/><text x="337.4" y="613.888" fill="#000" font-size="12" textLength="82.26">Display result</text><line x1="260.99" y1="55.042" x2="260.99" y2="844.593" style="stroke:#000;stroke-width:1.5;"/><polygon points="595.529,228.933,674.613,228.933,686.613,240.933,674.613,252.933,595.529,252.933,583.529,240.933,595.529,228.933" fill="#FFF2CC" style="stroke:#454545;stroke-width:0.5;stroke-linejoin:miter;stroke-miterlimit:10;"/><text x="639.071" y="263.143" fill="#000" font-size="11" textLength="96.261">Active operations</text><text x="595.529" y="244.741" fill="#000" font-size="11" textLength="79.084">Request type?</text><rect x="500.07" y="368.675" width="270.002" height="33.969" fill="#F7F7F7" style="stroke:#454545;stroke-width:0.5;" rx="12.5" ry="12.5"/><text x="510.07" y="389.813" fill="#000" font-size="12" textLength="250.002">Return actor-appropriate monitoring data</text><polygon points="861.094,228.933,909.492,228.933,921.492,240.933,909.492,252.933,861.094,252.933,849.094,240.933,861.094,228.933" fill="#FFF2CC" style="stroke:#454545;stroke-width:0.5;stroke-linejoin:miter;stroke-miterlimit:10;"/><text x="861.094" y="244.741" fill="#000" font-size="11" textLength="48.399">Revenue</text><text x="921.492" y="238.338" fill="#000" font-size="11" textLength="49.113">Audit log</text><rect x="780.072" y="504.812" width="210.441" height="47.938" fill="#F7F7F7" style="stroke:#454545;stroke-width:0.5;" rx="12.5" ry="12.5"/><text x="790.072" y="525.95" fill="#000" font-size="12" textLength="190.441">Return dynamic revenue totals;</text><text x="790.072" y="539.919" fill="#000" font-size="12" textLength="136.195">TotalSubscriptions = 0</text><rect x="1018.873" y="339.37" width="130.625" height="33.969" fill="#FFCDD2" style="stroke:#454545;stroke-width:0.5;" rx="12.5" ry="12.5"/><text x="1028.873" y="360.509" fill="#000" font-size="12" textLength="110.625">Reject audit query</text><ellipse cx="1084.186" cy="419.339" rx="11" ry="11" fill="none" style="stroke:#222;stroke-width:1;"/><ellipse cx="1084.186" cy="419.339" rx="6" ry="6" fill="#222" style="stroke:#222;stroke-width:1;"/><polygon points="1012.514,290.968,1155.857,290.968,1167.857,302.968,1155.857,314.968,1012.514,314.968,1000.514,302.968,1012.514,290.968" fill="#FFF2CC" style="stroke:#454545;stroke-width:0.5;stroke-linejoin:miter;stroke-miterlimit:10;"/><text x="1088.186" y="325.178" fill="#000" font-size="11" textLength="14.958">No</text><text x="1012.514" y="306.776" fill="#000" font-size="11" textLength="143.344">Authorized administrator?</text><line x1="494.07" y1="55.042" x2="494.07" y2="844.593" style="stroke:#000;stroke-width:1.5;"/><rect x="1188.857" y="285.737" width="230.955" height="47.938" fill="#F7F7F7" style="stroke:#454545;stroke-width:0.5;" rx="12.5" ry="12.5"/><text x="1198.857" y="306.876" fill="#000" font-size="12" textLength="210.955">Query active sessions, slots, cards,</text><text x="1198.857" y="320.845" fill="#000" font-size="12" textLength="142.512">bookings, and incidents</text><rect x="1429.813" y="714.655" width="259.543" height="33.969" fill="#F7F7F7" style="stroke:#454545;stroke-width:0.5;" rx="12.5" ry="12.5"/><text x="1439.813" y="735.794" fill="#000" font-size="12" textLength="239.543">Record/log actionable warning outcome</text><line x1="1182.857" y1="55.042" x2="1182.857" y2="844.593" style="stroke:#000;stroke-width:1.5;"/><rect x="1757.245" y="272.933" width="181.777" height="33.969" fill="#F7F7F7" style="stroke:#454545;stroke-width:0.5;" rx="12.5" ry="12.5"/><text x="1767.245" y="294.071" fill="#000" font-size="12" textLength="161.777">Select PAID payments only</text><rect x="1740.871" y="341.901" width="214.525" height="47.938" fill="#F7F7F7" style="stroke:#454545;stroke-width:0.5;" rx="12.5" ry="12.5"/><text x="1750.871" y="363.04" fill="#000" font-size="12" textLength="194.525">Resolve source through Booking</text><text x="1750.871" y="377.009" fill="#000" font-size="12" textLength="106.904">or ParkingSession</text><rect x="1719.355" y="424.839" width="257.557" height="47.938" fill="#F7F7F7" style="stroke:#454545;stroke-width:0.5;" rx="12.5" ry="12.5"/><text x="1729.355" y="445.978" fill="#000" font-size="12" textLength="204.832">Group by UTC+7 day/month/year,</text><text x="1729.355" y="459.946" fill="#000" font-size="12" textLength="237.557">building, and vehicle type as requested</text><line x1="1704.355" y1="55.042" x2="1704.355" y2="844.593" style="stroke:#000;stroke-width:1.5;"/><rect x="2006.912" y="492.776" width="220.25" height="47.938" fill="#F7F7F7" style="stroke:#454545;stroke-width:0.5;" rx="12.5" ry="12.5"/><text x="2016.912" y="513.915" fill="#000" font-size="12" textLength="200.25">Query available AuditLog records</text><text x="2016.912" y="527.884" fill="#000" font-size="12" textLength="196.236">with supported filters/pagination</text><line x1="1991.912" y1="55.042" x2="1991.912" y2="844.593" style="stroke:#000;stroke-width:1.5;"/><rect x="2237.162" y="646.718" width="254.861" height="47.938" fill="#F7F7F7" style="stroke:#454545;stroke-width:0.5;" rx="12.5" ry="12.5"/><text x="2247.162" y="667.856" fill="#000" font-size="12" textLength="234.861">Every minute, evaluate active sessions</text><text x="2247.162" y="681.825" fill="#000" font-size="12" textLength="191.813">for overtime warning conditions</text><line x1="2231.162" y1="55.042" x2="2231.162" y2="844.593" style="stroke:#000;stroke-width:1.5;"/><line x1="2496.023" y1="55.042" x2="2496.023" y2="844.593" style="stroke:#000;stroke-width:1.5;"/><line x1="141.495" y1="100.995" x2="141.495" y2="120.995" style="stroke:#181818;stroke-width:1;"/><polygon points="137.495,110.995,141.495,120.995,145.495,110.995,141.495,114.995" fill="#181818" style="stroke:#181818;stroke-width:1;stroke-linejoin:miter;stroke-miterlimit:10;"/><line x1="141.495" y1="802.593" x2="141.495" y2="822.593" style="stroke:#181818;stroke-width:1;"/><polygon points="137.495,812.593,141.495,822.593,145.495,812.593,141.495,816.593" fill="#181818" style="stroke:#181818;stroke-width:1;stroke-linejoin:miter;stroke-miterlimit:10;"/><line x1="1084.186" y1="373.339" x2="1084.186" y2="408.339" style="stroke:#181818;stroke-width:1;"/><polygon points="1080.186,398.339,1084.186,408.339,1088.186,398.339,1084.186,402.339" fill="#181818" style="stroke:#181818;stroke-width:1;stroke-linejoin:miter;stroke-miterlimit:10;"/><line x1="1084.186" y1="314.968" x2="1084.186" y2="339.37" style="stroke:#181818;stroke-width:1;"/><polygon points="1080.186,329.37,1084.186,339.37,1088.186,329.37,1084.186,333.37" fill="#181818" style="stroke:#181818;stroke-width:1;stroke-linejoin:miter;stroke-miterlimit:10;"/><line x1="1167.857" y1="302.968" x2="2117.037" y2="302.968" style="stroke:#181818;stroke-width:1;"/><polygon points="2113.037,389.354,2117.037,399.354,2121.037,389.354,2117.037,393.354" fill="#181818" style="stroke:#181818;stroke-width:1;stroke-linejoin:miter;stroke-miterlimit:10;"/><line x1="2117.037" y1="302.968" x2="2117.037" y2="492.776" style="stroke:#181818;stroke-width:1;"/><polygon points="2113.037,482.776,2117.037,492.776,2121.037,482.776,2117.037,486.776" fill="#181818" style="stroke:#181818;stroke-width:1;stroke-linejoin:miter;stroke-miterlimit:10;"/><line x1="635.071" y1="402.644" x2="635.071" y2="572.749" style="stroke:#181818;stroke-width:1;"/><polygon points="631.071,562.749,635.071,572.749,639.071,562.749,635.071,566.749" fill="#181818" style="stroke:#181818;stroke-width:1;stroke-linejoin:miter;stroke-miterlimit:10;"/><line x1="885.293" y1="552.749" x2="885.293" y2="572.749" style="stroke:#181818;stroke-width:1;"/><polygon points="881.293,562.749,885.293,572.749,889.293,562.749,885.293,566.749" fill="#181818" style="stroke:#181818;stroke-width:1;stroke-linejoin:miter;stroke-miterlimit:10;"/><line x1="686.613" y1="240.933" x2="849.094" y2="240.933" style="stroke:#181818;stroke-width:1;"/><polygon points="839.094,236.933,849.094,240.933,839.094,244.933,843.094,240.933" fill="#181818" style="stroke:#181818;stroke-width:1;stroke-linejoin:miter;stroke-miterlimit:10;"/><line x1="378.53" y1="208.933" x2="378.53" y2="213.933" style="stroke:#181818;stroke-width:1;"/><line x1="378.53" y1="213.933" x2="635.071" y2="213.933" style="stroke:#181818;stroke-width:1;"/><line x1="635.071" y1="213.933" x2="635.071" y2="228.933" style="stroke:#181818;stroke-width:1;"/><polygon points="631.071,218.933,635.071,228.933,639.071,218.933,635.071,222.933" fill="#181818" style="stroke:#181818;stroke-width:1;stroke-linejoin:miter;stroke-miterlimit:10;"/><line x1="921.492" y1="240.933" x2="1084.186" y2="240.933" style="stroke:#181818;stroke-width:1;"/><line x1="1084.186" y1="240.933" x2="1084.186" y2="290.968" style="stroke:#181818;stroke-width:1;"/><polygon points="1080.186,280.968,1084.186,290.968,1088.186,280.968,1084.186,284.968" fill="#181818" style="stroke:#181818;stroke-width:1;stroke-linejoin:miter;stroke-miterlimit:10;"/><line x1="635.071" y1="572.749" x2="1178.311" y2="572.749" style="stroke:#181818;stroke-width:1;"/><line x1="1172.857" y1="572.749" x2="1714.355" y2="572.749" style="stroke:#181818;stroke-width:1;"/><line x1="1848.134" y1="306.901" x2="1848.134" y2="341.901" style="stroke:#181818;stroke-width:1;"/><polygon points="1844.134,331.901,1848.134,341.901,1852.134,331.901,1848.134,335.901" fill="#181818" style="stroke:#181818;stroke-width:1;stroke-linejoin:miter;stroke-miterlimit:10;"/><line x1="1848.134" y1="389.839" x2="1848.134" y2="424.839" style="stroke:#181818;stroke-width:1;"/><polygon points="1844.134,414.839,1848.134,424.839,1852.134,414.839,1848.134,418.839" fill="#181818" style="stroke:#181818;stroke-width:1;stroke-linejoin:miter;stroke-miterlimit:10;"/><line x1="1694.355" y1="572.749" x2="2001.912" y2="572.749" style="stroke:#181818;stroke-width:1;"/><line x1="2117.037" y1="540.714" x2="2117.037" y2="572.749" style="stroke:#181818;stroke-width:1;"/><polygon points="2113.037,562.749,2117.037,572.749,2121.037,562.749,2117.037,566.749" fill="#181818" style="stroke:#181818;stroke-width:1;stroke-linejoin:miter;stroke-miterlimit:10;"/><line x1="1981.912" y1="572.749" x2="2117.037" y2="572.749" style="stroke:#181818;stroke-width:1;"/><line x1="141.495" y1="154.964" x2="141.495" y2="159.964" style="stroke:#181818;stroke-width:1;"/><line x1="141.495" y1="159.964" x2="378.53" y2="159.964" style="stroke:#181818;stroke-width:1;"/><line x1="378.53" y1="159.964" x2="378.53" y2="174.964" style="stroke:#181818;stroke-width:1;"/><polygon points="374.53,164.964,378.53,174.964,382.53,164.964,378.53,168.964" fill="#181818" style="stroke:#181818;stroke-width:1;stroke-linejoin:miter;stroke-miterlimit:10;"/><line x1="1304.335" y1="333.675" x2="1304.335" y2="351.175" style="stroke:#181818;stroke-width:1;"/><line x1="1304.335" y1="351.175" x2="635.071" y2="351.175" style="stroke:#181818;stroke-width:1;"/><line x1="635.071" y1="351.175" x2="635.071" y2="368.675" style="stroke:#181818;stroke-width:1;"/><polygon points="631.071,358.675,635.071,368.675,639.071,358.675,635.071,362.675" fill="#181818" style="stroke:#181818;stroke-width:1;stroke-linejoin:miter;stroke-miterlimit:10;"/><line x1="1848.134" y1="472.776" x2="1848.134" y2="487.312" style="stroke:#181818;stroke-width:1;"/><line x1="1848.134" y1="487.312" x2="885.293" y2="487.312" style="stroke:#181818;stroke-width:1;"/><line x1="885.293" y1="487.312" x2="885.293" y2="504.812" style="stroke:#181818;stroke-width:1;"/><polygon points="881.293,494.812,885.293,504.812,889.293,494.812,885.293,498.812" fill="#181818" style="stroke:#181818;stroke-width:1;stroke-linejoin:miter;stroke-miterlimit:10;"/><line x1="635.071" y1="252.933" x2="635.071" y2="256.933" style="stroke:#181818;stroke-width:1;"/><line x1="635.071" y1="256.933" x2="1304.335" y2="256.933" style="stroke:#181818;stroke-width:1;"/><line x1="1304.335" y1="256.933" x2="1304.335" y2="285.737" style="stroke:#181818;stroke-width:1;"/><polygon points="1300.335,275.737,1304.335,285.737,1308.335,275.737,1304.335,279.737" fill="#181818" style="stroke:#181818;stroke-width:1;stroke-linejoin:miter;stroke-miterlimit:10;"/><line x1="885.293" y1="252.933" x2="885.293" y2="256.933" style="stroke:#181818;stroke-width:1;"/><line x1="885.293" y1="256.933" x2="1848.134" y2="256.933" style="stroke:#181818;stroke-width:1;"/><line x1="1848.134" y1="256.933" x2="1848.134" y2="272.933" style="stroke:#181818;stroke-width:1;"/><polygon points="1844.134,262.933,1848.134,272.933,1852.134,262.933,1848.134,266.933" fill="#181818" style="stroke:#181818;stroke-width:1;stroke-linejoin:miter;stroke-miterlimit:10;"/><line x1="860.417" y1="572.749" x2="860.417" y2="577.749" style="stroke:#181818;stroke-width:1;"/><line x1="860.417" y1="577.749" x2="378.53" y2="577.749" style="stroke:#181818;stroke-width:1;"/><line x1="378.53" y1="577.749" x2="378.53" y2="592.749" style="stroke:#181818;stroke-width:1;"/><polygon points="374.53,582.749,378.53,592.749,382.53,582.749,378.53,586.749" fill="#181818" style="stroke:#181818;stroke-width:1;stroke-linejoin:miter;stroke-miterlimit:10;"/><line x1="378.53" y1="626.718" x2="378.53" y2="631.718" style="stroke:#181818;stroke-width:1;"/><line x1="378.53" y1="631.718" x2="2364.593" y2="631.718" style="stroke:#181818;stroke-width:1;"/><line x1="2364.593" y1="631.718" x2="2364.593" y2="646.718" style="stroke:#181818;stroke-width:1;"/><polygon points="2360.593,636.718,2364.593,646.718,2368.593,636.718,2364.593,640.718" fill="#181818" style="stroke:#181818;stroke-width:1;stroke-linejoin:miter;stroke-miterlimit:10;"/><line x1="2364.593" y1="694.655" x2="2364.593" y2="699.655" style="stroke:#181818;stroke-width:1;"/><line x1="2364.593" y1="699.655" x2="1559.584" y2="699.655" style="stroke:#181818;stroke-width:1;"/><line x1="1559.584" y1="699.655" x2="1559.584" y2="714.655" style="stroke:#181818;stroke-width:1;"/><polygon points="1555.584,704.655,1559.584,714.655,1563.584,704.655,1559.584,708.655" fill="#181818" style="stroke:#181818;stroke-width:1;stroke-linejoin:miter;stroke-miterlimit:10;"/><line x1="1559.584" y1="748.624" x2="1559.584" y2="753.624" style="stroke:#181818;stroke-width:1;"/><line x1="1559.584" y1="753.624" x2="141.495" y2="753.624" style="stroke:#181818;stroke-width:1;"/><line x1="141.495" y1="753.624" x2="141.495" y2="768.624" style="stroke:#181818;stroke-width:1;"/><polygon points="137.495,758.624,141.495,768.624,145.495,758.624,141.495,762.624" fill="#181818" style="stroke:#181818;stroke-width:1;stroke-linejoin:miter;stroke-miterlimit:10;"/><text x="27.6" y="71.75" fill="#000" font-size="18" textLength="225.791">Staff, Manager, or Admin</text><text x="345.279" y="71.75" fill="#000" font-size="18" textLength="64.503">Web UI</text><text x="796.285" y="71.75" fill="#000" font-size="18" textLength="84.357">PBMS API</text><text x="1366.452" y="71.75" fill="#000" font-size="18" textLength="154.31">Operational Data</text><text x="1783.978" y="71.75" fill="#000" font-size="18" textLength="128.312">Payment Data</text><text x="2063.584" y="71.75" fill="#000" font-size="18" textLength="95.906">Audit Data</text><text x="2245.6" y="71.75" fill="#000" font-size="18" textLength="235.986">Overtime Warning Worker</text><?plantuml-src VLDVJzim47_FfpXfBw1rweIsiJMCgRGm8OtHKH0lVRacrzGZiODz2ShMVVVTEK0HQ5CUwlhEvzy_i-6IuCnPmyuRMmpWWbgo3Gq0RGxZ9ZUSX1jZQ_HOGLXZxkwa3rPO1dfImOnDQxY3tmd04MOtXNUDpIUkT1vUdUphfnNdS_Btk-_UwoUxKuELi_dBOoSdUvD9yYT9DdF6rMe0PsYn83y0AO_pojXD4XWz9wFpcYoucZooSHPBxV1KEyyAjpLqboQRQrh2rUac6SsRPMKOLgPayY5ozNJRK63A7vfdHsTp6C-atQnWvw8l0tSrVTa5NijrEsDbJTjhmwwmsPm_GJ55neriZduqvBjU9e908MZx04BfM7uoz7aOBEpIEP6q2BtyncOc9yiXrR5RF3BkWhZnLkSv_mRhshlQ6sI2wj5BoENkD24ngYSGZOq8PzXLCdUBRaubPGopyUaKwhuOmDcoI_lBWYiLjcjyHi9TJ2hMOcO4kx0YzGozhkSziNZggtJLiEpWwdBoUb_GT4C1n-jXH-YLQsFAF6PEkRQqDfbaKVK535ix_iazxonM9fFEI0pOiOGoNTXBNOZ38VEcZhR0PtZRAo6UQQQXT8KgeSAC6rwBOB_4UTH8cS1Yd_EFBdztsXel_gagOPnmguQcS70WCPrCftk7Xx4fiAjbGJOtAqNUN_Sy1YsQ4fT2DvQ_kK9OPF8smiBU6Lv3Q6gDha2wZ-YmniBOc2eX4eTlqpmreIwnancXAJcLvtBUaWI_8hX6RpKBryxVa9VUurO12Cs6vP5JYsMZiNaMp8LTYQdkOShT_PHCNgc9YihxU1bp4KX934NSE51Aol7Xj6iuSnMb_tlDewTJZQAeuh-jP57ooSVZ3vDF8hdA_HS0?></g></svg>