<svg xmlns="http://www.w3.org/2000/svg" xmlns:xlink="http://www.w3.org/1999/xlink" version="1.1" data-diagram-type="ACTIVITY" style="width:3228px;height:1582px;background:#FFFFFF;" width="3228px" height="1582px" viewBox="0 0 3228 1582" zoomAndPan="magnify" preserveAspectRatio="none" contentStyleType="text/css"><?plantuml 1.2026.7beta8?><defs/><g font-family="sans-serif" lengthAdjust="spacing"><g class="title" data-source-line="1"><text x="1486.067" y="32.995" fill="#000" font-size="14" textLength="253.969" font-weight="700">Registration and Authentication</text></g><rect x="20" y="55.042" width="3181.103" height="20.953" fill="none" style="stroke:none;"/><ellipse cx="719.801" cy="90.995" rx="10" ry="10" fill="#2E7D32" style="stroke:#222;stroke-width:1;"/><rect x="604.095" y="120.995" width="231.412" height="33.969" fill="#F7F7F7" style="stroke:#454545;stroke-width:0.5;" rx="12.5" ry="12.5"/><text x="614.095" y="142.134" fill="#000" font-size="12" textLength="211.412">Choose password or Google sign-in</text><polygon points="662.255,174.964,777.347,174.964,789.347,186.964,777.347,198.964,662.255,198.964,650.255,186.964,662.255,174.964" fill="#FFF2CC" style="stroke:#8A6D1D;stroke-width:0.5;stroke-linejoin:miter;stroke-miterlimit:10;"/><text x="662.255" y="190.772" fill="#000" font-size="11" textLength="115.092">Authentication path?</text><text x="530.985" y="184.37" fill="#000" font-size="11" textLength="119.271">Password registration</text><text x="789.347" y="184.37" fill="#000" font-size="11" textLength="38.79">Google</text><rect x="273.348" y="218.964" width="89.117" height="33.969" fill="#F7F7F7" style="stroke:#454545;stroke-width:0.5;" rx="12.5" ry="12.5"/><text x="283.348" y="240.103" fill="#000" font-size="12" textLength="69.117">Enter email</text><rect x="26" y="454.87" width="237.348" height="33.969" fill="#FFCDD2" style="stroke:#454545;stroke-width:0.5;" rx="12.5" ry="12.5"/><text x="36" y="476.009" fill="#000" font-size="12" textLength="217.348">Wait until 60-second cooldown ends</text><ellipse cx="144.674" cy="534.839" rx="11" ry="11" fill="none" style="stroke:#222;stroke-width:1;"/><ellipse cx="144.674" cy="534.839" rx="6" ry="6" fill="#222" style="stroke:#222;stroke-width:1;"/><rect x="481.854" y="385.901" width="155.311" height="33.969" fill="#F7F7F7" style="stroke:#454545;stroke-width:0.5;" rx="12.5" ry="12.5"/><text x="491.854" y="407.04" fill="#000" font-size="12" textLength="135.311">Generate six-digit OTP</text><rect x="455.275" y="454.87" width="208.467" height="33.969" fill="#F7F7F7" style="stroke:#454545;stroke-width:0.5;" rx="12.5" ry="12.5"/><text x="465.275" y="476.009" fill="#000" font-size="12" textLength="188.467">Store OTP with 5-minute expiry</text><rect x="514.312" y="577.808" width="90.395" height="33.969" fill="#F7F7F7" style="stroke:#454545;stroke-width:0.5;" rx="12.5" ry="12.5"/><text x="524.312" y="598.946" fill="#000" font-size="12" textLength="70.395">Submit OTP</text><rect x="372.465" y="917.827" width="180.564" height="33.969" fill="#FFCDD2" style="stroke:#454545;stroke-width:0.5;" rx="12.5" ry="12.5"/><text x="382.465" y="938.965" fill="#000" font-size="12" textLength="160.564">Receive verification failure</text><ellipse cx="462.747" cy="997.795" rx="11" ry="11" fill="none" style="stroke:#222;stroke-width:1;"/><ellipse cx="462.747" cy="997.795" rx="6" ry="6" fill="#222" style="stroke:#222;stroke-width:1;"/><rect x="718.907" y="698.518" width="162.143" height="47.938" fill="#F7F7F7" style="stroke:#454545;stroke-width:0.5;" rx="12.5" ry="12.5"/><text x="728.907" y="719.657" fill="#000" font-size="12" textLength="142.143">Issue registration token</text><text x="728.907" y="733.625" fill="#000" font-size="12" textLength="120.527">valid for 10 minutes</text><rect x="713.39" y="781.456" width="173.176" height="47.938" fill="#F7F7F7" style="stroke:#454545;stroke-width:0.5;" rx="12.5" ry="12.5"/><text x="723.39" y="802.594" fill="#000" font-size="12" textLength="153.176">Submit profile, password,</text><text x="723.39" y="816.563" fill="#000" font-size="12" textLength="133.688">and registration token</text><rect x="896.566" y="404.272" width="254.176" height="33.969" fill="#F7F7F7" style="stroke:#454545;stroke-width:0.5;" rx="12.5" ry="12.5"/><text x="906.566" y="425.411" fill="#000" font-size="12" textLength="234.176">Complete email verification and profile</text><polygon points="719.801,1018.795,731.801,1030.795,719.801,1042.795,707.801,1030.795,719.801,1018.795" fill="#FFF2CC" style="stroke:#8A6D1D;stroke-width:0.5;stroke-linejoin:miter;stroke-miterlimit:10;"/><rect x="594.878" y="1062.795" width="249.846" height="33.969" fill="#F7F7F7" style="stroke:#454545;stroke-width:0.5;" rx="12.5" ry="12.5"/><text x="604.878" y="1083.934" fill="#000" font-size="12" textLength="229.846">Submit password or Google credential</text><line x1="20" y1="55.042" x2="20" y2="1561.01" style="stroke:#000;stroke-width:1.5;"/><rect x="1160.742" y="272.933" width="170.422" height="33.969" fill="#F7F7F7" style="stroke:#454545;stroke-width:0.5;" rx="12.5" ry="12.5"/><text x="1170.742" y="294.071" fill="#000" font-size="12" textLength="150.422">Request registration OTP</text><rect x="1364.979" y="1214.733" width="187.982" height="33.969" fill="#F7F7F7" style="stroke:#454545;stroke-width:0.5;" rx="12.5" ry="12.5"/><text x="1374.979" y="1235.872" fill="#000" font-size="12" textLength="167.982">Store authenticated session</text><rect x="1341.164" y="1268.702" width="235.613" height="33.969" fill="#F7F7F7" style="stroke:#454545;stroke-width:0.5;" rx="12.5" ry="12.5"/><text x="1351.164" y="1289.84" fill="#000" font-size="12" textLength="215.613">Attach Bearer token to API requests</text><rect x="1349.39" y="1371.073" width="219.16" height="33.969" fill="#F7F7F7" style="stroke:#454545;stroke-width:0.5;" rx="12.5" ry="12.5"/><text x="1359.39" y="1392.211" fill="#000" font-size="12" textLength="199.16">Clear local authenticated session</text><polygon points="1377.195,1322.67,1540.745,1322.67,1552.745,1334.67,1540.745,1346.67,1377.195,1346.67,1365.195,1334.67,1377.195,1322.67" fill="#FFF2CC" style="stroke:#8A6D1D;stroke-width:0.5;stroke-linejoin:miter;stroke-miterlimit:10;"/><text x="1462.97" y="1356.881" fill="#000" font-size="11" textLength="19.218">Yes</text><text x="1377.195" y="1338.479" fill="#000" font-size="11" textLength="163.55">An API response is HTTP 401?</text><polygon points="1458.97,1425.042,1470.97,1437.042,1458.97,1449.042,1446.97,1437.042,1458.97,1425.042" fill="#FFF2CC" style="stroke:#8A6D1D;stroke-width:0.5;stroke-linejoin:miter;stroke-miterlimit:10;"/><rect x="1353.459" y="1469.042" width="211.021" height="33.969" fill="#C8E6C9" style="stroke:#454545;stroke-width:0.5;" rx="12.5" ry="12.5"/><text x="1363.459" y="1490.18" fill="#000" font-size="12" textLength="191.021">Authenticated session available</text><ellipse cx="1458.97" cy="1534.01" rx="11" ry="11" fill="none" style="stroke:#222;stroke-width:1;"/><ellipse cx="1458.97" cy="1534.01" rx="6" ry="6" fill="#222" style="stroke:#222;stroke-width:1;"/><line x1="1154.742" y1="55.042" x2="1154.742" y2="1561.01" style="stroke:#000;stroke-width:1.5;"/><polygon points="1844.985,341.901,1993.952,341.901,2005.952,353.901,1993.952,365.901,1844.985,365.901,1832.985,353.901,1844.985,341.901" fill="#FFF2CC" style="stroke:#8A6D1D;stroke-width:0.5;stroke-linejoin:miter;stroke-miterlimit:10;"/><text x="1844.985" y="357.709" fill="#000" font-size="11" textLength="148.967">Resend cooldown elapsed?</text><text x="1818.027" y="351.307" fill="#000" font-size="11" textLength="14.958">No</text><text x="2005.952" y="351.307" fill="#000" font-size="11" textLength="19.218">Yes</text><rect x="1603.55" y="385.901" width="152.422" height="33.969" fill="#F7F7F7" style="stroke:#454545;stroke-width:0.5;" rx="12.5" ry="12.5"/><text x="1613.55" y="407.04" fill="#000" font-size="12" textLength="132.422">Reject resend request</text><polygon points="1818.845,631.776,1926.793,631.776,1938.793,643.776,1926.793,655.776,1818.845,655.776,1806.845,643.776,1818.845,631.776" fill="#FFF2CC" style="stroke:#8A6D1D;stroke-width:0.5;stroke-linejoin:miter;stroke-miterlimit:10;"/><text x="1876.819" y="665.987" fill="#000" font-size="11" textLength="19.218">Yes</text><text x="1818.845" y="647.584" fill="#000" font-size="11" textLength="107.948">Verification locked?</text><rect x="1765.972" y="687.487" width="213.693" height="33.969" fill="#FFCDD2" style="stroke:#454545;stroke-width:0.5;" rx="12.5" ry="12.5"/><text x="1775.972" y="708.625" fill="#000" font-size="12" textLength="193.693">Reject during 15-minute lockout</text><ellipse cx="1872.819" cy="767.456" rx="11" ry="11" fill="none" style="stroke:#222;stroke-width:1;"/><ellipse cx="1872.819" cy="767.456" rx="6" ry="6" fill="#222" style="stroke:#222;stroke-width:1;"/><polygon points="2040.638,631.776,2189.117,631.776,2201.117,643.776,2189.117,655.776,2040.638,655.776,2028.638,643.776,2040.638,631.776" fill="#FFF2CC" style="stroke:#8A6D1D;stroke-width:0.5;stroke-linejoin:miter;stroke-miterlimit:10;"/><text x="2118.877" y="665.987" fill="#000" font-size="11" textLength="14.958">No</text><text x="2040.638" y="647.584" fill="#000" font-size="11" textLength="148.479">OTP valid and not expired?</text><text x="2201.117" y="641.182" fill="#000" font-size="11" textLength="19.218">Yes</text><rect x="2026.514" y="687.487" width="176.727" height="33.969" fill="#F7F7F7" style="stroke:#454545;stroke-width:0.5;" rx="12.5" ry="12.5"/><text x="2036.514" y="708.625" fill="#000" font-size="12" textLength="156.727">Increment failed attempts</text><rect x="2009.666" y="804.858" width="210.424" height="33.969" fill="#F7F7F7" style="stroke:#454545;stroke-width:0.5;" rx="12.5" ry="12.5"/><text x="2019.666" y="825.997" fill="#000" font-size="12" textLength="190.424">Lock verification for 15 minutes</text><polygon points="2056.956,756.456,2172.799,756.456,2184.799,768.456,2172.799,780.456,2056.956,780.456,2044.956,768.456,2056.956,756.456" fill="#FFF2CC" style="stroke:#8A6D1D;stroke-width:0.5;stroke-linejoin:miter;stroke-miterlimit:10;"/><text x="2118.877" y="790.666" fill="#000" font-size="11" textLength="19.218">Yes</text><text x="2056.956" y="772.264" fill="#000" font-size="11" textLength="115.844">Five failed attempts?</text><polygon points="2114.877,858.827,2126.877,870.827,2114.877,882.827,2102.877,870.827,2114.877,858.827" fill="#FFF2CC" style="stroke:#8A6D1D;stroke-width:0.5;stroke-linejoin:miter;stroke-miterlimit:10;"/><polygon points="2386.151,859.991,2518.065,859.991,2530.065,871.991,2518.065,883.991,2386.151,883.991,2374.151,871.991,2386.151,859.991" fill="#FFF2CC" style="stroke:#8A6D1D;stroke-width:0.5;stroke-linejoin:miter;stroke-miterlimit:10;"/><text x="2386.151" y="875.799" fill="#000" font-size="11" textLength="131.914">Token and profile valid?</text><text x="2359.193" y="869.396" fill="#000" font-size="11" textLength="14.958">No</text><text x="2530.065" y="869.396" fill="#000" font-size="11" textLength="19.218">Yes</text><rect x="2272.089" y="893.991" width="162.43" height="33.969" fill="#FFCDD2" style="stroke:#454545;stroke-width:0.5;" rx="12.5" ry="12.5"/><text x="2282.089" y="915.129" fill="#000" font-size="12" textLength="142.43">Reject account creation</text><ellipse cx="2353.304" cy="973.959" rx="11" ry="11" fill="none" style="stroke:#222;stroke-width:1;"/><ellipse cx="2353.304" cy="973.959" rx="6" ry="6" fill="#222" style="stroke:#222;stroke-width:1;"/><rect x="2454.519" y="893.991" width="192.787" height="33.969" fill="#F7F7F7" style="stroke:#454545;stroke-width:0.5;" rx="12.5" ry="12.5"/><text x="2464.519" y="915.129" fill="#000" font-size="12" textLength="172.787">Create active Driver account</text><rect x="2657.306" y="321.335" width="196.473" height="47.938" fill="#F7F7F7" style="stroke:#454545;stroke-width:0.5;" rx="12.5" ry="12.5"/><text x="2667.306" y="342.474" fill="#000" font-size="12" textLength="176.473">Require verified new-account</text><text x="2667.306" y="356.442" fill="#000" font-size="12" textLength="100.594">registration path</text><rect x="2659.149" y="473.241" width="192.787" height="33.969" fill="#F7F7F7" style="stroke:#454545;stroke-width:0.5;" rx="12.5" ry="12.5"/><text x="2669.149" y="494.38" fill="#000" font-size="12" textLength="172.787">Create active Driver account</text><polygon points="2688.828,272.933,2822.257,272.933,2834.257,284.933,2822.257,296.933,2688.828,296.933,2676.828,284.933,2688.828,272.933" fill="#FFF2CC" style="stroke:#8A6D1D;stroke-width:0.5;stroke-linejoin:miter;stroke-miterlimit:10;"/><text x="2759.542" y="307.143" fill="#000" font-size="11" textLength="14.958">No</text><text x="2688.828" y="288.741" fill="#000" font-size="11" textLength="133.429">Existing linked account?</text><polygon points="2755.542,531.612,2767.542,543.612,2755.542,555.612,2743.542,543.612,2755.542,531.612" fill="#FFF2CC" style="stroke:#8A6D1D;stroke-width:0.5;stroke-linejoin:miter;stroke-miterlimit:10;"/><polygon points="2267.829,1116.764,2476.034,1116.764,2488.034,1128.764,2476.034,1140.764,2267.829,1140.764,2255.829,1128.764,2267.829,1116.764" fill="#FFF2CC" style="stroke:#8A6D1D;stroke-width:0.5;stroke-linejoin:miter;stroke-miterlimit:10;"/><text x="2267.829" y="1132.572" fill="#000" font-size="11" textLength="208.205">Credentials belong to active account?</text><text x="2240.87" y="1126.17" fill="#000" font-size="11" textLength="14.958">No</text><text x="2488.034" y="1126.17" fill="#000" font-size="11" textLength="19.218">Yes</text><rect x="2200.435" y="1160.764" width="90.787" height="33.969" fill="#FFCDD2" style="stroke:#454545;stroke-width:0.5;" rx="12.5" ry="12.5"/><text x="2210.435" y="1181.903" fill="#000" font-size="12" textLength="70.787">Reject login</text><ellipse cx="2245.829" cy="1225.733" rx="11" ry="11" fill="none" style="stroke:#222;stroke-width:1;"/><ellipse cx="2245.829" cy="1225.733" rx="6" ry="6" fill="#222" style="stroke:#222;stroke-width:1;"/><rect x="2404.816" y="1160.764" width="186.436" height="33.969" fill="#F7F7F7" style="stroke:#454545;stroke-width:0.5;" rx="12.5" ry="12.5"/><text x="2414.816" y="1181.903" fill="#000" font-size="12" textLength="166.436">Issue JWT and account data</text><line x1="1597.55" y1="55.042" x2="1597.55" y2="1561.01" style="stroke:#000;stroke-width:1.5;"/><rect x="2892.779" y="523.839" width="127.443" height="33.969" fill="#F7F7F7" style="stroke:#454545;stroke-width:0.5;" rx="12.5" ry="12.5"/><text x="2902.779" y="544.978" fill="#000" font-size="12" textLength="107.443">Deliver OTP email</text><line x1="2886.779" y1="55.042" x2="2886.779" y2="1561.01" style="stroke:#000;stroke-width:1.5;"/><rect x="3030.222" y="218.964" width="165.02" height="33.969" fill="#F7F7F7" style="stroke:#454545;stroke-width:0.5;" rx="12.5" ry="12.5"/><text x="3040.222" y="240.103" fill="#000" font-size="12" textLength="145.02">Validate Google identity</text><line x1="3024.222" y1="55.042" x2="3024.222" y2="1561.01" style="stroke:#000;stroke-width:1.5;"/><line x1="3199.242" y1="55.042" x2="3199.242" y2="1561.01" style="stroke:#000;stroke-width:1.5;"/><line x1="719.801" y1="100.995" x2="719.801" y2="120.995" style="stroke:#181818;stroke-width:1;"/><polygon points="715.801,110.995,719.801,120.995,723.801,110.995,719.801,114.995" fill="#181818" style="stroke:#181818;stroke-width:1;stroke-linejoin:miter;stroke-miterlimit:10;"/><line x1="144.674" y1="488.839" x2="144.674" y2="523.839" style="stroke:#181818;stroke-width:1;"/><polygon points="140.674,513.839,144.674,523.839,148.674,513.839,144.674,517.839" fill="#181818" style="stroke:#181818;stroke-width:1;stroke-linejoin:miter;stroke-miterlimit:10;"/><line x1="559.509" y1="419.87" x2="559.509" y2="454.87" style="stroke:#181818;stroke-width:1;"/><polygon points="555.509,444.87,559.509,454.87,563.509,444.87,559.509,448.87" fill="#181818" style="stroke:#181818;stroke-width:1;stroke-linejoin:miter;stroke-miterlimit:10;"/><line x1="462.747" y1="951.795" x2="462.747" y2="986.795" style="stroke:#181818;stroke-width:1;"/><polygon points="458.747,976.795,462.747,986.795,466.747,976.795,462.747,980.795" fill="#181818" style="stroke:#181818;stroke-width:1;stroke-linejoin:miter;stroke-miterlimit:10;"/><line x1="799.978" y1="746.456" x2="799.978" y2="781.456" style="stroke:#181818;stroke-width:1;"/><polygon points="795.978,771.456,799.978,781.456,803.978,771.456,799.978,775.456" fill="#181818" style="stroke:#181818;stroke-width:1;stroke-linejoin:miter;stroke-miterlimit:10;"/><line x1="650.255" y1="186.964" x2="317.906" y2="186.964" style="stroke:#181818;stroke-width:1;"/><line x1="317.906" y1="186.964" x2="317.906" y2="218.964" style="stroke:#181818;stroke-width:1;"/><polygon points="313.906,208.964,317.906,218.964,321.906,208.964,317.906,212.964" fill="#181818" style="stroke:#181818;stroke-width:1;stroke-linejoin:miter;stroke-miterlimit:10;"/><line x1="719.801" y1="154.964" x2="719.801" y2="174.964" style="stroke:#181818;stroke-width:1;"/><polygon points="715.801,164.964,719.801,174.964,723.801,164.964,719.801,168.964" fill="#181818" style="stroke:#181818;stroke-width:1;stroke-linejoin:miter;stroke-miterlimit:10;"/><line x1="719.801" y1="1042.795" x2="719.801" y2="1062.795" style="stroke:#181818;stroke-width:1;"/><polygon points="715.801,1052.795,719.801,1062.795,723.801,1052.795,719.801,1056.795" fill="#181818" style="stroke:#181818;stroke-width:1;stroke-linejoin:miter;stroke-miterlimit:10;"/><line x1="1458.97" y1="1248.702" x2="1458.97" y2="1268.702" style="stroke:#181818;stroke-width:1;"/><polygon points="1454.97,1258.702,1458.97,1268.702,1462.97,1258.702,1458.97,1262.702" fill="#181818" style="stroke:#181818;stroke-width:1;stroke-linejoin:miter;stroke-miterlimit:10;"/><line x1="1458.97" y1="1346.67" x2="1458.97" y2="1371.073" style="stroke:#181818;stroke-width:1;"/><polygon points="1454.97,1361.073,1458.97,1371.073,1462.97,1361.073,1458.97,1365.073" fill="#181818" style="stroke:#181818;stroke-width:1;stroke-linejoin:miter;stroke-miterlimit:10;"/><line x1="1552.745" y1="1334.67" x2="1578.55" y2="1334.67" style="stroke:#181818;stroke-width:1;"/><polygon points="1574.55,1378.057,1578.55,1388.057,1582.55,1378.057,1578.55,1382.057" fill="#181818" style="stroke:#181818;stroke-width:1;stroke-linejoin:miter;stroke-miterlimit:10;"/><line x1="1578.55" y1="1334.67" x2="1578.55" y2="1437.042" style="stroke:#181818;stroke-width:1;"/><line x1="1578.55" y1="1437.042" x2="1470.97" y2="1437.042" style="stroke:#181818;stroke-width:1;"/><polygon points="1480.97,1433.042,1470.97,1437.042,1480.97,1441.042,1476.97,1437.042" fill="#181818" style="stroke:#181818;stroke-width:1;stroke-linejoin:miter;stroke-miterlimit:10;"/><line x1="1458.97" y1="1405.042" x2="1458.97" y2="1425.042" style="stroke:#181818;stroke-width:1;"/><polygon points="1454.97,1415.042,1458.97,1425.042,1462.97,1415.042,1458.97,1419.042" fill="#181818" style="stroke:#181818;stroke-width:1;stroke-linejoin:miter;stroke-miterlimit:10;"/><line x1="1458.97" y1="1302.67" x2="1458.97" y2="1322.67" style="stroke:#181818;stroke-width:1;"/><polygon points="1454.97,1312.67,1458.97,1322.67,1462.97,1312.67,1458.97,1316.67" fill="#181818" style="stroke:#181818;stroke-width:1;stroke-linejoin:miter;stroke-miterlimit:10;"/><line x1="1458.97" y1="1449.042" x2="1458.97" y2="1469.042" style="stroke:#181818;stroke-width:1;"/><polygon points="1454.97,1459.042,1458.97,1469.042,1462.97,1459.042,1458.97,1463.042" fill="#181818" style="stroke:#181818;stroke-width:1;stroke-linejoin:miter;stroke-miterlimit:10;"/><line x1="1458.97" y1="1503.01" x2="1458.97" y2="1523.01" style="stroke:#181818;stroke-width:1;"/><polygon points="1454.97,1513.01,1458.97,1523.01,1462.97,1513.01,1458.97,1517.01" fill="#181818" style="stroke:#181818;stroke-width:1;stroke-linejoin:miter;stroke-miterlimit:10;"/><line x1="1872.819" y1="721.456" x2="1872.819" y2="756.456" style="stroke:#181818;stroke-width:1;"/><polygon points="1868.819,746.456,1872.819,756.456,1876.819,746.456,1872.819,750.456" fill="#181818" style="stroke:#181818;stroke-width:1;stroke-linejoin:miter;stroke-miterlimit:10;"/><line x1="2114.877" y1="780.456" x2="2114.877" y2="804.858" style="stroke:#181818;stroke-width:1;"/><polygon points="2110.877,794.858,2114.877,804.858,2118.877,794.858,2114.877,798.858" fill="#181818" style="stroke:#181818;stroke-width:1;stroke-linejoin:miter;stroke-miterlimit:10;"/><line x1="2184.799" y1="768.456" x2="2230.089" y2="768.456" style="stroke:#181818;stroke-width:1;"/><polygon points="2226.089,811.842,2230.089,821.842,2234.089,811.842,2230.089,815.842" fill="#181818" style="stroke:#181818;stroke-width:1;stroke-linejoin:miter;stroke-miterlimit:10;"/><line x1="2230.089" y1="768.456" x2="2230.089" y2="870.827" style="stroke:#181818;stroke-width:1;"/><line x1="2230.089" y1="870.827" x2="2126.877" y2="870.827" style="stroke:#181818;stroke-width:1;"/><polygon points="2136.877,866.827,2126.877,870.827,2136.877,874.827,2132.877,870.827" fill="#181818" style="stroke:#181818;stroke-width:1;stroke-linejoin:miter;stroke-miterlimit:10;"/><line x1="2114.877" y1="838.827" x2="2114.877" y2="858.827" style="stroke:#181818;stroke-width:1;"/><polygon points="2110.877,848.827,2114.877,858.827,2118.877,848.827,2114.877,852.827" fill="#181818" style="stroke:#181818;stroke-width:1;stroke-linejoin:miter;stroke-miterlimit:10;"/><line x1="2114.877" y1="721.456" x2="2114.877" y2="756.456" style="stroke:#181818;stroke-width:1;"/><polygon points="2110.877,746.456,2114.877,756.456,2118.877,746.456,2114.877,750.456" fill="#181818" style="stroke:#181818;stroke-width:1;stroke-linejoin:miter;stroke-miterlimit:10;"/><line x1="2353.304" y1="927.959" x2="2353.304" y2="962.959" style="stroke:#181818;stroke-width:1;"/><polygon points="2349.304,952.959,2353.304,962.959,2357.304,952.959,2353.304,956.959" fill="#181818" style="stroke:#181818;stroke-width:1;stroke-linejoin:miter;stroke-miterlimit:10;"/><line x1="2374.151" y1="871.991" x2="2353.304" y2="871.991" style="stroke:#181818;stroke-width:1;"/><line x1="2353.304" y1="871.991" x2="2353.304" y2="893.991" style="stroke:#181818;stroke-width:1;"/><polygon points="2349.304,883.991,2353.304,893.991,2357.304,883.991,2353.304,887.991" fill="#181818" style="stroke:#181818;stroke-width:1;stroke-linejoin:miter;stroke-miterlimit:10;"/><line x1="2530.065" y1="871.991" x2="2550.913" y2="871.991" style="stroke:#181818;stroke-width:1;"/><line x1="2550.913" y1="871.991" x2="2550.913" y2="893.991" style="stroke:#181818;stroke-width:1;"/><polygon points="2546.913,883.991,2550.913,893.991,2554.913,883.991,2550.913,887.991" fill="#181818" style="stroke:#181818;stroke-width:1;stroke-linejoin:miter;stroke-miterlimit:10;"/><line x1="2550.913" y1="927.959" x2="2550.913" y2="1013.795" style="stroke:#181818;stroke-width:1;"/><line x1="2550.913" y1="1013.795" x2="689.801" y2="1013.795" style="stroke:#181818;stroke-width:1;"/><line x1="689.801" y1="1013.795" x2="689.801" y2="1030.795" style="stroke:#181818;stroke-width:1;"/><line x1="689.801" y1="1030.795" x2="707.801" y2="1030.795" style="stroke:#181818;stroke-width:1;"/><polygon points="697.801,1026.795,707.801,1030.795,697.801,1034.795,701.801,1030.795" fill="#181818" style="stroke:#181818;stroke-width:1;stroke-linejoin:miter;stroke-miterlimit:10;"/><line x1="1872.819" y1="655.776" x2="1872.819" y2="687.487" style="stroke:#181818;stroke-width:1;"/><polygon points="1868.819,677.487,1872.819,687.487,1876.819,677.487,1872.819,681.487" fill="#181818" style="stroke:#181818;stroke-width:1;stroke-linejoin:miter;stroke-miterlimit:10;"/><line x1="2114.877" y1="655.776" x2="2114.877" y2="687.487" style="stroke:#181818;stroke-width:1;"/><polygon points="2110.877,677.487,2114.877,687.487,2118.877,677.487,2114.877,681.487" fill="#181818" style="stroke:#181818;stroke-width:1;stroke-linejoin:miter;stroke-miterlimit:10;"/><line x1="1938.793" y1="643.776" x2="2028.638" y2="643.776" style="stroke:#181818;stroke-width:1;"/><polygon points="2018.638,639.776,2028.638,643.776,2018.638,647.776,2022.638,643.776" fill="#181818" style="stroke:#181818;stroke-width:1;stroke-linejoin:miter;stroke-miterlimit:10;"/><line x1="559.509" y1="611.776" x2="559.509" y2="616.776" style="stroke:#181818;stroke-width:1;"/><line x1="559.509" y1="616.776" x2="1872.819" y2="616.776" style="stroke:#181818;stroke-width:1;"/><line x1="1872.819" y1="616.776" x2="1872.819" y2="631.776" style="stroke:#181818;stroke-width:1;"/><polygon points="1868.819,621.776,1872.819,631.776,1876.819,621.776,1872.819,625.776" fill="#181818" style="stroke:#181818;stroke-width:1;stroke-linejoin:miter;stroke-miterlimit:10;"/><line x1="1832.985" y1="353.901" x2="1679.761" y2="353.901" style="stroke:#181818;stroke-width:1;"/><line x1="1679.761" y1="353.901" x2="1679.761" y2="385.901" style="stroke:#181818;stroke-width:1;"/><polygon points="1675.761,375.901,1679.761,385.901,1683.761,375.901,1679.761,379.901" fill="#181818" style="stroke:#181818;stroke-width:1;stroke-linejoin:miter;stroke-miterlimit:10;"/><line x1="2755.542" y1="296.933" x2="2755.542" y2="321.335" style="stroke:#181818;stroke-width:1;"/><polygon points="2751.542,311.335,2755.542,321.335,2759.542,311.335,2755.542,315.335" fill="#181818" style="stroke:#181818;stroke-width:1;stroke-linejoin:miter;stroke-miterlimit:10;"/><line x1="2834.257" y1="284.933" x2="2867.779" y2="284.933" style="stroke:#181818;stroke-width:1;"/><polygon points="2863.779,404.272,2867.779,414.272,2871.779,404.272,2867.779,408.272" fill="#181818" style="stroke:#181818;stroke-width:1;stroke-linejoin:miter;stroke-miterlimit:10;"/><line x1="2867.779" y1="284.933" x2="2867.779" y2="543.612" style="stroke:#181818;stroke-width:1;"/><line x1="2867.779" y1="543.612" x2="2767.542" y2="543.612" style="stroke:#181818;stroke-width:1;"/><polygon points="2777.542,539.612,2767.542,543.612,2777.542,547.612,2773.542,543.612" fill="#181818" style="stroke:#181818;stroke-width:1;stroke-linejoin:miter;stroke-miterlimit:10;"/><line x1="2755.542" y1="507.21" x2="2755.542" y2="531.612" style="stroke:#181818;stroke-width:1;"/><polygon points="2751.542,521.612,2755.542,531.612,2759.542,521.612,2755.542,525.612" fill="#181818" style="stroke:#181818;stroke-width:1;stroke-linejoin:miter;stroke-miterlimit:10;"/><line x1="2245.829" y1="1194.733" x2="2245.829" y2="1214.733" style="stroke:#181818;stroke-width:1;"/><polygon points="2241.829,1204.733,2245.829,1214.733,2249.829,1204.733,2245.829,1208.733" fill="#181818" style="stroke:#181818;stroke-width:1;stroke-linejoin:miter;stroke-miterlimit:10;"/><line x1="2255.829" y1="1128.764" x2="2245.829" y2="1128.764" style="stroke:#181818;stroke-width:1;"/><line x1="2245.829" y1="1128.764" x2="2245.829" y2="1160.764" style="stroke:#181818;stroke-width:1;"/><polygon points="2241.829,1150.764,2245.829,1160.764,2249.829,1150.764,2245.829,1154.764" fill="#181818" style="stroke:#181818;stroke-width:1;stroke-linejoin:miter;stroke-miterlimit:10;"/><line x1="2488.034" y1="1128.764" x2="2498.034" y2="1128.764" style="stroke:#181818;stroke-width:1;"/><line x1="2498.034" y1="1128.764" x2="2498.034" y2="1160.764" style="stroke:#181818;stroke-width:1;"/><polygon points="2494.034,1150.764,2498.034,1160.764,2502.034,1150.764,2498.034,1154.764" fill="#181818" style="stroke:#181818;stroke-width:1;stroke-linejoin:miter;stroke-miterlimit:10;"/><line x1="317.906" y1="252.933" x2="317.906" y2="257.933" style="stroke:#181818;stroke-width:1;"/><line x1="317.906" y1="257.933" x2="1245.953" y2="257.933" style="stroke:#181818;stroke-width:1;"/><line x1="1245.953" y1="257.933" x2="1245.953" y2="272.933" style="stroke:#181818;stroke-width:1;"/><polygon points="1241.953,262.933,1245.953,272.933,1249.953,262.933,1245.953,266.933" fill="#181818" style="stroke:#181818;stroke-width:1;stroke-linejoin:miter;stroke-miterlimit:10;"/><line x1="1679.761" y1="419.87" x2="1679.761" y2="437.37" style="stroke:#181818;stroke-width:1;"/><line x1="1679.761" y1="437.37" x2="144.674" y2="437.37" style="stroke:#181818;stroke-width:1;"/><line x1="144.674" y1="437.37" x2="144.674" y2="454.87" style="stroke:#181818;stroke-width:1;"/><polygon points="140.674,444.87,144.674,454.87,148.674,444.87,144.674,448.87" fill="#181818" style="stroke:#181818;stroke-width:1;stroke-linejoin:miter;stroke-miterlimit:10;"/><line x1="559.509" y1="488.839" x2="559.509" y2="506.339" style="stroke:#181818;stroke-width:1;"/><line x1="559.509" y1="506.339" x2="2956.5" y2="506.339" style="stroke:#181818;stroke-width:1;"/><line x1="2956.5" y1="506.339" x2="2956.5" y2="523.839" style="stroke:#181818;stroke-width:1;"/><polygon points="2952.5,513.839,2956.5,523.839,2960.5,513.839,2956.5,517.839" fill="#181818" style="stroke:#181818;stroke-width:1;stroke-linejoin:miter;stroke-miterlimit:10;"/><line x1="2956.5" y1="557.808" x2="2956.5" y2="562.808" style="stroke:#181818;stroke-width:1;"/><line x1="2956.5" y1="562.808" x2="559.509" y2="562.808" style="stroke:#181818;stroke-width:1;"/><line x1="559.509" y1="562.808" x2="559.509" y2="577.808" style="stroke:#181818;stroke-width:1;"/><polygon points="555.509,567.808,559.509,577.808,563.509,567.808,559.509,571.808" fill="#181818" style="stroke:#181818;stroke-width:1;stroke-linejoin:miter;stroke-miterlimit:10;"/><line x1="2114.877" y1="882.827" x2="2114.877" y2="900.327" style="stroke:#181818;stroke-width:1;"/><line x1="2114.877" y1="900.327" x2="462.747" y2="900.327" style="stroke:#181818;stroke-width:1;"/><line x1="462.747" y1="900.327" x2="462.747" y2="917.827" style="stroke:#181818;stroke-width:1;"/><polygon points="458.747,907.827,462.747,917.827,466.747,907.827,462.747,911.827" fill="#181818" style="stroke:#181818;stroke-width:1;stroke-linejoin:miter;stroke-miterlimit:10;"/><line x1="799.978" y1="829.393" x2="799.978" y2="843.827" style="stroke:#181818;stroke-width:1;"/><line x1="799.978" y1="843.827" x2="2452.108" y2="843.827" style="stroke:#181818;stroke-width:1;"/><line x1="2452.108" y1="843.827" x2="2452.108" y2="859.991" style="stroke:#181818;stroke-width:1;"/><polygon points="2448.108,849.991,2452.108,859.991,2456.108,849.991,2452.108,853.991" fill="#181818" style="stroke:#181818;stroke-width:1;stroke-linejoin:miter;stroke-miterlimit:10;"/><line x1="2005.952" y1="353.901" x2="2017.952" y2="353.901" style="stroke:#181818;stroke-width:1;"/><line x1="2017.952" y1="353.901" x2="2017.952" y2="371.901" style="stroke:#181818;stroke-width:1;"/><line x1="2017.952" y1="371.901" x2="559.509" y2="371.901" style="stroke:#181818;stroke-width:1;"/><line x1="559.509" y1="371.901" x2="559.509" y2="385.901" style="stroke:#181818;stroke-width:1;"/><polygon points="555.509,375.901,559.509,385.901,563.509,375.901,559.509,379.901" fill="#181818" style="stroke:#181818;stroke-width:1;stroke-linejoin:miter;stroke-miterlimit:10;"/><line x1="1245.953" y1="306.901" x2="1245.953" y2="324.401" style="stroke:#181818;stroke-width:1;"/><line x1="1245.953" y1="324.401" x2="1919.469" y2="324.401" style="stroke:#181818;stroke-width:1;"/><line x1="1919.469" y1="324.401" x2="1919.469" y2="341.901" style="stroke:#181818;stroke-width:1;"/><polygon points="1915.469,331.901,1919.469,341.901,1923.469,331.901,1919.469,335.901" fill="#181818" style="stroke:#181818;stroke-width:1;stroke-linejoin:miter;stroke-miterlimit:10;"/><line x1="2755.542" y1="369.272" x2="2755.542" y2="386.772" style="stroke:#181818;stroke-width:1;"/><line x1="2755.542" y1="386.772" x2="1023.654" y2="386.772" style="stroke:#181818;stroke-width:1;"/><line x1="1023.654" y1="386.772" x2="1023.654" y2="404.272" style="stroke:#181818;stroke-width:1;"/><polygon points="1019.654,394.272,1023.654,404.272,1027.654,394.272,1023.654,398.272" fill="#181818" style="stroke:#181818;stroke-width:1;stroke-linejoin:miter;stroke-miterlimit:10;"/><line x1="1023.654" y1="438.241" x2="1023.654" y2="455.741" style="stroke:#181818;stroke-width:1;"/><line x1="1023.654" y1="455.741" x2="2755.542" y2="455.741" style="stroke:#181818;stroke-width:1;"/><line x1="2755.542" y1="455.741" x2="2755.542" y2="473.241" style="stroke:#181818;stroke-width:1;"/><polygon points="2751.542,463.241,2755.542,473.241,2759.542,463.241,2755.542,467.241" fill="#181818" style="stroke:#181818;stroke-width:1;stroke-linejoin:miter;stroke-miterlimit:10;"/><line x1="3112.732" y1="252.933" x2="3112.732" y2="257.933" style="stroke:#181818;stroke-width:1;"/><line x1="3112.732" y1="257.933" x2="2755.542" y2="257.933" style="stroke:#181818;stroke-width:1;"/><line x1="2755.542" y1="257.933" x2="2755.542" y2="272.933" style="stroke:#181818;stroke-width:1;"/><polygon points="2751.542,262.933,2755.542,272.933,2759.542,262.933,2755.542,266.933" fill="#181818" style="stroke:#181818;stroke-width:1;stroke-linejoin:miter;stroke-miterlimit:10;"/><line x1="789.347" y1="186.964" x2="3112.732" y2="186.964" style="stroke:#181818;stroke-width:1;"/><line x1="3112.732" y1="186.964" x2="3112.732" y2="218.964" style="stroke:#181818;stroke-width:1;"/><polygon points="3108.732,208.964,3112.732,218.964,3116.732,208.964,3112.732,212.964" fill="#181818" style="stroke:#181818;stroke-width:1;stroke-linejoin:miter;stroke-miterlimit:10;"/><line x1="2755.542" y1="555.612" x2="2755.542" y2="1030.795" style="stroke:#181818;stroke-width:1;"/><line x1="2755.542" y1="1030.795" x2="731.801" y2="1030.795" style="stroke:#181818;stroke-width:1;"/><polygon points="741.801,1026.795,731.801,1030.795,741.801,1034.795,737.801,1030.795" fill="#181818" style="stroke:#181818;stroke-width:1;stroke-linejoin:miter;stroke-miterlimit:10;"/><line x1="2498.034" y1="1194.733" x2="2498.034" y2="1199.733" style="stroke:#181818;stroke-width:1;"/><line x1="2498.034" y1="1199.733" x2="1458.97" y2="1199.733" style="stroke:#181818;stroke-width:1;"/><line x1="1458.97" y1="1199.733" x2="1458.97" y2="1214.733" style="stroke:#181818;stroke-width:1;"/><polygon points="1454.97,1204.733,1458.97,1214.733,1462.97,1204.733,1458.97,1208.733" fill="#181818" style="stroke:#181818;stroke-width:1;stroke-linejoin:miter;stroke-miterlimit:10;"/><line x1="719.801" y1="1096.764" x2="719.801" y2="1101.764" style="stroke:#181818;stroke-width:1;"/><line x1="719.801" y1="1101.764" x2="2371.931" y2="1101.764" style="stroke:#181818;stroke-width:1;"/><line x1="2371.931" y1="1101.764" x2="2371.931" y2="1116.764" style="stroke:#181818;stroke-width:1;"/><polygon points="2367.931,1106.764,2371.931,1116.764,2375.931,1106.764,2371.931,1110.764" fill="#181818" style="stroke:#181818;stroke-width:1;stroke-linejoin:miter;stroke-miterlimit:10;"/><text x="560.938" y="71.75" fill="#000" font-size="18" textLength="52.866">Guest</text><text x="1343.895" y="71.75" fill="#000" font-size="18" textLength="64.503">Web UI</text><text x="2199.986" y="71.75" fill="#000" font-size="18" textLength="84.357">PBMS API</text><text x="2931.098" y="71.75" fill="#000" font-size="18" textLength="48.806">SMTP</text><text x="3042.641" y="71.75" fill="#000" font-size="18" textLength="138.182">Google Identity</text><?plantuml-src XLNlRzCy4FxUl-8alWo9IjjW0rO4wj9kxDKBL6jXGjeNBxcsfguTRAVRHFdVkNESB6c3KAKszVtqSyyzyT8hX6jSIEUjyD9e43g3OU6NgBrCmr7FhQJEXHLhS4kHcNkf5p0Noc738b8lDz8_mgyUmBb8Lmjh2fqbHXaBpovUyuSjncPeu-ch4_xGwKYAjT7PVjZ5nN6ID1oQqM-6fwEZ4HcdNbWV3u_7hqSlZ-bmN2U9HxzxlUrbWSvlUuu3UcV9qXY7a0ldxYanaFEbCGi2nCc5xaizwFNa70xQQ92_Ntvu3dm61vCgs3OmV4xrpyRQemLS2wa6z7zxWtVmzMhBfclyoOsqOk3BR1By9kUVfZ2S14-kVeqEQIIfCOgWru1Av0wpkeFFXik5h3ymvQJ1tvOr1i5MNJputGZfeQ3xA3Wzx3jCJIkzpjm0thqZx9FHwFZz-n3alCdf0MdcSF0TNInvYHgfVGRieP_91IMEro3Zr1kB_1_kfL_2INyjTK6--91B-nWRctwQJM9V8rHoGv1nH0tRJk_JucxTBD92gyJh6revhsQbJBfgO5Lt_WHNLbYcyr7T7eUOmkzZKADGui2rkDMDK38BMwEDBo_NCHqgUALJYsiY4ksEL4WntkCwzsuGFJZZ1K6mQ-zgd_BzJut2fddREJ7uw0JAYzHfQQ9o7f-RO0OCKkI2xInKlR3uJm3QS5uvLs2RqTwiKD_g4g3Gs-5kRplznF7crim9WHVrQhwurK9d7TdhF6qUb5ZEs2DC9YOiPzKncoSwY3Gb_V50emfbkb1euD211ELAE1XBIKGOsK3hc7b_AjLJ-LlcAtM8KswZ95rbB47-CGZ8Dxu7buX66OsT0Z9-8D2Ouqhg5TEgRAHBG7uMHDx81lBKUD-FthUw1JvhOCTw9cQTA-GTv_rjqwenXyxT_ITg4P_mNKjvJPbz4QSH1bW42KcZ5aEIr2O7TwWCWUDDLRaRdueWoYpa7Yi27rfCYFlmtyqiNBoY5GrDxBuDIfqKJoyPGjwXSym-jW-z5-aIpb5O0YJGdhkborGY7zOflAbqF7QvqTIDTF1nHXhrwl1eNqJE4aKfMU-4-dlvYfrdmouF41iQjBXJfLmaRyQdoTi691py1m00?></g></svg>