<svg xmlns="http://www.w3.org/2000/svg" xmlns:xlink="http://www.w3.org/1999/xlink" version="1.1" data-diagram-type="ACTIVITY" style="width:3131px;height:1103px;background:#FFFFFF;" width="3131px" height="1103px" viewBox="0 0 3131 1103" zoomAndPan="magnify" preserveAspectRatio="none" contentStyleType="text/css"><?plantuml 1.2026.7beta8?><defs/><g font-family="sans-serif" lengthAdjust="spacing"><g class="title" data-source-line="1"><text x="1378.189" y="32.995" fill="#000" font-size="14" textLength="373.188" font-weight="700">Exceptional Checkout, Incidents, and Blacklists</text></g><rect x="20" y="55.042" width="3084.566" height="20.953" fill="none" style="stroke:none;"/><ellipse cx="484.524" cy="90.995" rx="10" ry="10" fill="#222" style="stroke:#222;stroke-width:1;"/><rect x="388.514" y="120.995" width="192.02" height="33.969" fill="#F7F7F7" style="stroke:#454545;stroke-width:0.5;" rx="12.5" ry="12.5"/><text x="398.514" y="142.134" fill="#000" font-size="12" textLength="172.02">Select exceptional operation</text><polygon points="107.27,174.964,167.851,174.964,179.851,186.964,167.851,198.964,107.27,198.964,95.27,186.964,107.27,174.964" fill="#FFF2CC" style="stroke:#454545;stroke-width:0.5;stroke-linejoin:miter;stroke-miterlimit:10;"/><text x="141.561" y="209.174" fill="#000" font-size="11" textLength="127.837">Plate or card mismatch</text><text x="107.27" y="190.772" fill="#000" font-size="11" textLength="60.581">Operation?</text><rect x="26" y="231.769" width="223.121" height="33.969" fill="#F7F7F7" style="stroke:#454545;stroke-width:0.5;" rx="12.5" ry="12.5"/><text x="36" y="252.907" fill="#000" font-size="12" textLength="203.121">Capture evidence and description</text><polygon points="301.398,174.964,364.326,174.964,376.326,186.964,364.326,198.964,301.398,198.964,289.398,186.964,301.398,174.964" fill="#FFF2CC" style="stroke:#454545;stroke-width:0.5;stroke-linejoin:miter;stroke-miterlimit:10;"/><text x="301.398" y="190.772" fill="#000" font-size="11" textLength="62.928">Unpaid exit</text><polygon points="485.479,174.964,536.172,174.964,548.172,186.964,536.172,198.964,485.479,198.964,473.479,186.964,485.479,174.964" fill="#FFF2CC" style="stroke:#454545;stroke-width:0.5;stroke-linejoin:miter;stroke-miterlimit:10;"/><text x="485.479" y="190.772" fill="#000" font-size="11" textLength="50.692">Lost card</text><text x="548.172" y="184.37" fill="#000" font-size="11" textLength="100.343">Rollback checkout</text><polygon points="432.612,488.253,589.04,488.253,601.04,500.253,589.04,512.253,432.612,512.253,420.612,500.253,432.612,488.253" fill="#FFF2CC" style="stroke:#454545;stroke-width:0.5;stroke-linejoin:miter;stroke-miterlimit:10;"/><text x="514.826" y="522.463" fill="#000" font-size="11" textLength="19.218">Yes</text><text x="432.612" y="504.061" fill="#000" font-size="11" textLength="156.428">Replacement card supplied?</text><polygon points="510.826,766.718,522.826,778.718,510.826,790.718,498.826,778.718,510.826,766.718" fill="#FFF2CC" style="stroke:#454545;stroke-width:0.5;stroke-linejoin:miter;stroke-miterlimit:10;"/><line x1="20" y1="55.042" x2="20" y2="1082.562" style="stroke:#000;stroke-width:1.5;"/><rect x="669.515" y="298.542" width="174.523" height="33.969" fill="#F7F7F7" style="stroke:#454545;stroke-width:0.5;" rx="12.5" ry="12.5"/><text x="679.515" y="319.681" fill="#000" font-size="12" textLength="154.523">Create or update Incident</text><rect x="854.038" y="218.964" width="147.623" height="33.969" fill="#F7F7F7" style="stroke:#454545;stroke-width:0.5;" rx="12.5" ry="12.5"/><text x="864.038" y="240.103" fill="#000" font-size="12" textLength="127.623">Mark session UNPAID</text><rect x="871.681" y="285.737" width="112.338" height="33.969" fill="#F7F7F7" style="stroke:#454545;stroke-width:0.5;" rx="12.5" ry="12.5"/><text x="881.681" y="306.876" fill="#000" font-size="12" textLength="92.338">Create Incident</text><rect x="1083.516" y="218.964" width="214.52" height="33.969" fill="#F7F7F7" style="stroke:#454545;stroke-width:0.5;" rx="12.5" ry="12.5"/><text x="1093.516" y="240.103" fill="#000" font-size="12" textLength="194.52">Validate active session and card</text><rect x="1106.848" y="586.667" width="167.855" height="33.969" fill="#FFCDD2" style="stroke:#454545;stroke-width:0.5;" rx="12.5" ry="12.5"/><text x="1116.848" y="607.806" fill="#000" font-size="12" textLength="147.855">Reject replacement card</text><ellipse cx="1190.775" cy="659.749" rx="11" ry="11" fill="none" style="stroke:#222;stroke-width:1;"/><ellipse cx="1190.775" cy="659.749" rx="6" ry="6" fill="#222" style="stroke:#222;stroke-width:1;"/><polygon points="1113.92,536.655,1267.63,536.655,1279.63,549.46,1267.63,562.265,1113.92,562.265,1101.92,549.46,1113.92,536.655" fill="#FFF2CC" style="stroke:#454545;stroke-width:0.5;stroke-linejoin:miter;stroke-miterlimit:10;"/><text x="1194.775" y="572.475" fill="#000" font-size="11" textLength="14.958">No</text><text x="1113.92" y="546.866" fill="#000" font-size="11" textLength="153.71">Replacement card available</text><text x="1113.92" y="559.67" fill="#000" font-size="11" textLength="124.636">and not used/blocked?</text><rect x="1080.275" y="712.749" width="221" height="33.969" fill="#F7F7F7" style="stroke:#454545;stroke-width:0.5;" rx="12.5" ry="12.5"/><text x="1090.275" y="733.888" fill="#000" font-size="12" textLength="201">Bind replacement card to session</text><polygon points="1429.783,450.425,1674.786,450.425,1686.786,462.425,1674.786,474.425,1429.783,474.425,1417.783,462.425,1429.783,450.425" fill="#FFF2CC" style="stroke:#454545;stroke-width:0.5;stroke-linejoin:miter;stroke-miterlimit:10;"/><text x="1429.783" y="466.233" fill="#000" font-size="11" textLength="245.002">Successful payment makes reversal unsafe?</text><text x="1398.565" y="459.831" fill="#000" font-size="11" textLength="19.218">Yes</text><text x="1686.786" y="459.831" fill="#000" font-size="11" textLength="14.958">No</text><rect x="1353.275" y="484.425" width="109.016" height="33.969" fill="#FFCDD2" style="stroke:#454545;stroke-width:0.5;" rx="12.5" ry="12.5"/><text x="1363.275" y="505.563" fill="#000" font-size="12" textLength="89.016">Reject rollback</text><ellipse cx="1407.783" cy="564.394" rx="11" ry="11" fill="none" style="stroke:#222;stroke-width:1;"/><ellipse cx="1407.783" cy="564.394" rx="6" ry="6" fill="#222" style="stroke:#222;stroke-width:1;"/><rect x="1577.321" y="484.425" width="238.93" height="33.969" fill="#F7F7F7" style="stroke:#454545;stroke-width:0.5;" rx="12.5" ry="12.5"/><text x="1587.321" y="505.563" fill="#000" font-size="12" textLength="218.93">Restore only safely reversible states</text><rect x="1592.889" y="553.394" width="207.793" height="33.969" fill="#F7F7F7" style="stroke:#454545;stroke-width:0.5;" rx="12.5" ry="12.5"/><text x="1602.889" y="574.532" fill="#000" font-size="12" textLength="187.793">Retain failed payment for audit</text><polygon points="1074.073,884.687,1254.875,884.687,1266.875,896.687,1254.875,908.687,1074.073,908.687,1062.073,896.687,1074.073,884.687" fill="#FFF2CC" style="stroke:#454545;stroke-width:0.5;stroke-linejoin:miter;stroke-miterlimit:10;"/><text x="1074.073" y="900.495" fill="#000" font-size="11" textLength="180.802">Authorized update or resolution?</text><text x="1047.115" y="894.092" fill="#000" font-size="11" textLength="14.958">No</text><text x="1266.875" y="894.092" fill="#000" font-size="11" textLength="19.218">Yes</text><rect x="992.488" y="918.687" width="119.17" height="33.969" fill="#FFCDD2" style="stroke:#454545;stroke-width:0.5;" rx="12.5" ry="12.5"/><text x="1002.488" y="939.825" fill="#000" font-size="12" textLength="99.17">Reject operation</text><ellipse cx="1052.073" cy="997.624" rx="11" ry="11" fill="none" style="stroke:#222;stroke-width:1;"/><ellipse cx="1052.073" cy="997.624" rx="6" ry="6" fill="#222" style="stroke:#222;stroke-width:1;"/><rect x="1181.964" y="918.687" width="189.822" height="47.938" fill="#F7F7F7" style="stroke:#454545;stroke-width:0.5;" rx="12.5" ry="12.5"/><text x="1191.964" y="939.825" fill="#000" font-size="12" textLength="169.822">Update/resolve Incident and</text><text x="1191.964" y="953.794" fill="#000" font-size="12" textLength="150.879">related resource controls</text><rect x="1174.847" y="1000.593" width="204.055" height="33.969" fill="#C8E6C9" style="stroke:#454545;stroke-width:0.5;" rx="12.5" ry="12.5"/><text x="1184.847" y="1021.731" fill="#000" font-size="12" textLength="184.055">Exceptional outcome recorded</text><ellipse cx="1276.875" cy="1065.562" rx="11" ry="11" fill="none" style="stroke:#222;stroke-width:1;"/><ellipse cx="1276.875" cy="1065.562" rx="6" ry="6" fill="#222" style="stroke:#222;stroke-width:1;"/><line x1="663.515" y1="55.042" x2="663.515" y2="1082.562" style="stroke:#000;stroke-width:1.5;"/><rect x="1826.25" y="365.315" width="284.188" height="33.969" fill="#F7F7F7" style="stroke:#454545;stroke-width:0.5;" rx="12.5" ry="12.5"/><text x="1836.25" y="386.454" fill="#000" font-size="12" textLength="264.188">Attach IncidentType and configured penalty</text><rect x="2120.438" y="419.284" width="243.922" height="33.969" fill="#F7F7F7" style="stroke:#454545;stroke-width:0.5;" rx="12.5" ry="12.5"/><text x="2130.438" y="440.423" fill="#000" font-size="12" textLength="223.922">Create lost-card Incident and penalty</text><line x1="1820.25" y1="55.042" x2="1820.25" y2="1082.562" style="stroke:#000;stroke-width:1.5;"/><rect x="2394.36" y="352.511" width="241.93" height="33.969" fill="#F7F7F7" style="stroke:#454545;stroke-width:0.5;" rx="12.5" ry="12.5"/><text x="2404.36" y="373.649" fill="#000" font-size="12" textLength="221.93">Create vehicle or card blacklist entry</text><rect x="2404.476" y="419.284" width="221.697" height="33.969" fill="#F7F7F7" style="stroke:#454545;stroke-width:0.5;" rx="12.5" ry="12.5"/><text x="2414.476" y="440.423" fill="#000" font-size="12" textLength="201.697">Release operational card and slot</text><rect x="2680.813" y="285.737" width="136.578" height="33.969" fill="#F7F7F7" style="stroke:#454545;stroke-width:0.5;" rx="12.5" ry="12.5"/><text x="2690.813" y="306.876" fill="#000" font-size="12" textLength="116.578">Set old Card = Lost</text><rect x="2646.29" y="352.511" width="205.625" height="33.969" fill="#F7F7F7" style="stroke:#454545;stroke-width:0.5;" rx="12.5" ry="12.5"/><text x="2656.29" y="373.649" fill="#000" font-size="12" textLength="185.625">Create related blacklist control</text><line x1="2379.36" y1="55.042" x2="2379.36" y2="1082.562" style="stroke:#000;stroke-width:1.5;"/><rect x="2893.445" y="830.718" width="184.73" height="33.969" fill="#F7F7F7" style="stroke:#454545;stroke-width:0.5;" rx="12.5" ry="12.5"/><text x="2903.445" y="851.856" fill="#000" font-size="12" textLength="164.73">Review incident or blacklist</text><line x1="2866.915" y1="55.042" x2="2866.915" y2="1082.562" style="stroke:#000;stroke-width:1.5;"/><line x1="3102.706" y1="55.042" x2="3102.706" y2="1082.562" style="stroke:#000;stroke-width:1.5;"/><line x1="484.524" y1="100.995" x2="484.524" y2="120.995" style="stroke:#181818;stroke-width:1;"/><polygon points="480.524,110.995,484.524,120.995,488.524,110.995,484.524,114.995" fill="#181818" style="stroke:#181818;stroke-width:1;stroke-linejoin:miter;stroke-miterlimit:10;"/><line x1="420.612" y1="500.253" x2="390.326" y2="500.253" style="stroke:#181818;stroke-width:1;"/><polygon points="386.326,639.944,390.326,649.944,394.326,639.944,390.326,643.944" fill="#181818" style="stroke:#181818;stroke-width:1;stroke-linejoin:miter;stroke-miterlimit:10;"/><line x1="390.326" y1="500.253" x2="390.326" y2="778.718" style="stroke:#181818;stroke-width:1;"/><line x1="390.326" y1="778.718" x2="498.826" y2="778.718" style="stroke:#181818;stroke-width:1;"/><polygon points="488.826,774.718,498.826,778.718,488.826,782.718,492.826,778.718" fill="#181818" style="stroke:#181818;stroke-width:1;stroke-linejoin:miter;stroke-miterlimit:10;"/><line x1="137.561" y1="198.964" x2="137.561" y2="231.769" style="stroke:#181818;stroke-width:1;"/><polygon points="133.561,221.769,137.561,231.769,141.561,221.769,137.561,225.769" fill="#181818" style="stroke:#181818;stroke-width:1;stroke-linejoin:miter;stroke-miterlimit:10;"/><line x1="510.826" y1="790.718" x2="510.826" y2="810.718" style="stroke:#181818;stroke-width:1;"/><polygon points="506.826,800.718,510.826,810.718,514.826,800.718,510.826,804.718" fill="#181818" style="stroke:#181818;stroke-width:1;stroke-linejoin:miter;stroke-miterlimit:10;"/><line x1="179.851" y1="186.964" x2="289.398" y2="186.964" style="stroke:#181818;stroke-width:1;"/><polygon points="279.398,182.964,289.398,186.964,279.398,190.964,283.398,186.964" fill="#181818" style="stroke:#181818;stroke-width:1;stroke-linejoin:miter;stroke-miterlimit:10;"/><line x1="376.326" y1="186.964" x2="473.479" y2="186.964" style="stroke:#181818;stroke-width:1;"/><polygon points="463.479,182.964,473.479,186.964,463.479,190.964,467.479,186.964" fill="#181818" style="stroke:#181818;stroke-width:1;stroke-linejoin:miter;stroke-miterlimit:10;"/><line x1="484.524" y1="154.964" x2="484.524" y2="159.964" style="stroke:#181818;stroke-width:1;"/><line x1="484.524" y1="159.964" x2="137.561" y2="159.964" style="stroke:#181818;stroke-width:1;"/><line x1="137.561" y1="159.964" x2="137.561" y2="174.964" style="stroke:#181818;stroke-width:1;"/><polygon points="133.561,164.964,137.561,174.964,141.561,164.964,137.561,168.964" fill="#181818" style="stroke:#181818;stroke-width:1;stroke-linejoin:miter;stroke-miterlimit:10;"/><line x1="484.524" y1="810.718" x2="849.038" y2="810.718" style="stroke:#181818;stroke-width:1;"/><line x1="927.85" y1="252.933" x2="927.85" y2="285.737" style="stroke:#181818;stroke-width:1;"/><polygon points="923.85,275.737,927.85,285.737,931.85,275.737,927.85,279.737" fill="#181818" style="stroke:#181818;stroke-width:1;stroke-linejoin:miter;stroke-miterlimit:10;"/><line x1="1190.775" y1="620.636" x2="1190.775" y2="648.749" style="stroke:#181818;stroke-width:1;"/><polygon points="1186.775,638.749,1190.775,648.749,1194.775,638.749,1190.775,642.749" fill="#181818" style="stroke:#181818;stroke-width:1;stroke-linejoin:miter;stroke-miterlimit:10;"/><line x1="1190.775" y1="562.265" x2="1190.775" y2="586.667" style="stroke:#181818;stroke-width:1;"/><polygon points="1186.775,576.667,1190.775,586.667,1194.775,576.667,1190.775,580.667" fill="#181818" style="stroke:#181818;stroke-width:1;stroke-linejoin:miter;stroke-miterlimit:10;"/><line x1="1279.63" y1="549.46" x2="1291.63" y2="549.46" style="stroke:#181818;stroke-width:1;"/><polygon points="1287.63,618.749,1291.63,628.749,1295.63,618.749,1291.63,622.749" fill="#181818" style="stroke:#181818;stroke-width:1;stroke-linejoin:miter;stroke-miterlimit:10;"/><line x1="1291.63" y1="549.46" x2="1291.63" y2="692.749" style="stroke:#181818;stroke-width:1;"/><line x1="1291.63" y1="692.749" x2="1190.775" y2="692.749" style="stroke:#181818;stroke-width:1;"/><line x1="1190.775" y1="692.749" x2="1190.775" y2="712.749" style="stroke:#181818;stroke-width:1;"/><polygon points="1186.775,702.749,1190.775,712.749,1194.775,702.749,1190.775,706.749" fill="#181818" style="stroke:#181818;stroke-width:1;stroke-linejoin:miter;stroke-miterlimit:10;"/><line x1="1407.783" y1="518.394" x2="1407.783" y2="553.394" style="stroke:#181818;stroke-width:1;"/><polygon points="1403.783,543.394,1407.783,553.394,1411.783,543.394,1407.783,547.394" fill="#181818" style="stroke:#181818;stroke-width:1;stroke-linejoin:miter;stroke-miterlimit:10;"/><line x1="1696.786" y1="518.394" x2="1696.786" y2="553.394" style="stroke:#181818;stroke-width:1;"/><polygon points="1692.786,543.394,1696.786,553.394,1700.786,543.394,1696.786,547.394" fill="#181818" style="stroke:#181818;stroke-width:1;stroke-linejoin:miter;stroke-miterlimit:10;"/><line x1="1417.783" y1="462.425" x2="1407.783" y2="462.425" style="stroke:#181818;stroke-width:1;"/><line x1="1407.783" y1="462.425" x2="1407.783" y2="484.425" style="stroke:#181818;stroke-width:1;"/><polygon points="1403.783,474.425,1407.783,484.425,1411.783,474.425,1407.783,478.425" fill="#181818" style="stroke:#181818;stroke-width:1;stroke-linejoin:miter;stroke-miterlimit:10;"/><line x1="1686.786" y1="462.425" x2="1696.786" y2="462.425" style="stroke:#181818;stroke-width:1;"/><line x1="1696.786" y1="462.425" x2="1696.786" y2="484.425" style="stroke:#181818;stroke-width:1;"/><polygon points="1692.786,474.425,1696.786,484.425,1700.786,474.425,1696.786,478.425" fill="#181818" style="stroke:#181818;stroke-width:1;stroke-linejoin:miter;stroke-miterlimit:10;"/><line x1="1696.786" y1="587.362" x2="1696.786" y2="593.362" style="stroke:#181818;stroke-width:1;"/><line x1="1696.786" y1="593.362" x2="1552.284" y2="593.362" style="stroke:#181818;stroke-width:1;"/><line x1="1552.284" y1="593.362" x2="1552.284" y2="810.718" style="stroke:#181818;stroke-width:1;"/><polygon points="1548.284,800.718,1552.284,810.718,1556.284,800.718,1552.284,804.718" fill="#181818" style="stroke:#181818;stroke-width:1;stroke-linejoin:miter;stroke-miterlimit:10;"/><line x1="653.515" y1="810.718" x2="1826.25" y2="810.718" style="stroke:#181818;stroke-width:1;"/><line x1="1052.073" y1="952.655" x2="1052.073" y2="986.624" style="stroke:#181818;stroke-width:1;"/><polygon points="1048.073,976.624,1052.073,986.624,1056.073,976.624,1052.073,980.624" fill="#181818" style="stroke:#181818;stroke-width:1;stroke-linejoin:miter;stroke-miterlimit:10;"/><line x1="1276.875" y1="966.624" x2="1276.875" y2="1000.593" style="stroke:#181818;stroke-width:1;"/><polygon points="1272.875,990.593,1276.875,1000.593,1280.875,990.593,1276.875,994.593" fill="#181818" style="stroke:#181818;stroke-width:1;stroke-linejoin:miter;stroke-miterlimit:10;"/><line x1="1276.875" y1="1034.562" x2="1276.875" y2="1054.562" style="stroke:#181818;stroke-width:1;"/><polygon points="1272.875,1044.562,1276.875,1054.562,1280.875,1044.562,1276.875,1048.562" fill="#181818" style="stroke:#181818;stroke-width:1;stroke-linejoin:miter;stroke-miterlimit:10;"/><line x1="1062.073" y1="896.687" x2="1052.073" y2="896.687" style="stroke:#181818;stroke-width:1;"/><line x1="1052.073" y1="896.687" x2="1052.073" y2="918.687" style="stroke:#181818;stroke-width:1;"/><polygon points="1048.073,908.687,1052.073,918.687,1056.073,908.687,1052.073,912.687" fill="#181818" style="stroke:#181818;stroke-width:1;stroke-linejoin:miter;stroke-miterlimit:10;"/><line x1="1266.875" y1="896.687" x2="1276.875" y2="896.687" style="stroke:#181818;stroke-width:1;"/><line x1="1276.875" y1="896.687" x2="1276.875" y2="918.687" style="stroke:#181818;stroke-width:1;"/><polygon points="1272.875,908.687,1276.875,918.687,1280.875,908.687,1276.875,912.687" fill="#181818" style="stroke:#181818;stroke-width:1;stroke-linejoin:miter;stroke-miterlimit:10;"/><line x1="1968.344" y1="399.284" x2="1968.344" y2="810.718" style="stroke:#181818;stroke-width:1;"/><polygon points="1964.344,800.718,1968.344,810.718,1972.344,800.718,1968.344,804.718" fill="#181818" style="stroke:#181818;stroke-width:1;stroke-linejoin:miter;stroke-miterlimit:10;"/><line x1="1826.25" y1="810.718" x2="2496.232" y2="810.718" style="stroke:#181818;stroke-width:1;"/><line x1="2515.325" y1="386.479" x2="2515.325" y2="419.284" style="stroke:#181818;stroke-width:1;"/><polygon points="2511.325,409.284,2515.325,419.284,2519.325,409.284,2515.325,413.284" fill="#181818" style="stroke:#181818;stroke-width:1;stroke-linejoin:miter;stroke-miterlimit:10;"/><line x1="2749.102" y1="319.706" x2="2749.102" y2="352.511" style="stroke:#181818;stroke-width:1;"/><polygon points="2745.102,342.511,2749.102,352.511,2753.102,342.511,2749.102,346.511" fill="#181818" style="stroke:#181818;stroke-width:1;stroke-linejoin:miter;stroke-miterlimit:10;"/><line x1="2515.325" y1="453.253" x2="2515.325" y2="810.718" style="stroke:#181818;stroke-width:1;"/><polygon points="2511.325,800.718,2515.325,810.718,2519.325,800.718,2515.325,804.718" fill="#181818" style="stroke:#181818;stroke-width:1;stroke-linejoin:miter;stroke-miterlimit:10;"/><line x1="2369.36" y1="810.718" x2="2722.801" y2="810.718" style="stroke:#181818;stroke-width:1;"/><line x1="137.561" y1="265.737" x2="137.561" y2="281.042" style="stroke:#181818;stroke-width:1;"/><line x1="137.561" y1="281.042" x2="756.776" y2="281.042" style="stroke:#181818;stroke-width:1;"/><line x1="756.776" y1="281.042" x2="756.776" y2="298.542" style="stroke:#181818;stroke-width:1;"/><polygon points="752.776,288.542,756.776,298.542,760.776,288.542,756.776,292.542" fill="#181818" style="stroke:#181818;stroke-width:1;stroke-linejoin:miter;stroke-miterlimit:10;"/><line x1="756.776" y1="332.511" x2="756.776" y2="347.815" style="stroke:#181818;stroke-width:1;"/><line x1="756.776" y1="347.815" x2="1968.344" y2="347.815" style="stroke:#181818;stroke-width:1;"/><line x1="1968.344" y1="347.815" x2="1968.344" y2="365.315" style="stroke:#181818;stroke-width:1;"/><polygon points="1964.344,355.315,1968.344,365.315,1972.344,355.315,1968.344,359.315" fill="#181818" style="stroke:#181818;stroke-width:1;stroke-linejoin:miter;stroke-miterlimit:10;"/><line x1="927.85" y1="319.706" x2="927.85" y2="337.206" style="stroke:#181818;stroke-width:1;"/><line x1="927.85" y1="337.206" x2="2515.325" y2="337.206" style="stroke:#181818;stroke-width:1;"/><line x1="2515.325" y1="337.206" x2="2515.325" y2="352.511" style="stroke:#181818;stroke-width:1;"/><polygon points="2511.325,342.511,2515.325,352.511,2519.325,342.511,2515.325,346.511" fill="#181818" style="stroke:#181818;stroke-width:1;stroke-linejoin:miter;stroke-miterlimit:10;"/><line x1="1190.775" y1="252.933" x2="1190.775" y2="270.433" style="stroke:#181818;stroke-width:1;"/><line x1="1190.775" y1="270.433" x2="2749.102" y2="270.433" style="stroke:#181818;stroke-width:1;"/><line x1="2749.102" y1="270.433" x2="2749.102" y2="285.737" style="stroke:#181818;stroke-width:1;"/><polygon points="2745.102,275.737,2749.102,285.737,2753.102,275.737,2749.102,279.737" fill="#181818" style="stroke:#181818;stroke-width:1;stroke-linejoin:miter;stroke-miterlimit:10;"/><line x1="2749.102" y1="386.479" x2="2749.102" y2="403.979" style="stroke:#181818;stroke-width:1;"/><line x1="2749.102" y1="403.979" x2="2242.399" y2="403.979" style="stroke:#181818;stroke-width:1;"/><line x1="2242.399" y1="403.979" x2="2242.399" y2="419.284" style="stroke:#181818;stroke-width:1;"/><polygon points="2238.399,409.284,2242.399,419.284,2246.399,409.284,2242.399,413.284" fill="#181818" style="stroke:#181818;stroke-width:1;stroke-linejoin:miter;stroke-miterlimit:10;"/><line x1="510.826" y1="512.253" x2="510.826" y2="524.454" style="stroke:#181818;stroke-width:1;"/><line x1="510.826" y1="524.454" x2="1190.775" y2="524.454" style="stroke:#181818;stroke-width:1;"/><line x1="1190.775" y1="524.454" x2="1190.775" y2="536.655" style="stroke:#181818;stroke-width:1;"/><polygon points="1186.775,526.655,1190.775,536.655,1194.775,526.655,1190.775,530.655" fill="#181818" style="stroke:#181818;stroke-width:1;stroke-linejoin:miter;stroke-miterlimit:10;"/><line x1="1190.775" y1="746.718" x2="1190.775" y2="754.517" style="stroke:#181818;stroke-width:1;"/><line x1="1190.775" y1="754.517" x2="510.826" y2="754.517" style="stroke:#181818;stroke-width:1;"/><line x1="510.826" y1="754.517" x2="510.826" y2="766.718" style="stroke:#181818;stroke-width:1;"/><polygon points="506.826,756.718,510.826,766.718,514.826,756.718,510.826,760.718" fill="#181818" style="stroke:#181818;stroke-width:1;stroke-linejoin:miter;stroke-miterlimit:10;"/><line x1="2242.399" y1="453.253" x2="2242.399" y2="470.753" style="stroke:#181818;stroke-width:1;"/><line x1="2242.399" y1="470.753" x2="510.826" y2="470.753" style="stroke:#181818;stroke-width:1;"/><line x1="510.826" y1="470.753" x2="510.826" y2="488.253" style="stroke:#181818;stroke-width:1;"/><polygon points="506.826,478.253,510.826,488.253,514.826,478.253,510.826,482.253" fill="#181818" style="stroke:#181818;stroke-width:1;stroke-linejoin:miter;stroke-miterlimit:10;"/><line x1="332.862" y1="198.964" x2="332.862" y2="202.964" style="stroke:#181818;stroke-width:1;"/><line x1="332.862" y1="202.964" x2="927.85" y2="202.964" style="stroke:#181818;stroke-width:1;"/><line x1="927.85" y1="202.964" x2="927.85" y2="218.964" style="stroke:#181818;stroke-width:1;"/><polygon points="923.85,208.964,927.85,218.964,931.85,208.964,927.85,212.964" fill="#181818" style="stroke:#181818;stroke-width:1;stroke-linejoin:miter;stroke-miterlimit:10;"/><line x1="510.826" y1="198.964" x2="510.826" y2="202.964" style="stroke:#181818;stroke-width:1;"/><line x1="510.826" y1="202.964" x2="1190.775" y2="202.964" style="stroke:#181818;stroke-width:1;"/><line x1="1190.775" y1="202.964" x2="1190.775" y2="218.964" style="stroke:#181818;stroke-width:1;"/><polygon points="1186.775,208.964,1190.775,218.964,1194.775,208.964,1190.775,212.964" fill="#181818" style="stroke:#181818;stroke-width:1;stroke-linejoin:miter;stroke-miterlimit:10;"/><line x1="484.524" y1="810.718" x2="484.524" y2="815.718" style="stroke:#181818;stroke-width:1;"/><line x1="484.524" y1="815.718" x2="2985.81" y2="815.718" style="stroke:#181818;stroke-width:1;"/><line x1="2985.81" y1="815.718" x2="2985.81" y2="830.718" style="stroke:#181818;stroke-width:1;"/><polygon points="2981.81,820.718,2985.81,830.718,2989.81,820.718,2985.81,824.718" fill="#181818" style="stroke:#181818;stroke-width:1;stroke-linejoin:miter;stroke-miterlimit:10;"/><line x1="2985.81" y1="864.687" x2="2985.81" y2="869.687" style="stroke:#181818;stroke-width:1;"/><line x1="2985.81" y1="869.687" x2="1164.474" y2="869.687" style="stroke:#181818;stroke-width:1;"/><line x1="1164.474" y1="869.687" x2="1164.474" y2="884.687" style="stroke:#181818;stroke-width:1;"/><polygon points="1160.474,874.687,1164.474,884.687,1168.474,874.687,1164.474,878.687" fill="#181818" style="stroke:#181818;stroke-width:1;stroke-linejoin:miter;stroke-miterlimit:10;"/><text x="320.664" y="71.75" fill="#000" font-size="18" textLength="42.188">Staff</text><text x="1199.704" y="71.75" fill="#000" font-size="18" textLength="84.357">PBMS API</text><text x="1971.199" y="71.75" fill="#000" font-size="18" textLength="257.212">Incident and Penalty Service</text><text x="2541.702" y="71.75" fill="#000" font-size="18" textLength="162.87">Card and Blacklist</text><text x="2871.915" y="71.75" fill="#000" font-size="18" textLength="225.791">Staff, Manager, or Admin</text><?plantuml-src ZLLjQzim4FxkNt6mBora5CfUawuZSLeeh5rebi6WNnJf76kH9IF9xh9b_tqdsKwSX8qHI6JhdkVkddk9bruXtFpWM7ffD5EGviZNfl83kDDS2jJU3O1f0HF5-5f9vrtYrbANpB82NCw4UPPw1HbJ3ditZ7jPIx-1Nmd0XA0hQoejKgECXHUtRyCdt1WhqBPlNxqE7texbQmmMfp2RcylqpJvdIJRkMTPjasSPzOdmpagv1wmbuWfqR9m7YKoWxFFtUF7S_0vQZYRAUOHY9OpAw2Ghc2Uv-VaVfYoqbSM0UkW0CSeW437hImRIe3jR78_X_7iRXiH5bksgXJXrAaNJRk7o3D32e-4cQEj9SS87tlFUBu3VTcKZKzkT2PN58g0ie6D4YIXGqOBKbeAobdwyvDuxfbTWqFdA5fOFCp6TzDHByw3wDAG_q69-odLc4kkza8jEoCWlDr4raUIdpdSQqxwyuxLAUFtKNyoX0ntfp5_PKf6xMBlu2xyA0GX_XNi73qO9I1UVu3WfP-lnL3iVl2ahBT6_LzvMXP5h2zZNWU8NMM8gcrBW93h8vRa3ujW666kAaibKUnwy1kweCEH4dz1ivf9nPOAdtHmgus7og6uM2h3rptI1zDmni9y3tDXZwX6S7L5mvHEfvVNrwsjywQCHzH2Pl4qd4ZoSmm6RxhIX9GRyr1U2jaejII5WRTRvAJ88R5vnJdXiqf1oJQHjs1hTEIfHkkeTohjM8QdAktoQVsSvj5cqOJJ2K4mUa_pRBJQGA2cdyQP93a9HDLreyxMCwbfdqaLfguDCAFsPvMGlfTo_6utqG3kcMOhj8CmA6DHIBrDYAkM-0oownQwsdNWAEa94sGPLputLluah-qE8NEBpgZgO6yrMNLIxDVSaHPHYKQ7Lh_X8j9UHCuQ3vhuINSZ4cuhIpkldP2eox3_5q5rvQO8GyN3zcwwANrtyoPzt_CSrFa3?></g></svg>