<svg xmlns="http://www.w3.org/2000/svg" xmlns:xlink="http://www.w3.org/1999/xlink" version="1.1" data-diagram-type="ACTIVITY" style="width:3386px;height:976px;background:#FFFFFF;" width="3386px" height="976px" viewBox="0 0 3386 976" zoomAndPan="magnify" preserveAspectRatio="none" contentStyleType="text/css"><?plantuml 1.2026.7beta8?><defs/><g font-family="sans-serif" lengthAdjust="spacing"><g class="title" data-source-line="1"><text x="1495.211" y="32.995" fill="#000" font-size="14" textLength="394.522" font-weight="700">Parking Structure and Pricing Policy Management</text></g><rect x="20" y="55.042" width="3339.945" height="20.953" fill="none" style="stroke:none;"/><ellipse cx="394.91" cy="90.995" rx="10" ry="10" fill="#222" style="stroke:#222;stroke-width:1;"/><rect x="292.757" y="120.995" width="204.307" height="33.969" fill="#F7F7F7" style="stroke:#454545;stroke-width:0.5;" rx="12.5" ry="12.5"/><text x="302.757" y="142.134" fill="#000" font-size="12" textLength="184.307">Open management workspace</text><polygon points="84.318,174.964,190.885,174.964,202.885,186.964,190.885,198.964,84.318,198.964,72.318,186.964,84.318,174.964" fill="#FFF2CC" style="stroke:#454545;stroke-width:0.5;stroke-linejoin:miter;stroke-miterlimit:10;"/><text x="141.602" y="209.174" fill="#000" font-size="11" textLength="51.412">Structure</text><text x="84.318" y="190.772" fill="#000" font-size="11" textLength="106.568">Management area?</text><rect x="26" y="231.769" width="223.203" height="47.938" fill="#F7F7F7" style="stroke:#454545;stroke-width:0.5;" rx="12.5" ry="12.5"/><text x="36" y="252.907" fill="#000" font-size="12" textLength="196.113">Create or update Building, Floor,</text><text x="36" y="266.876" fill="#000" font-size="12" textLength="203.203">Zone, VehicleType, or ParkingSlot</text><polygon points="361.179,174.964,434.328,174.964,446.328,186.964,434.328,198.964,361.179,198.964,349.179,186.964,361.179,174.964" fill="#FFF2CC" style="stroke:#454545;stroke-width:0.5;stroke-linejoin:miter;stroke-miterlimit:10;"/><text x="361.179" y="190.772" fill="#000" font-size="11" textLength="73.149">Pricing policy</text><text x="446.328" y="184.37" fill="#000" font-size="11" textLength="124.975">Dynamic configuration</text><rect x="581.303" y="382.995" width="237.008" height="33.969" fill="#F7F7F7" style="stroke:#454545;stroke-width:0.5;" rx="12.5" ry="12.5"/><text x="591.303" y="404.134" fill="#000" font-size="12" textLength="217.008">Update supported configuration key</text><rect x="259.203" y="879.065" width="271.414" height="33.969" fill="#C8E6C9" style="stroke:#454545;stroke-width:0.5;" rx="12.5" ry="12.5"/><text x="269.203" y="900.204" fill="#000" font-size="12" textLength="251.414">Management data available to operations</text><ellipse cx="394.91" cy="944.034" rx="11" ry="11" fill="none" style="stroke:#222;stroke-width:1;"/><ellipse cx="394.91" cy="944.034" rx="6" ry="6" fill="#222" style="stroke:#222;stroke-width:1;"/><line x1="20" y1="55.042" x2="20" y2="955.034" style="stroke:#000;stroke-width:1.5;"/><rect x="828.311" y="312.511" width="231.219" height="33.969" fill="#F7F7F7" style="stroke:#454545;stroke-width:0.5;" rx="12.5" ry="12.5"/><text x="838.311" y="333.649" fill="#000" font-size="12" textLength="211.219">Validate required fields and ranges</text><line x1="822.311" y1="55.042" x2="822.311" y2="955.034" style="stroke:#000;stroke-width:1.5;"/><polygon points="1162.114,381.479,1337.207,381.479,1349.207,393.479,1337.207,405.479,1162.114,405.479,1150.114,393.479,1162.114,381.479" fill="#FFF2CC" style="stroke:#454545;stroke-width:0.5;stroke-linejoin:miter;stroke-miterlimit:10;"/><text x="1162.114" y="397.288" fill="#000" font-size="11" textLength="175.092">Authorized and hierarchy valid?</text><text x="1135.156" y="390.885" fill="#000" font-size="11" textLength="14.958">No</text><text x="1349.207" y="390.885" fill="#000" font-size="11" textLength="19.218">Yes</text><rect x="1080.529" y="425.479" width="119.17" height="33.969" fill="#FFCDD2" style="stroke:#454545;stroke-width:0.5;" rx="12.5" ry="12.5"/><text x="1090.529" y="446.618" fill="#000" font-size="12" textLength="99.17">Reject operation</text><ellipse cx="1140.114" cy="505.448" rx="11" ry="11" fill="none" style="stroke:#222;stroke-width:1;"/><ellipse cx="1140.114" cy="505.448" rx="6" ry="6" fill="#222" style="stroke:#222;stroke-width:1;"/><rect x="1294.495" y="473.882" width="129.424" height="33.969" fill="#FFCDD2" style="stroke:#454545;stroke-width:0.5;" rx="12.5" ry="12.5"/><text x="1304.495" y="495.021" fill="#000" font-size="12" textLength="109.424">Reject invalid rate</text><ellipse cx="1359.207" cy="553.851" rx="11" ry="11" fill="none" style="stroke:#222;stroke-width:1;"/><ellipse cx="1359.207" cy="553.851" rx="6" ry="6" fill="#222" style="stroke:#222;stroke-width:1;"/><polygon points="1257.814,425.479,1460.599,425.479,1472.599,437.479,1460.599,449.479,1257.814,449.479,1245.814,437.479,1257.814,425.479" fill="#FFF2CC" style="stroke:#454545;stroke-width:0.5;stroke-linejoin:miter;stroke-miterlimit:10;"/><text x="1363.207" y="459.69" fill="#000" font-size="11" textLength="14.958">No</text><text x="1257.814" y="441.288" fill="#000" font-size="11" textLength="202.786">Zone BookingLimitRate valid 1..100?</text><rect x="1242.575" y="669.222" width="233.264" height="47.938" fill="#F7F7F7" style="stroke:#454545;stroke-width:0.5;" rx="12.5" ry="12.5"/><text x="1252.575" y="690.36" fill="#000" font-size="12" textLength="157.963">Expose active structure to</text><text x="1252.575" y="704.329" fill="#000" font-size="12" textLength="213.264">booking, allocation, and monitoring</text><polygon points="1598.71,299.706,1761.953,299.706,1773.953,312.511,1761.953,325.315,1598.71,325.315,1586.71,312.511,1598.71,299.706" fill="#FFF2CC" style="stroke:#454545;stroke-width:0.5;stroke-linejoin:miter;stroke-miterlimit:10;"/><text x="1598.71" y="309.917" fill="#000" font-size="11" textLength="163.244">Same-context policy overlaps</text><text x="1598.71" y="322.721" fill="#000" font-size="11" textLength="115.081">at the same priority?</text><text x="1567.492" y="309.917" fill="#000" font-size="11" textLength="19.218">Yes</text><text x="1773.953" y="309.917" fill="#000" font-size="11" textLength="14.958">No</text><rect x="1485.838" y="345.315" width="171.934" height="33.969" fill="#FFCDD2" style="stroke:#454545;stroke-width:0.5;" rx="12.5" ry="12.5"/><text x="1495.838" y="366.454" fill="#000" font-size="12" textLength="151.934">Reject overlapping policy</text><ellipse cx="1571.805" cy="425.284" rx="11" ry="11" fill="none" style="stroke:#222;stroke-width:1;"/><ellipse cx="1571.805" cy="425.284" rx="6" ry="6" fill="#222" style="stroke:#222;stroke-width:1;"/><polygon points="1926.081,451.964,2048.413,451.964,2060.413,463.964,2048.413,475.964,1926.081,475.964,1914.081,463.964,1926.081,451.964" fill="#FFF2CC" style="stroke:#454545;stroke-width:0.5;stroke-linejoin:miter;stroke-miterlimit:10;"/><text x="1926.081" y="467.772" fill="#000" font-size="11" textLength="122.332">Type and range valid?</text><text x="1899.122" y="461.37" fill="#000" font-size="11" textLength="14.958">No</text><text x="2060.413" y="461.37" fill="#000" font-size="11" textLength="19.218">Yes</text><rect x="1798.912" y="495.964" width="177.746" height="33.969" fill="#FFCDD2" style="stroke:#454545;stroke-width:0.5;" rx="12.5" ry="12.5"/><text x="1808.912" y="517.103" fill="#000" font-size="12" textLength="157.746">Reject configuration value</text><ellipse cx="1887.785" cy="575.933" rx="11" ry="11" fill="none" style="stroke:#222;stroke-width:1;"/><ellipse cx="1887.785" cy="575.933" rx="6" ry="6" fill="#222" style="stroke:#222;stroke-width:1;"/><line x1="1074.529" y1="55.042" x2="1074.529" y2="955.034" style="stroke:#000;stroke-width:1.5;"/><rect x="2090.631" y="615.253" width="259.953" height="33.969" fill="#F7F7F7" style="stroke:#454545;stroke-width:0.5;" rx="12.5" ry="12.5"/><text x="2100.631" y="636.392" fill="#000" font-size="12" textLength="239.953">Persist hierarchy and operational status</text><rect x="2451.525" y="345.315" width="222.172" height="33.969" fill="#F7F7F7" style="stroke:#454545;stroke-width:0.5;" rx="12.5" ry="12.5"/><text x="2461.525" y="366.454" fill="#000" font-size="12" textLength="202.172">Persist policy, windows, and rules</text><rect x="2683.697" y="495.964" width="180.102" height="33.969" fill="#F7F7F7" style="stroke:#454545;stroke-width:0.5;" rx="12.5" ry="12.5"/><text x="2693.697" y="517.103" fill="#000" font-size="12" textLength="160.102">Persist configuration value</text><rect x="2360.584" y="825.097" width="181.314" height="33.969" fill="#F7F7F7" style="stroke:#454545;stroke-width:0.5;" rx="12.5" ry="12.5"/><text x="2370.584" y="846.235" fill="#000" font-size="12" textLength="161.314">Deactivate eligible policies</text><line x1="2084.631" y1="55.042" x2="2084.631" y2="955.034" style="stroke:#000;stroke-width:1.5;"/><rect x="2882.798" y="218.964" width="238.83" height="47.938" fill="#F7F7F7" style="stroke:#454545;stroke-width:0.5;" rx="12.5" ry="12.5"/><text x="2892.798" y="240.103" fill="#000" font-size="12" textLength="218.83">Define vehicle type, effective range,</text><text x="2892.798" y="254.071" fill="#000" font-size="12" textLength="189.053">rules, caps, and integer priority</text><line x1="2867.798" y1="55.042" x2="2867.798" y2="955.034" style="stroke:#000;stroke-width:1.5;"/><rect x="3153.19" y="757.159" width="190.332" height="47.938" fill="#F7F7F7" style="stroke:#454545;stroke-width:0.5;" rx="12.5" ry="12.5"/><text x="3163.19" y="778.298" fill="#000" font-size="12" textLength="170.332">Every 12 hours, find expired</text><text x="3163.19" y="792.267" fill="#000" font-size="12" textLength="130.336">active pricing policies</text><line x1="3136.628" y1="55.042" x2="3136.628" y2="955.034" style="stroke:#000;stroke-width:1.5;"/><line x1="3358.084" y1="55.042" x2="3358.084" y2="955.034" style="stroke:#000;stroke-width:1.5;"/><line x1="394.91" y1="100.995" x2="394.91" y2="120.995" style="stroke:#181818;stroke-width:1;"/><polygon points="390.91,110.995,394.91,120.995,398.91,110.995,394.91,114.995" fill="#181818" style="stroke:#181818;stroke-width:1;stroke-linejoin:miter;stroke-miterlimit:10;"/><line x1="137.602" y1="198.964" x2="137.602" y2="231.769" style="stroke:#181818;stroke-width:1;"/><polygon points="133.602,221.769,137.602,231.769,141.602,221.769,137.602,225.769" fill="#181818" style="stroke:#181818;stroke-width:1;stroke-linejoin:miter;stroke-miterlimit:10;"/><line x1="202.885" y1="186.964" x2="349.179" y2="186.964" style="stroke:#181818;stroke-width:1;"/><polygon points="339.179,182.964,349.179,186.964,339.179,190.964,343.179,186.964" fill="#181818" style="stroke:#181818;stroke-width:1;stroke-linejoin:miter;stroke-miterlimit:10;"/><line x1="394.91" y1="154.964" x2="394.91" y2="159.964" style="stroke:#181818;stroke-width:1;"/><line x1="394.91" y1="159.964" x2="137.602" y2="159.964" style="stroke:#181818;stroke-width:1;"/><line x1="137.602" y1="159.964" x2="137.602" y2="174.964" style="stroke:#181818;stroke-width:1;"/><polygon points="133.602,164.964,137.602,174.964,141.602,164.964,137.602,168.964" fill="#181818" style="stroke:#181818;stroke-width:1;stroke-linejoin:miter;stroke-miterlimit:10;"/><line x1="446.328" y1="186.964" x2="699.807" y2="186.964" style="stroke:#181818;stroke-width:1;"/><line x1="699.807" y1="186.964" x2="699.807" y2="382.995" style="stroke:#181818;stroke-width:1;"/><polygon points="695.807,372.995,699.807,382.995,703.807,372.995,699.807,376.995" fill="#181818" style="stroke:#181818;stroke-width:1;stroke-linejoin:miter;stroke-miterlimit:10;"/><line x1="394.91" y1="913.034" x2="394.91" y2="933.034" style="stroke:#181818;stroke-width:1;"/><polygon points="390.91,923.034,394.91,933.034,398.91,923.034,394.91,927.034" fill="#181818" style="stroke:#181818;stroke-width:1;stroke-linejoin:miter;stroke-miterlimit:10;"/><line x1="1140.114" y1="459.448" x2="1140.114" y2="494.448" style="stroke:#181818;stroke-width:1;"/><polygon points="1136.114,484.448,1140.114,494.448,1144.114,484.448,1140.114,488.448" fill="#181818" style="stroke:#181818;stroke-width:1;stroke-linejoin:miter;stroke-miterlimit:10;"/><line x1="1359.207" y1="507.851" x2="1359.207" y2="542.851" style="stroke:#181818;stroke-width:1;"/><polygon points="1355.207,532.851,1359.207,542.851,1363.207,532.851,1359.207,536.851" fill="#181818" style="stroke:#181818;stroke-width:1;stroke-linejoin:miter;stroke-miterlimit:10;"/><line x1="1359.207" y1="449.479" x2="1359.207" y2="473.882" style="stroke:#181818;stroke-width:1;"/><polygon points="1355.207,463.882,1359.207,473.882,1363.207,463.882,1359.207,467.882" fill="#181818" style="stroke:#181818;stroke-width:1;stroke-linejoin:miter;stroke-miterlimit:10;"/><line x1="1472.599" y1="437.479" x2="2220.607" y2="437.479" style="stroke:#181818;stroke-width:1;"/><polygon points="2216.607,523.866,2220.607,533.866,2224.607,523.866,2220.607,527.866" fill="#181818" style="stroke:#181818;stroke-width:1;stroke-linejoin:miter;stroke-miterlimit:10;"/><line x1="2220.607" y1="437.479" x2="2220.607" y2="615.253" style="stroke:#181818;stroke-width:1;"/><polygon points="2216.607,605.253,2220.607,615.253,2224.607,605.253,2220.607,609.253" fill="#181818" style="stroke:#181818;stroke-width:1;stroke-linejoin:miter;stroke-miterlimit:10;"/><line x1="1150.114" y1="393.479" x2="1140.114" y2="393.479" style="stroke:#181818;stroke-width:1;"/><line x1="1140.114" y1="393.479" x2="1140.114" y2="425.479" style="stroke:#181818;stroke-width:1;"/><polygon points="1136.114,415.479,1140.114,425.479,1144.114,415.479,1140.114,419.479" fill="#181818" style="stroke:#181818;stroke-width:1;stroke-linejoin:miter;stroke-miterlimit:10;"/><line x1="1349.207" y1="393.479" x2="1359.207" y2="393.479" style="stroke:#181818;stroke-width:1;"/><line x1="1359.207" y1="393.479" x2="1359.207" y2="425.479" style="stroke:#181818;stroke-width:1;"/><polygon points="1355.207,415.479,1359.207,425.479,1363.207,415.479,1359.207,419.479" fill="#181818" style="stroke:#181818;stroke-width:1;stroke-linejoin:miter;stroke-miterlimit:10;"/><line x1="1359.207" y1="717.159" x2="1359.207" y2="722.159" style="stroke:#181818;stroke-width:1;"/><line x1="1359.207" y1="722.159" x2="1249.66" y2="722.159" style="stroke:#181818;stroke-width:1;"/><line x1="1249.66" y1="722.159" x2="1249.66" y2="737.159" style="stroke:#181818;stroke-width:1;"/><polygon points="1245.66,727.159,1249.66,737.159,1253.66,727.159,1249.66,731.159" fill="#181818" style="stroke:#181818;stroke-width:1;stroke-linejoin:miter;stroke-miterlimit:10;"/><line x1="1571.805" y1="379.284" x2="1571.805" y2="414.284" style="stroke:#181818;stroke-width:1;"/><polygon points="1567.805,404.284,1571.805,414.284,1575.805,404.284,1571.805,408.284" fill="#181818" style="stroke:#181818;stroke-width:1;stroke-linejoin:miter;stroke-miterlimit:10;"/><line x1="1586.71" y1="312.511" x2="1571.805" y2="312.511" style="stroke:#181818;stroke-width:1;"/><line x1="1571.805" y1="312.511" x2="1571.805" y2="345.315" style="stroke:#181818;stroke-width:1;"/><polygon points="1567.805,335.315,1571.805,345.315,1575.805,335.315,1571.805,339.315" fill="#181818" style="stroke:#181818;stroke-width:1;stroke-linejoin:miter;stroke-miterlimit:10;"/><line x1="1887.785" y1="529.933" x2="1887.785" y2="564.933" style="stroke:#181818;stroke-width:1;"/><polygon points="1883.785,554.933,1887.785,564.933,1891.785,554.933,1887.785,558.933" fill="#181818" style="stroke:#181818;stroke-width:1;stroke-linejoin:miter;stroke-miterlimit:10;"/><line x1="1914.081" y1="463.964" x2="1887.785" y2="463.964" style="stroke:#181818;stroke-width:1;"/><line x1="1887.785" y1="463.964" x2="1887.785" y2="495.964" style="stroke:#181818;stroke-width:1;"/><polygon points="1883.785,485.964,1887.785,495.964,1891.785,485.964,1887.785,489.964" fill="#181818" style="stroke:#181818;stroke-width:1;stroke-linejoin:miter;stroke-miterlimit:10;"/><line x1="2562.611" y1="379.284" x2="2562.611" y2="440.284" style="stroke:#181818;stroke-width:1;"/><line x1="2562.611" y1="440.284" x2="1680.332" y2="440.284" style="stroke:#181818;stroke-width:1;"/><line x1="1680.332" y1="440.284" x2="1680.332" y2="737.159" style="stroke:#181818;stroke-width:1;"/><polygon points="1676.332,727.159,1680.332,737.159,1684.332,727.159,1680.332,731.159" fill="#181818" style="stroke:#181818;stroke-width:1;stroke-linejoin:miter;stroke-miterlimit:10;"/><line x1="2773.748" y1="529.933" x2="2773.748" y2="590.933" style="stroke:#181818;stroke-width:1;"/><line x1="2773.748" y1="590.933" x2="1987.247" y2="590.933" style="stroke:#181818;stroke-width:1;"/><line x1="1987.247" y1="590.933" x2="1987.247" y2="737.159" style="stroke:#181818;stroke-width:1;"/><polygon points="1983.247,727.159,1987.247,737.159,1991.247,727.159,1987.247,731.159" fill="#181818" style="stroke:#181818;stroke-width:1;stroke-linejoin:miter;stroke-miterlimit:10;"/><line x1="1249.66" y1="737.159" x2="1987.247" y2="737.159" style="stroke:#181818;stroke-width:1;"/><line x1="137.602" y1="279.706" x2="137.602" y2="295.011" style="stroke:#181818;stroke-width:1;"/><line x1="137.602" y1="295.011" x2="943.92" y2="295.011" style="stroke:#181818;stroke-width:1;"/><line x1="943.92" y1="295.011" x2="943.92" y2="312.511" style="stroke:#181818;stroke-width:1;"/><polygon points="939.92,302.511,943.92,312.511,947.92,302.511,943.92,306.511" fill="#181818" style="stroke:#181818;stroke-width:1;stroke-linejoin:miter;stroke-miterlimit:10;"/><line x1="2220.607" y1="649.222" x2="2220.607" y2="654.222" style="stroke:#181818;stroke-width:1;"/><line x1="2220.607" y1="654.222" x2="1359.207" y2="654.222" style="stroke:#181818;stroke-width:1;"/><line x1="1359.207" y1="654.222" x2="1359.207" y2="669.222" style="stroke:#181818;stroke-width:1;"/><polygon points="1355.207,659.222,1359.207,669.222,1363.207,659.222,1359.207,663.222" fill="#181818" style="stroke:#181818;stroke-width:1;stroke-linejoin:miter;stroke-miterlimit:10;"/><line x1="943.92" y1="346.479" x2="943.92" y2="363.979" style="stroke:#181818;stroke-width:1;"/><line x1="943.92" y1="363.979" x2="1249.66" y2="363.979" style="stroke:#181818;stroke-width:1;"/><line x1="1249.66" y1="363.979" x2="1249.66" y2="381.479" style="stroke:#181818;stroke-width:1;"/><polygon points="1245.66,371.479,1249.66,381.479,1253.66,371.479,1249.66,375.479" fill="#181818" style="stroke:#181818;stroke-width:1;stroke-linejoin:miter;stroke-miterlimit:10;"/><line x1="1773.953" y1="312.511" x2="2562.611" y2="312.511" style="stroke:#181818;stroke-width:1;"/><line x1="2562.611" y1="312.511" x2="2562.611" y2="345.315" style="stroke:#181818;stroke-width:1;"/><polygon points="2558.611,335.315,2562.611,345.315,2566.611,335.315,2562.611,339.315" fill="#181818" style="stroke:#181818;stroke-width:1;stroke-linejoin:miter;stroke-miterlimit:10;"/><line x1="3002.213" y1="266.901" x2="3002.213" y2="284.401" style="stroke:#181818;stroke-width:1;"/><line x1="3002.213" y1="284.401" x2="1680.332" y2="284.401" style="stroke:#181818;stroke-width:1;"/><line x1="1680.332" y1="284.401" x2="1680.332" y2="299.706" style="stroke:#181818;stroke-width:1;"/><polygon points="1676.332,289.706,1680.332,299.706,1684.332,289.706,1680.332,293.706" fill="#181818" style="stroke:#181818;stroke-width:1;stroke-linejoin:miter;stroke-miterlimit:10;"/><line x1="2060.413" y1="463.964" x2="2773.748" y2="463.964" style="stroke:#181818;stroke-width:1;"/><line x1="2773.748" y1="463.964" x2="2773.748" y2="495.964" style="stroke:#181818;stroke-width:1;"/><polygon points="2769.748,485.964,2773.748,495.964,2777.748,485.964,2773.748,489.964" fill="#181818" style="stroke:#181818;stroke-width:1;stroke-linejoin:miter;stroke-miterlimit:10;"/><line x1="699.807" y1="416.964" x2="699.807" y2="434.464" style="stroke:#181818;stroke-width:1;"/><line x1="699.807" y1="434.464" x2="1987.247" y2="434.464" style="stroke:#181818;stroke-width:1;"/><line x1="1987.247" y1="434.464" x2="1987.247" y2="451.964" style="stroke:#181818;stroke-width:1;"/><polygon points="1983.247,441.964,1987.247,451.964,1991.247,441.964,1987.247,445.964" fill="#181818" style="stroke:#181818;stroke-width:1;stroke-linejoin:miter;stroke-miterlimit:10;"/><line x1="397.754" y1="198.964" x2="397.754" y2="202.964" style="stroke:#181818;stroke-width:1;"/><line x1="397.754" y1="202.964" x2="3002.213" y2="202.964" style="stroke:#181818;stroke-width:1;"/><line x1="3002.213" y1="202.964" x2="3002.213" y2="218.964" style="stroke:#181818;stroke-width:1;"/><polygon points="2998.213,208.964,3002.213,218.964,3006.213,208.964,3002.213,212.964" fill="#181818" style="stroke:#181818;stroke-width:1;stroke-linejoin:miter;stroke-miterlimit:10;"/><line x1="394.91" y1="737.159" x2="394.91" y2="742.159" style="stroke:#181818;stroke-width:1;"/><line x1="394.91" y1="742.159" x2="3248.356" y2="742.159" style="stroke:#181818;stroke-width:1;"/><line x1="3248.356" y1="742.159" x2="3248.356" y2="757.159" style="stroke:#181818;stroke-width:1;"/><polygon points="3244.356,747.159,3248.356,757.159,3252.356,747.159,3248.356,751.159" fill="#181818" style="stroke:#181818;stroke-width:1;stroke-linejoin:miter;stroke-miterlimit:10;"/><line x1="3248.356" y1="805.097" x2="3248.356" y2="810.097" style="stroke:#181818;stroke-width:1;"/><line x1="3248.356" y1="810.097" x2="2451.241" y2="810.097" style="stroke:#181818;stroke-width:1;"/><line x1="2451.241" y1="810.097" x2="2451.241" y2="825.097" style="stroke:#181818;stroke-width:1;"/><polygon points="2447.241,815.097,2451.241,825.097,2455.241,815.097,2451.241,819.097" fill="#181818" style="stroke:#181818;stroke-width:1;stroke-linejoin:miter;stroke-miterlimit:10;"/><line x1="2451.241" y1="859.065" x2="2451.241" y2="864.065" style="stroke:#181818;stroke-width:1;"/><line x1="2451.241" y1="864.065" x2="394.91" y2="864.065" style="stroke:#181818;stroke-width:1;"/><line x1="394.91" y1="864.065" x2="394.91" y2="879.065" style="stroke:#181818;stroke-width:1;"/><polygon points="390.91,869.065,394.91,879.065,398.91,869.065,394.91,873.065" fill="#181818" style="stroke:#181818;stroke-width:1;stroke-linejoin:miter;stroke-miterlimit:10;"/><text x="337.936" y="71.75" fill="#000" font-size="18" textLength="166.438">Manager or Admin</text><text x="916.168" y="71.75" fill="#000" font-size="18" textLength="64.503">Web UI</text><text x="1537.401" y="71.75" fill="#000" font-size="18" textLength="84.357">PBMS API</text><text x="2433.271" y="71.75" fill="#000" font-size="18" textLength="85.887">Database</text><text x="2962.764" y="71.75" fill="#000" font-size="18" textLength="78.899">Manager</text><text x="3141.628" y="71.75" fill="#000" font-size="18" textLength="211.456">Pricing Cleanup Worker</text><?plantuml-src ZLJlJnin3Fr-VuMbVIbIXm3jPq5CSANIfB5LT80sySMzSrklQP8bkKAtxd-VasklPO2OJggkEVlPx_avWOCYwAERiXx38BYg29KZG5r2tt4HJ_j6SR60SzGufXdfa7c9jkXm1dw2fRcDKIDKdhQ-O15upc41lpE0KoocOsSgNUP66GSlUc_Z4xyOLv9RdRvw7HyvxJBEZ2uVflLw1tcU_ScoPTsE0pa-AMUibvaFw4BM-M99mwnf5cwDctgB1HrcF8BMXWQW8_om0s4Y2Qs6-uxKx-JoAL04hsmPtquhLgNmR4DF6UFQD_gxqTI6AvfmeUZhmieV2Lz9EL0c70hGyfg6SFbn6J6lK772SlIpOaSbZ9XKwPFO3lMOV4hfdvuFuAIVacB79rMO6CU_9256JfWSkcAoW7a4R0XyDh5pgND1FwW8OAp41JRw48wEHBcyspquFauXFXWhBoGJWzOtydLYh1L9oKnCvF29PnmkOiEf4EplxkxlxJsejwd8kWwKilImQ5DM2kkIH-bjsSM0G_Iqh7lla_FimnR9IBcXWaf0C5H9g7-aakopEsk4Kh8UIUJQpS7Sw65DgWseb2aIMZk1Yz4uYBvw747hrg8oKOxr2jYq0f7lsdTfebqQiUWrhpq08Pc0HYEg6qWp5QUuIf5lGu7MroLP1uhUjOwbS5WyElO1pkXbOIJqBgmQ03CdfmJcHcE8Om0lGGrCCvfcf8qNwZoxuVACATR3VMe-DKWRPFLb_rUq4i_x8aAhkz0uumA4oOZ7LJt7RIMtDbWANDRhvYjhZGjY-NjvCAN7nOhxjzcZPpRZFgJ4LlI_E_AK7ez1ReH8lzboxQPS4UhAmhNSJD59dJCPpmBs3s1YAYTYYgjAe3iRBmaPTUqck-r5Za9lDIDMJ65HEr8yvg7uSIloeTQThOjG94V0ERB2c1VCPkDyKYP_T_OcVo_AH5N-0W00?></g></svg>