<svg xmlns="http://www.w3.org/2000/svg" xmlns:xlink="http://www.w3.org/1999/xlink" version="1.1" data-diagram-type="ACTIVITY" style="width:1421px;height:1810px;background:#FFFFFF;" width="1421px" height="1810px" viewBox="0 0 1421 1810" zoomAndPan="magnify" preserveAspectRatio="none" contentStyleType="text/css"><?plantuml 1.2026.7beta8?><defs/><g font-family="sans-serif" lengthAdjust="spacing"><g class="title" data-source-line="1"><text x="594.937" y="32.995" fill="#000" font-size="14" textLength="229.544" font-weight="700">Session Query and Extension</text></g><rect x="20" y="55.042" width="1374.417" height="20.953" fill="none" style="stroke:none;"/><ellipse cx="142.251" cy="90.995" rx="10" ry="10" fill="#222" style="stroke:#222;stroke-width:1;"/><rect x="26" y="120.995" width="232.502" height="33.969" fill="#F7F7F7" style="stroke:#454545;stroke-width:0.5;" rx="12.5" ry="12.5"/><text x="36" y="142.134" fill="#000" font-size="12" textLength="212.502">Request active or historical session</text><rect x="86.135" y="628.097" width="112.232" height="33.969" fill="#C8E6C9" style="stroke:#454545;stroke-width:0.5;" rx="12.5" ry="12.5"/><text x="96.135" y="649.235" fill="#000" font-size="12" textLength="92.232">Session viewed</text><ellipse cx="142.251" cy="701.581" rx="11" ry="11" fill="none" style="stroke:#222;stroke-width:1;"/><ellipse cx="142.251" cy="701.581" rx="6" ry="6" fill="#222" style="stroke:#222;stroke-width:1;"/><polygon points="82.68,579.694,201.822,579.694,213.822,591.694,201.822,603.694,82.68,603.694,70.68,591.694,82.68,579.694" fill="#FFF2CC" style="stroke:#454545;stroke-width:0.5;stroke-linejoin:miter;stroke-miterlimit:10;"/><text x="146.251" y="613.905" fill="#000" font-size="11" textLength="14.958">No</text><text x="82.68" y="595.502" fill="#000" font-size="11" textLength="119.142">Extension requested?</text><rect x="33.857" y="754.581" width="216.787" height="33.969" fill="#F7F7F7" style="stroke:#454545;stroke-width:0.5;" rx="12.5" ry="12.5"/><text x="43.857" y="775.72" fill="#000" font-size="12" textLength="196.787">Submit requested checkout time</text><rect x="44.123" y="1713.034" width="196.256" height="33.969" fill="#C8E6C9" style="stroke:#454545;stroke-width:0.5;" rx="12.5" ry="12.5"/><text x="54.123" y="1734.173" fill="#000" font-size="12" textLength="176.256">Accepted extension recorded</text><ellipse cx="142.251" cy="1778.003" rx="11" ry="11" fill="none" style="stroke:#222;stroke-width:1;"/><ellipse cx="142.251" cy="1778.003" rx="6" ry="6" fill="#222" style="stroke:#222;stroke-width:1;"/><line x1="20" y1="55.042" x2="20" y2="1789.003" style="stroke:#000;stroke-width:1.5;"/><rect x="278.018" y="174.964" width="176.445" height="33.969" fill="#F7F7F7" style="stroke:#454545;stroke-width:0.5;" rx="12.5" ry="12.5"/><text x="288.018" y="196.103" fill="#000" font-size="12" textLength="156.445">Send authenticated query</text><rect x="268.502" y="525.726" width="195.477" height="33.969" fill="#F7F7F7" style="stroke:#454545;stroke-width:0.5;" rx="12.5" ry="12.5"/><text x="278.502" y="546.864" fill="#000" font-size="12" textLength="175.477">Display session and estimate</text><line x1="262.502" y1="55.042" x2="262.502" y2="1789.003" style="stroke:#000;stroke-width:1.5;"/><rect x="617.715" y="277.335" width="185.193" height="33.969" fill="#FFCDD2" style="stroke:#454545;stroke-width:0.5;" rx="12.5" ry="12.5"/><text x="627.715" y="298.474" fill="#000" font-size="12" textLength="165.193">Reject unauthorized access</text><ellipse cx="710.312" cy="350.819" rx="11" ry="11" fill="none" style="stroke:#222;stroke-width:1;"/><ellipse cx="710.312" cy="350.819" rx="6" ry="6" fill="#222" style="stroke:#222;stroke-width:1;"/><polygon points="636.704,228.933,783.92,228.933,795.92,240.933,783.92,252.933,636.704,252.933,624.704,240.933,636.704,228.933" fill="#FFF2CC" style="stroke:#454545;stroke-width:0.5;stroke-linejoin:miter;stroke-miterlimit:10;"/><text x="714.312" y="263.143" fill="#000" font-size="11" textLength="14.958">No</text><text x="636.704" y="244.741" fill="#000" font-size="11" textLength="147.216">Actor may access session?</text><rect x="598.476" y="403.819" width="223.672" height="47.938" fill="#F7F7F7" style="stroke:#454545;stroke-width:0.5;" rx="12.5" ry="12.5"/><text x="608.476" y="424.958" fill="#000" font-size="12" textLength="203.672">Return timing, allocation, images,</text><text x="608.476" y="438.927" fill="#000" font-size="12" textLength="129.1">and payment context</text><rect x="650.179" y="856.952" width="120.266" height="33.969" fill="#FFCDD2" style="stroke:#454545;stroke-width:0.5;" rx="12.5" ry="12.5"/><text x="660.179" y="878.091" fill="#000" font-size="12" textLength="100.266">Reject extension</text><ellipse cx="710.312" cy="930.437" rx="11" ry="11" fill="none" style="stroke:#222;stroke-width:1;"/><ellipse cx="710.312" cy="930.437" rx="6" ry="6" fill="#222" style="stroke:#222;stroke-width:1;"/><polygon points="624.044,808.55,796.58,808.55,808.58,820.55,796.58,832.55,624.044,832.55,612.044,820.55,624.044,808.55" fill="#FFF2CC" style="stroke:#454545;stroke-width:0.5;stroke-linejoin:miter;stroke-miterlimit:10;"/><text x="714.312" y="842.76" fill="#000" font-size="11" textLength="14.958">No</text><text x="624.044" y="824.358" fill="#000" font-size="11" textLength="172.536">Session and extension eligible?</text><rect x="612.249" y="1033.448" width="196.127" height="33.969" fill="#F7F7F7" style="stroke:#454545;stroke-width:0.5;" rx="12.5" ry="12.5"/><text x="622.249" y="1054.587" fill="#000" font-size="12" textLength="176.127">Cap extension before conflict</text><polygon points="605.603,983.437,815.021,983.437,827.021,996.241,815.021,1009.046,605.603,1009.046,593.603,996.241,605.603,983.437" fill="#FFF2CC" style="stroke:#454545;stroke-width:0.5;stroke-linejoin:miter;stroke-miterlimit:10;"/><text x="714.312" y="1019.256" fill="#000" font-size="11" textLength="19.218">Yes</text><text x="605.603" y="993.647" fill="#000" font-size="11" textLength="209.419">Slot-bound and later booking conflicts</text><text x="605.603" y="1006.452" fill="#000" font-size="11" textLength="154.822">including configured buffer?</text><polygon points="710.312,1087.417,722.312,1099.417,710.312,1111.417,698.312,1099.417,710.312,1087.417" fill="#FFF2CC" style="stroke:#454545;stroke-width:0.5;stroke-linejoin:miter;stroke-miterlimit:10;"/><rect x="593.25" y="1233.788" width="234.125" height="33.969" fill="#F7F7F7" style="stroke:#454545;stroke-width:0.5;" rx="12.5" ry="12.5"/><text x="603.25" y="1254.927" fill="#000" font-size="12" textLength="214.125">Create or replace Pending payment</text><polygon points="633.081,1287.757,787.543,1287.757,799.543,1299.757,787.543,1311.757,633.081,1311.757,621.081,1299.757,633.081,1287.757" fill="#FFF2CC" style="stroke:#454545;stroke-width:0.5;stroke-linejoin:miter;stroke-miterlimit:10;"/><text x="633.081" y="1303.565" fill="#000" font-size="11" textLength="154.462">Online settlement selected?</text><text x="601.863" y="1297.163" fill="#000" font-size="11" textLength="19.218">Yes</text><text x="799.543" y="1297.163" fill="#000" font-size="11" textLength="27.124">Cash</text><rect x="500.979" y="1448.097" width="169.256" height="33.969" fill="#FFCDD2" style="stroke:#454545;stroke-width:0.5;" rx="12.5" ry="12.5"/><text x="510.979" y="1469.235" fill="#000" font-size="12" textLength="149.256">Do not finalize extension</text><ellipse cx="585.606" cy="1528.065" rx="11" ry="11" fill="none" style="stroke:#222;stroke-width:1;"/><ellipse cx="585.606" cy="1528.065" rx="6" ry="6" fill="#222" style="stroke:#222;stroke-width:1;"/><polygon points="543.677,1399.694,627.536,1399.694,639.536,1411.694,627.536,1423.694,543.677,1423.694,531.677,1411.694,543.677,1399.694" fill="#FFF2CC" style="stroke:#454545;stroke-width:0.5;stroke-linejoin:miter;stroke-miterlimit:10;"/><text x="589.606" y="1433.905" fill="#000" font-size="11" textLength="14.958">No</text><text x="543.677" y="1415.502" fill="#000" font-size="11" textLength="83.859">Payment PAID?</text><rect x="729.492" y="1331.757" width="211.051" height="47.938" fill="#F7F7F7" style="stroke:#454545;stroke-width:0.5;" rx="12.5" ry="12.5"/><text x="739.492" y="1352.896" fill="#000" font-size="12" textLength="191.051">Apply configured cash rounding</text><text x="739.492" y="1366.864" fill="#000" font-size="12" textLength="150.645">and settle synchronously</text><polygon points="710.312,1571.065,722.312,1583.065,710.312,1595.065,698.312,1583.065,710.312,1571.065" fill="#FFF2CC" style="stroke:#454545;stroke-width:0.5;stroke-linejoin:miter;stroke-miterlimit:10;"/><polygon points="657.63,1185.386,762.994,1185.386,774.994,1197.386,762.994,1209.386,657.63,1209.386,645.63,1197.386,657.63,1185.386" fill="#FFF2CC" style="stroke:#454545;stroke-width:0.5;stroke-linejoin:miter;stroke-miterlimit:10;"/><text x="714.312" y="1219.596" fill="#000" font-size="11" textLength="19.218">Yes</text><text x="657.63" y="1201.194" fill="#000" font-size="11" textLength="105.365">Additional fee > 0?</text><polygon points="710.312,1615.065,722.312,1627.065,710.312,1639.065,698.312,1627.065,710.312,1615.065" fill="#FFF2CC" style="stroke:#454545;stroke-width:0.5;stroke-linejoin:miter;stroke-miterlimit:10;"/><rect x="607.655" y="1659.065" width="205.314" height="33.969" fill="#F7F7F7" style="stroke:#454545;stroke-width:0.5;" rx="12.5" ry="12.5"/><text x="617.655" y="1680.204" fill="#000" font-size="12" textLength="185.314">Update planned checkout time</text><line x1="467.979" y1="55.042" x2="467.979" y2="1789.003" style="stroke:#000;stroke-width:1.5;"/><rect x="950.543" y="471.757" width="180.242" height="33.969" fill="#F7F7F7" style="stroke:#454545;stroke-width:0.5;" rx="12.5" ry="12.5"/><text x="960.543" y="492.896" fill="#000" font-size="12" textLength="160.242">Calculate current estimate</text><rect x="959.534" y="1131.417" width="162.26" height="33.969" fill="#F7F7F7" style="stroke:#454545;stroke-width:0.5;" rx="12.5" ry="12.5"/><text x="969.534" y="1152.556" fill="#000" font-size="12" textLength="142.26">Calculate additional fee</text><line x1="944.543" y1="55.042" x2="944.543" y2="1789.003" style="stroke:#000;stroke-width:1.5;"/><rect x="1140.785" y="1331.757" width="247.771" height="33.969" fill="#F7F7F7" style="stroke:#454545;stroke-width:0.5;" rx="12.5" ry="12.5"/><text x="1150.785" y="1352.896" fill="#000" font-size="12" textLength="227.771">Return payment URL and verify result</text><line x1="1134.785" y1="55.042" x2="1134.785" y2="1789.003" style="stroke:#000;stroke-width:1.5;"/><line x1="1392.557" y1="55.042" x2="1392.557" y2="1789.003" style="stroke:#000;stroke-width:1.5;"/><line x1="142.251" y1="100.995" x2="142.251" y2="120.995" style="stroke:#181818;stroke-width:1;"/><polygon points="138.251,110.995,142.251,120.995,146.251,110.995,142.251,114.995" fill="#181818" style="stroke:#181818;stroke-width:1;stroke-linejoin:miter;stroke-miterlimit:10;"/><line x1="142.251" y1="662.065" x2="142.251" y2="690.581" style="stroke:#181818;stroke-width:1;"/><polygon points="138.251,680.581,142.251,690.581,146.251,680.581,142.251,684.581" fill="#181818" style="stroke:#181818;stroke-width:1;stroke-linejoin:miter;stroke-miterlimit:10;"/><line x1="142.251" y1="603.694" x2="142.251" y2="628.097" style="stroke:#181818;stroke-width:1;"/><polygon points="138.251,618.097,142.251,628.097,146.251,618.097,142.251,622.097" fill="#181818" style="stroke:#181818;stroke-width:1;stroke-linejoin:miter;stroke-miterlimit:10;"/><line x1="213.822" y1="591.694" x2="225.822" y2="591.694" style="stroke:#181818;stroke-width:1;"/><polygon points="221.822,660.581,225.822,670.581,229.822,660.581,225.822,664.581" fill="#181818" style="stroke:#181818;stroke-width:1;stroke-linejoin:miter;stroke-miterlimit:10;"/><line x1="225.822" y1="591.694" x2="225.822" y2="734.581" style="stroke:#181818;stroke-width:1;"/><line x1="225.822" y1="734.581" x2="142.251" y2="734.581" style="stroke:#181818;stroke-width:1;"/><line x1="142.251" y1="734.581" x2="142.251" y2="754.581" style="stroke:#181818;stroke-width:1;"/><polygon points="138.251,744.581,142.251,754.581,146.251,744.581,142.251,748.581" fill="#181818" style="stroke:#181818;stroke-width:1;stroke-linejoin:miter;stroke-miterlimit:10;"/><line x1="142.251" y1="1747.003" x2="142.251" y2="1767.003" style="stroke:#181818;stroke-width:1;"/><polygon points="138.251,1757.003,142.251,1767.003,146.251,1757.003,142.251,1761.003" fill="#181818" style="stroke:#181818;stroke-width:1;stroke-linejoin:miter;stroke-miterlimit:10;"/><line x1="710.312" y1="311.304" x2="710.312" y2="339.819" style="stroke:#181818;stroke-width:1;"/><polygon points="706.312,329.819,710.312,339.819,714.312,329.819,710.312,333.819" fill="#181818" style="stroke:#181818;stroke-width:1;stroke-linejoin:miter;stroke-miterlimit:10;"/><line x1="710.312" y1="252.933" x2="710.312" y2="277.335" style="stroke:#181818;stroke-width:1;"/><polygon points="706.312,267.335,710.312,277.335,714.312,267.335,710.312,271.335" fill="#181818" style="stroke:#181818;stroke-width:1;stroke-linejoin:miter;stroke-miterlimit:10;"/><line x1="795.92" y1="240.933" x2="812.909" y2="240.933" style="stroke:#181818;stroke-width:1;"/><polygon points="808.909,309.819,812.909,319.819,816.909,309.819,812.909,313.819" fill="#181818" style="stroke:#181818;stroke-width:1;stroke-linejoin:miter;stroke-miterlimit:10;"/><line x1="812.909" y1="240.933" x2="812.909" y2="383.819" style="stroke:#181818;stroke-width:1;"/><line x1="812.909" y1="383.819" x2="710.312" y2="383.819" style="stroke:#181818;stroke-width:1;"/><line x1="710.312" y1="383.819" x2="710.312" y2="403.819" style="stroke:#181818;stroke-width:1;"/><polygon points="706.312,393.819,710.312,403.819,714.312,393.819,710.312,397.819" fill="#181818" style="stroke:#181818;stroke-width:1;stroke-linejoin:miter;stroke-miterlimit:10;"/><line x1="710.312" y1="890.921" x2="710.312" y2="919.437" style="stroke:#181818;stroke-width:1;"/><polygon points="706.312,909.437,710.312,919.437,714.312,909.437,710.312,913.437" fill="#181818" style="stroke:#181818;stroke-width:1;stroke-linejoin:miter;stroke-miterlimit:10;"/><line x1="710.312" y1="832.55" x2="710.312" y2="856.952" style="stroke:#181818;stroke-width:1;"/><polygon points="706.312,846.952,710.312,856.952,714.312,846.952,710.312,850.952" fill="#181818" style="stroke:#181818;stroke-width:1;stroke-linejoin:miter;stroke-miterlimit:10;"/><line x1="808.58" y1="820.55" x2="820.58" y2="820.55" style="stroke:#181818;stroke-width:1;"/><polygon points="816.58,889.437,820.58,899.437,824.58,889.437,820.58,893.437" fill="#181818" style="stroke:#181818;stroke-width:1;stroke-linejoin:miter;stroke-miterlimit:10;"/><line x1="820.58" y1="820.55" x2="820.58" y2="963.437" style="stroke:#181818;stroke-width:1;"/><line x1="820.58" y1="963.437" x2="710.312" y2="963.437" style="stroke:#181818;stroke-width:1;"/><line x1="710.312" y1="963.437" x2="710.312" y2="983.437" style="stroke:#181818;stroke-width:1;"/><polygon points="706.312,973.437,710.312,983.437,714.312,973.437,710.312,977.437" fill="#181818" style="stroke:#181818;stroke-width:1;stroke-linejoin:miter;stroke-miterlimit:10;"/><line x1="710.312" y1="1009.046" x2="710.312" y2="1033.448" style="stroke:#181818;stroke-width:1;"/><polygon points="706.312,1023.448,710.312,1033.448,714.312,1023.448,710.312,1027.448" fill="#181818" style="stroke:#181818;stroke-width:1;stroke-linejoin:miter;stroke-miterlimit:10;"/><line x1="827.021" y1="996.241" x2="839.021" y2="996.241" style="stroke:#181818;stroke-width:1;"/><polygon points="835.021,1040.03,839.021,1050.03,843.021,1040.03,839.021,1044.03" fill="#181818" style="stroke:#181818;stroke-width:1;stroke-linejoin:miter;stroke-miterlimit:10;"/><line x1="839.021" y1="996.241" x2="839.021" y2="1099.417" style="stroke:#181818;stroke-width:1;"/><line x1="839.021" y1="1099.417" x2="722.312" y2="1099.417" style="stroke:#181818;stroke-width:1;"/><polygon points="732.312,1095.417,722.312,1099.417,732.312,1103.417,728.312,1099.417" fill="#181818" style="stroke:#181818;stroke-width:1;stroke-linejoin:miter;stroke-miterlimit:10;"/><line x1="710.312" y1="1067.417" x2="710.312" y2="1087.417" style="stroke:#181818;stroke-width:1;"/><polygon points="706.312,1077.417,710.312,1087.417,714.312,1077.417,710.312,1081.417" fill="#181818" style="stroke:#181818;stroke-width:1;stroke-linejoin:miter;stroke-miterlimit:10;"/><line x1="585.606" y1="1482.065" x2="585.606" y2="1517.065" style="stroke:#181818;stroke-width:1;"/><polygon points="581.606,1507.065,585.606,1517.065,589.606,1507.065,585.606,1511.065" fill="#181818" style="stroke:#181818;stroke-width:1;stroke-linejoin:miter;stroke-miterlimit:10;"/><line x1="585.606" y1="1423.694" x2="585.606" y2="1448.097" style="stroke:#181818;stroke-width:1;"/><polygon points="581.606,1438.097,585.606,1448.097,589.606,1438.097,585.606,1442.097" fill="#181818" style="stroke:#181818;stroke-width:1;stroke-linejoin:miter;stroke-miterlimit:10;"/><line x1="639.536" y1="1411.694" x2="680.234" y2="1411.694" style="stroke:#181818;stroke-width:1;"/><polygon points="676.234,1491.581,680.234,1501.581,684.234,1491.581,680.234,1495.581" fill="#181818" style="stroke:#181818;stroke-width:1;stroke-linejoin:miter;stroke-miterlimit:10;"/><line x1="680.234" y1="1411.694" x2="680.234" y2="1583.065" style="stroke:#181818;stroke-width:1;"/><line x1="680.234" y1="1583.065" x2="698.312" y2="1583.065" style="stroke:#181818;stroke-width:1;"/><polygon points="688.312,1579.065,698.312,1583.065,688.312,1587.065,692.312,1583.065" fill="#181818" style="stroke:#181818;stroke-width:1;stroke-linejoin:miter;stroke-miterlimit:10;"/><line x1="799.543" y1="1299.757" x2="835.018" y2="1299.757" style="stroke:#181818;stroke-width:1;"/><line x1="835.018" y1="1299.757" x2="835.018" y2="1331.757" style="stroke:#181818;stroke-width:1;"/><polygon points="831.018,1321.757,835.018,1331.757,839.018,1321.757,835.018,1325.757" fill="#181818" style="stroke:#181818;stroke-width:1;stroke-linejoin:miter;stroke-miterlimit:10;"/><line x1="835.018" y1="1379.694" x2="835.018" y2="1583.065" style="stroke:#181818;stroke-width:1;"/><line x1="835.018" y1="1583.065" x2="722.312" y2="1583.065" style="stroke:#181818;stroke-width:1;"/><polygon points="732.312,1579.065,722.312,1583.065,732.312,1587.065,728.312,1583.065" fill="#181818" style="stroke:#181818;stroke-width:1;stroke-linejoin:miter;stroke-miterlimit:10;"/><line x1="710.312" y1="1267.757" x2="710.312" y2="1287.757" style="stroke:#181818;stroke-width:1;"/><polygon points="706.312,1277.757,710.312,1287.757,714.312,1277.757,710.312,1281.757" fill="#181818" style="stroke:#181818;stroke-width:1;stroke-linejoin:miter;stroke-miterlimit:10;"/><line x1="710.312" y1="1209.386" x2="710.312" y2="1233.788" style="stroke:#181818;stroke-width:1;"/><polygon points="706.312,1223.788,710.312,1233.788,714.312,1223.788,710.312,1227.788" fill="#181818" style="stroke:#181818;stroke-width:1;stroke-linejoin:miter;stroke-miterlimit:10;"/><line x1="645.63" y1="1197.386" x2="486.979" y2="1197.386" style="stroke:#181818;stroke-width:1;"/><polygon points="482.979,1400.612,486.979,1410.612,490.979,1400.612,486.979,1404.612" fill="#181818" style="stroke:#181818;stroke-width:1;stroke-linejoin:miter;stroke-miterlimit:10;"/><line x1="486.979" y1="1197.386" x2="486.979" y2="1627.065" style="stroke:#181818;stroke-width:1;"/><line x1="486.979" y1="1627.065" x2="698.312" y2="1627.065" style="stroke:#181818;stroke-width:1;"/><polygon points="688.312,1623.065,698.312,1627.065,688.312,1631.065,692.312,1627.065" fill="#181818" style="stroke:#181818;stroke-width:1;stroke-linejoin:miter;stroke-miterlimit:10;"/><line x1="710.312" y1="1595.065" x2="710.312" y2="1615.065" style="stroke:#181818;stroke-width:1;"/><polygon points="706.312,1605.065,710.312,1615.065,714.312,1605.065,710.312,1609.065" fill="#181818" style="stroke:#181818;stroke-width:1;stroke-linejoin:miter;stroke-miterlimit:10;"/><line x1="710.312" y1="1639.065" x2="710.312" y2="1659.065" style="stroke:#181818;stroke-width:1;"/><polygon points="706.312,1649.065,710.312,1659.065,714.312,1649.065,710.312,1653.065" fill="#181818" style="stroke:#181818;stroke-width:1;stroke-linejoin:miter;stroke-miterlimit:10;"/><line x1="142.251" y1="154.964" x2="142.251" y2="159.964" style="stroke:#181818;stroke-width:1;"/><line x1="142.251" y1="159.964" x2="366.24" y2="159.964" style="stroke:#181818;stroke-width:1;"/><line x1="366.24" y1="159.964" x2="366.24" y2="174.964" style="stroke:#181818;stroke-width:1;"/><polygon points="362.24,164.964,366.24,174.964,370.24,164.964,366.24,168.964" fill="#181818" style="stroke:#181818;stroke-width:1;stroke-linejoin:miter;stroke-miterlimit:10;"/><line x1="366.24" y1="208.933" x2="366.24" y2="213.933" style="stroke:#181818;stroke-width:1;"/><line x1="366.24" y1="213.933" x2="710.312" y2="213.933" style="stroke:#181818;stroke-width:1;"/><line x1="710.312" y1="213.933" x2="710.312" y2="228.933" style="stroke:#181818;stroke-width:1;"/><polygon points="706.312,218.933,710.312,228.933,714.312,218.933,710.312,222.933" fill="#181818" style="stroke:#181818;stroke-width:1;stroke-linejoin:miter;stroke-miterlimit:10;"/><line x1="710.312" y1="451.757" x2="710.312" y2="456.757" style="stroke:#181818;stroke-width:1;"/><line x1="710.312" y1="456.757" x2="1040.664" y2="456.757" style="stroke:#181818;stroke-width:1;"/><line x1="1040.664" y1="456.757" x2="1040.664" y2="471.757" style="stroke:#181818;stroke-width:1;"/><polygon points="1036.664,461.757,1040.664,471.757,1044.664,461.757,1040.664,465.757" fill="#181818" style="stroke:#181818;stroke-width:1;stroke-linejoin:miter;stroke-miterlimit:10;"/><line x1="1040.664" y1="505.726" x2="1040.664" y2="510.726" style="stroke:#181818;stroke-width:1;"/><line x1="1040.664" y1="510.726" x2="366.24" y2="510.726" style="stroke:#181818;stroke-width:1;"/><line x1="366.24" y1="510.726" x2="366.24" y2="525.726" style="stroke:#181818;stroke-width:1;"/><polygon points="362.24,515.726,366.24,525.726,370.24,515.726,366.24,519.726" fill="#181818" style="stroke:#181818;stroke-width:1;stroke-linejoin:miter;stroke-miterlimit:10;"/><line x1="366.24" y1="559.694" x2="366.24" y2="564.694" style="stroke:#181818;stroke-width:1;"/><line x1="366.24" y1="564.694" x2="142.251" y2="564.694" style="stroke:#181818;stroke-width:1;"/><line x1="142.251" y1="564.694" x2="142.251" y2="579.694" style="stroke:#181818;stroke-width:1;"/><polygon points="138.251,569.694,142.251,579.694,146.251,569.694,142.251,573.694" fill="#181818" style="stroke:#181818;stroke-width:1;stroke-linejoin:miter;stroke-miterlimit:10;"/><line x1="142.251" y1="788.55" x2="142.251" y2="793.55" style="stroke:#181818;stroke-width:1;"/><line x1="142.251" y1="793.55" x2="710.312" y2="793.55" style="stroke:#181818;stroke-width:1;"/><line x1="710.312" y1="793.55" x2="710.312" y2="808.55" style="stroke:#181818;stroke-width:1;"/><polygon points="706.312,798.55,710.312,808.55,714.312,798.55,710.312,802.55" fill="#181818" style="stroke:#181818;stroke-width:1;stroke-linejoin:miter;stroke-miterlimit:10;"/><line x1="710.312" y1="1111.417" x2="710.312" y2="1116.417" style="stroke:#181818;stroke-width:1;"/><line x1="710.312" y1="1116.417" x2="1040.664" y2="1116.417" style="stroke:#181818;stroke-width:1;"/><line x1="1040.664" y1="1116.417" x2="1040.664" y2="1131.417" style="stroke:#181818;stroke-width:1;"/><polygon points="1036.664,1121.417,1040.664,1131.417,1044.664,1121.417,1040.664,1125.417" fill="#181818" style="stroke:#181818;stroke-width:1;stroke-linejoin:miter;stroke-miterlimit:10;"/><line x1="1264.671" y1="1365.726" x2="1264.671" y2="1383.226" style="stroke:#181818;stroke-width:1;"/><line x1="1264.671" y1="1383.226" x2="585.606" y2="1383.226" style="stroke:#181818;stroke-width:1;"/><line x1="585.606" y1="1383.226" x2="585.606" y2="1399.694" style="stroke:#181818;stroke-width:1;"/><polygon points="581.606,1389.694,585.606,1399.694,589.606,1389.694,585.606,1393.694" fill="#181818" style="stroke:#181818;stroke-width:1;stroke-linejoin:miter;stroke-miterlimit:10;"/><line x1="621.081" y1="1299.757" x2="609.081" y2="1299.757" style="stroke:#181818;stroke-width:1;"/><line x1="609.081" y1="1299.757" x2="609.081" y2="1317.757" style="stroke:#181818;stroke-width:1;"/><line x1="609.081" y1="1317.757" x2="1264.671" y2="1317.757" style="stroke:#181818;stroke-width:1;"/><line x1="1264.671" y1="1317.757" x2="1264.671" y2="1331.757" style="stroke:#181818;stroke-width:1;"/><polygon points="1260.671,1321.757,1264.671,1331.757,1268.671,1321.757,1264.671,1325.757" fill="#181818" style="stroke:#181818;stroke-width:1;stroke-linejoin:miter;stroke-miterlimit:10;"/><line x1="1040.664" y1="1165.386" x2="1040.664" y2="1170.386" style="stroke:#181818;stroke-width:1;"/><line x1="1040.664" y1="1170.386" x2="710.312" y2="1170.386" style="stroke:#181818;stroke-width:1;"/><line x1="710.312" y1="1170.386" x2="710.312" y2="1185.386" style="stroke:#181818;stroke-width:1;"/><polygon points="706.312,1175.386,710.312,1185.386,714.312,1175.386,710.312,1179.386" fill="#181818" style="stroke:#181818;stroke-width:1;stroke-linejoin:miter;stroke-miterlimit:10;"/><line x1="710.312" y1="1693.034" x2="710.312" y2="1698.034" style="stroke:#181818;stroke-width:1;"/><line x1="710.312" y1="1698.034" x2="142.251" y2="1698.034" style="stroke:#181818;stroke-width:1;"/><line x1="142.251" y1="1698.034" x2="142.251" y2="1713.034" style="stroke:#181818;stroke-width:1;"/><polygon points="138.251,1703.034,142.251,1713.034,146.251,1703.034,142.251,1707.034" fill="#181818" style="stroke:#181818;stroke-width:1;stroke-linejoin:miter;stroke-miterlimit:10;"/><text x="77.535" y="71.75" fill="#000" font-size="18" textLength="127.433">Driver or Staff</text><text x="332.989" y="71.75" fill="#000" font-size="18" textLength="64.503">Web UI</text><text x="664.082" y="71.75" fill="#000" font-size="18" textLength="84.357">PBMS API</text><text x="975.464" y="71.75" fill="#000" font-size="18" textLength="128.399">Pricing Engine</text><text x="1234.513" y="71.75" fill="#000" font-size="18" textLength="58.315">VNPay</text><?plantuml-src VLHTJzj047pthrYfBo1HgKBzJ11Li452QcbAHAjAl9pFw-IQyvsv3y1j-j-xQpl1nONa8SxTtkpCx9o32XfXWTuhQ-1hHDU0C0MStWSql9RujJArSA82lnA5lLDc2QNG7WSxGWPrgq83lnE04o7NIsUZALAhhOCNP-_uoplM5UZwrTTl-4khcHALDSNusDdPOPecVv9aapbrYmveTH54MMuI7uGBoUGIRoBwqFL7tbyf7wnJKcZmdQXfilcEELoTRvB90acQY6659b1Dm09kM3BLp4y-Bs0sfofLmjvC4WfKWioGad2sO1_tWG_3teNT9-f4u2VA0D4mAFNzHOZTYIaS7P64DCiEZu-fb6ZL2RLN9TCEqHa8gY8p3q1eROaCmH-0giGI_S6ruI7Kegc8AKXh0ju7PadIU02dPgaCag9KQ1arAG4PdUDYyeD00WvrPyhNciJqAje93-f6zh85kmI0wrp6uh7wRMnk5TvXqIfEtv--JJ-C52zYNgdmW0HoXN9jOs0JS6J_OiXpnmErMgfSunD3s1K-OtqBhcrucNFGMdmspq5kxPgD9QjBhMJmrqOPgMEnNLJBw8Xt7iiItOx13_GjXLJK0w8vbjRX3clQDtzkUg8e52U0SblYs93PFzjm3A_651mo40tH8GrR8iovBRNhOpIbAiRwOZHrfom4klfjlZngCd0mtnuJOFFjOYwQJVkyZUqsbLUNdre3AJggRAYhZxfjGiSUsFDVxZhlJyrdvzcZ0RRWcGLZ0vIADD8rUdgQ_6adoW-TiVHBxoFOIuLVTO2JMLthPZWuINlGlbx8akvwTGw0RunSEMjizBfX_Xredzohkc1RoL5Z_fFRqTMPpEZwrnnn75mWoM--HpU4HVm5?></g></svg>